<svg xmlns="http://www.w3.org/2000/svg" viewBox="0 0 576 512">
    <!--! Font Awesome Pro
    6.3.0 by @fontawesome - https://fontawesome.com License - https://fontawesome.com/license
    (Commercial License) Copyright 2023 Fonticons, Inc. -->
    <defs>
        <linearGradient id="0" x1="0.5" y1="0" x2="0.5" y2="1">
            <stop offset="0%" stop-color="#41faa4" />
            <stop offset="33.33%" stop-color="#33ddcb" />
            <stop offset="100%" stop-color="#15a2fd" />
        </linearGradient>
    </defs>
    <g fill="url(#0)">
        <path
            d="M559.7 392.2c17.8-13.1 21.6-38.1 8.5-55.9s-38.1-21.6-55.9-8.5L392.6 416H272c-8.8 0-16-7.2-16-16s7.2-16 16-16h16 64c17.7 0 32-14.3 32-32s-14.3-32-32-32H288 272 193.7c-29.1 0-57.3 9.9-80 28L68.8 384H32c-17.7 0-32 14.3-32 32v64c0 17.7 14.3 32 32 32H192 352.5c29 0 57.3-9.3 80.7-26.5l126.6-93.3zm-366.1-8.3a.5 .5 0 1 1 -.9 .1 .5 .5 0 1 1 .9-.1z" />
        <g id="rdt_logo" transform="scale(3,3) translate(35, 0)">
            <path id="wing"
                d="M 60 7 
        Q 83 19 84 44 Q 83 67 94 83 
        Q 72 73 72 51 Q 72 25 60 7 Z " />
            <use href="#wing" transform="rotate(120 64 64)" />
            <use href="#wing" transform="rotate(240 64 64)" />
        </g>
    </g>
</svg>