<?xml version="1.0" encoding="UTF-8" ?>
<!DOCTYPE svg PUBLIC "-//W3C//DTD SVG 1.1//EN" "http://www.w3.org/Graphics/SVG/1.1/DTD/svg11.dtd">
<svg width="868pt" height="868pt" viewBox="0 0 868 868" version="1.1" xmlns="http://www.w3.org/2000/svg">
<path fill="#b5b5b5" opacity="1.00" d=" M 689.46 0.77 C 690.74 5.39 690.56 10.25 690.90 14.99 C 691.09 23.11 691.13 31.32 689.66 39.33 C 687.51 26.65 688.14 13.54 689.46 0.77 Z" />
<path fill="#b8b8b8" opacity="1.00" d=" M 784.36 1.99 C 786.29 18.60 785.15 35.33 785.54 52.00 C 785.44 59.32 786.25 66.74 784.98 73.98 C 784.77 74.31 784.36 74.96 784.15 75.28 C 781.77 56.60 783.17 37.72 782.85 18.95 C 783.19 13.30 782.79 7.49 784.36 1.99 Z" />
<path fill="#fedf00" opacity="1.00" d=" M 493.43 18.79 C 492.96 6.47 508.07 -0.09 518.48 3.35 C 512.58 4.42 506.20 4.59 501.01 7.92 C 496.45 11.27 495.74 18.03 497.79 23.00 C 503.96 35.33 520.97 40.99 533.05 34.06 C 537.31 30.69 537.21 24.62 539.33 19.98 C 540.78 24.31 540.43 28.95 539.54 33.36 L 539.06 33.53 C 533.75 35.32 528.80 38.41 523.09 38.79 C 516.07 39.25 508.90 37.00 503.31 32.73 C 498.69 29.19 495.86 23.95 493.43 18.79 Z" />
<path fill="#fdbf0e" opacity="1.00" d=" M 518.48 3.35 C 525.76 3.65 531.54 8.71 536.63 13.40 C 538.53 15.02 539.36 17.54 539.33 19.98 C 537.21 24.62 537.31 30.69 533.05 34.06 C 520.97 40.99 503.96 35.33 497.79 23.00 C 495.74 18.03 496.45 11.27 501.01 7.92 C 506.20 4.59 512.58 4.42 518.48 3.35 M 501.85 12.15 C 503.04 16.17 506.06 19.23 508.40 22.60 C 511.30 26.31 514.00 30.23 517.36 33.55 C 521.85 35.33 526.66 32.93 530.98 31.60 C 529.51 26.99 526.44 23.18 523.85 19.16 C 520.78 15.03 517.69 10.46 512.94 8.13 C 508.88 8.10 505.26 10.18 501.85 12.15 Z" />
<path fill="#b8b8b8" opacity="1.00" d=" M 367.56 9.04 C 367.76 7.58 367.56 5.84 368.77 4.75 C 370.14 11.42 369.58 18.26 369.57 25.01 C 369.38 32.69 369.88 40.37 369.57 48.05 C 369.40 50.18 369.48 52.51 368.16 54.33 C 366.25 39.33 366.56 24.11 367.56 9.04 Z" />
<path fill="#bbbbbb" opacity="1.00" d=" M 392.80 6.07 C 393.02 5.73 393.46 5.04 393.69 4.70 C 395.51 12.67 394.51 20.92 394.70 29.01 C 394.47 37.41 395.55 45.96 393.71 54.24 C 392.82 53.79 392.39 53.08 392.45 52.11 C 391.92 45.09 392.00 38.05 392.14 31.02 C 392.26 22.71 391.43 14.30 392.80 6.07 Z" />
<path fill="#fddc04" opacity="1.00" d=" M 501.85 12.15 C 505.26 10.18 508.88 8.10 512.94 8.13 C 517.69 10.46 520.78 15.03 523.85 19.16 C 526.44 23.18 529.51 26.99 530.98 31.60 C 526.66 32.93 521.85 35.33 517.36 33.55 C 514.00 30.23 511.30 26.31 508.40 22.60 C 506.06 19.23 503.04 16.17 501.85 12.15 Z" />
<path fill="#c2c2c2" opacity="1.00" d=" M 380.03 8.69 C 381.68 9.48 381.81 11.43 382.27 12.96 C 383.46 17.90 382.92 23.02 383.03 28.06 C 382.88 35.54 383.89 43.33 380.90 50.43 C 378.61 48.29 379.44 44.86 379.05 42.07 C 378.76 30.96 378.16 19.68 380.03 8.69 Z" />
<path fill="#fedf00" opacity="1.00" d=" M 154.76 19.03 C 157.74 14.76 162.87 12.54 167.91 11.91 C 176.81 26.75 181.06 44.95 176.86 61.98 C 175.77 67.86 171.84 72.52 168.76 77.45 C 162.68 77.94 157.55 73.10 155.65 67.68 C 158.98 69.21 161.58 72.04 165.03 73.32 C 169.80 73.92 172.68 69.07 174.22 65.28 C 179.07 51.46 177.57 35.83 171.53 22.62 C 170.31 20.35 169.13 17.11 166.09 16.98 C 162.20 16.72 158.48 18.10 154.76 19.03 Z" />
<path fill="#f7b822" opacity="1.00" d=" M 167.91 11.91 C 171.98 12.40 176.88 11.74 180.01 14.98 C 184.81 20.54 187.16 27.79 188.21 34.96 C 189.35 43.26 189.36 51.75 187.96 60.03 C 187.04 65.24 185.16 70.55 181.34 74.34 C 177.91 77.39 172.96 76.69 168.76 77.45 C 171.84 72.52 175.77 67.86 176.86 61.98 C 181.06 44.95 176.81 26.75 167.91 11.91 Z" />
<path fill="#c5c5c5" opacity="1.00" d=" M 700.04 11.90 C 703.16 12.20 702.35 15.78 702.52 17.98 C 702.31 24.39 702.87 30.87 701.74 37.23 C 701.43 37.04 700.81 36.66 700.50 36.47 C 699.12 28.38 699.39 20.06 700.04 11.90 Z" />
<path fill="#b8b8b8" opacity="1.00" d=" M 68.49 14.83 C 69.99 15.62 69.63 17.55 69.91 18.94 C 70.51 26.94 69.90 34.97 70.00 42.98 C 69.91 51.01 70.50 59.05 69.92 67.06 C 69.66 68.46 70.00 70.35 68.49 71.14 C 66.75 52.44 66.79 33.54 68.49 14.83 Z" />
<path fill="#bcbcbc" opacity="1.00" d=" M 93.28 14.64 C 94.07 15.59 94.89 16.60 94.86 17.92 C 95.51 23.92 95.24 29.98 95.22 36.01 C 94.98 45.64 95.53 55.28 95.14 64.91 C 94.89 67.11 95.20 69.77 93.27 71.33 C 92.21 62.95 92.56 54.49 92.67 46.07 C 92.83 35.60 91.94 25.07 93.28 14.64 Z" />
<path fill="#fdc00f" opacity="1.00" d=" M 154.76 19.03 C 158.48 18.10 162.20 16.72 166.09 16.98 C 169.13 17.11 170.31 20.35 171.53 22.62 C 177.57 35.83 179.07 51.46 174.22 65.28 C 172.68 69.07 169.80 73.92 165.03 73.32 C 161.58 72.04 158.98 69.21 155.65 67.68 L 155.40 67.54 C 148.36 52.38 149.17 34.76 154.30 19.16 L 154.76 19.03 M 159.49 34.62 C 163.10 41.86 166.23 49.42 170.98 56.01 C 171.57 57.02 172.52 57.68 173.64 57.97 C 174.18 52.94 174.05 47.70 171.85 43.04 C 168.68 36.03 165.17 29.12 160.77 22.79 C 157.22 25.66 157.57 30.91 159.49 34.62 M 155.94 36.75 C 156.01 42.48 159.30 47.34 161.67 52.33 C 163.91 56.56 165.92 61.21 169.90 64.13 C 169.57 57.79 165.22 52.82 162.80 47.22 C 161.00 43.48 159.73 39.02 155.94 36.75 Z" />
<path fill="#c2c2c2" opacity="1.00" d=" M 80.39 19.48 C 80.71 19.34 81.35 19.06 81.67 18.92 C 84.02 25.40 83.57 32.29 83.54 39.05 C 83.20 48.42 84.78 58.10 81.64 67.14 C 79.70 66.70 80.04 64.45 79.76 62.94 C 79.09 54.64 79.36 46.31 79.33 38.00 C 79.43 31.83 79.10 25.54 80.39 19.48 Z" />
<path fill="#f7b61f" opacity="1.00" d=" M 494.74 32.23 C 492.12 28.31 491.99 23.16 493.43 18.79 C 495.86 23.95 498.69 29.19 503.31 32.73 C 508.90 37.00 516.07 39.25 523.09 38.79 C 528.80 38.41 533.75 35.32 539.06 33.53 C 537.35 38.40 533.68 42.95 528.62 44.52 C 516.27 48.16 501.81 43.04 494.74 32.23 Z" />
<path fill="#bbbbbb" opacity="1.00" d=" M 808.00 36.97 C 808.06 30.92 807.64 24.61 809.57 18.81 C 811.80 28.38 810.25 38.29 810.66 48.01 C 810.44 57.08 811.64 66.34 809.68 75.28 C 808.82 74.35 808.40 73.25 808.42 71.99 C 807.47 60.33 808.64 48.63 808.00 36.97 Z" />
<path fill="#fec00e" opacity="1.00" d=" M 247.59 29.33 C 248.98 25.96 249.52 21.49 253.09 19.67 C 257.85 18.68 262.69 20.15 267.16 21.72 C 279.50 26.21 291.60 32.75 299.94 43.16 C 298.71 46.66 297.59 50.20 296.31 53.69 C 283.55 40.28 266.36 30.34 247.59 29.33 Z" />
<path fill="#fede01" opacity="1.00" d=" M 159.49 34.62 C 157.57 30.91 157.22 25.66 160.77 22.79 C 165.17 29.12 168.68 36.03 171.85 43.04 C 174.05 47.70 174.18 52.94 173.64 57.97 C 172.52 57.68 171.57 57.02 170.98 56.01 C 166.23 49.42 163.10 41.86 159.49 34.62 Z" />
<path fill="#ef9c21" opacity="1.00" d=" M 245.35 29.18 C 245.91 29.22 247.03 29.29 247.59 29.33 C 266.36 30.34 283.55 40.28 296.31 53.69 L 296.84 54.19 C 294.21 56.67 290.63 58.85 286.88 57.82 C 273.70 54.95 261.17 48.88 250.99 39.99 C 247.69 37.31 246.59 33.04 245.35 29.18 Z" />
<path fill="#c2c2c2" opacity="1.00" d=" M 795.08 41.00 C 795.40 38.56 794.82 35.58 796.86 33.74 C 799.01 39.22 799.23 45.17 799.06 50.98 C 798.85 56.99 799.66 63.18 797.74 68.99 C 797.48 69.99 796.91 70.76 796.02 71.30 C 794.28 61.32 794.72 51.08 795.08 41.00 Z" />
<path fill="#fedd03" opacity="1.00" d=" M 155.94 36.75 C 159.73 39.02 161.00 43.48 162.80 47.22 C 165.22 52.82 169.57 57.79 169.90 64.13 C 165.92 61.21 163.91 56.56 161.67 52.33 C 159.30 47.34 156.01 42.48 155.94 36.75 Z" />
<path fill="#fedf00" opacity="1.00" d=" M 682.69 56.06 C 685.62 51.77 690.76 49.18 695.91 48.93 C 706.47 65.55 710.16 86.46 705.48 105.63 C 704.10 111.51 700.11 116.21 697.63 121.60 C 690.32 122.63 684.46 116.19 682.58 109.72 C 686.51 111.16 688.59 115.10 692.12 117.10 C 696.88 118.51 700.42 113.85 702.05 110.00 C 706.23 99.98 706.95 88.72 705.20 78.07 C 704.13 70.96 702.07 63.88 698.25 57.72 C 697.40 56.53 696.52 54.97 694.92 54.78 C 690.80 54.24 686.75 55.59 682.69 56.06 Z" />
<path fill="#f7b822" opacity="1.00" d=" M 695.91 48.93 C 700.70 49.08 706.88 48.38 709.87 53.07 C 718.10 64.86 719.12 79.93 718.48 93.86 C 717.90 102.25 716.49 111.21 710.94 117.87 C 707.56 121.53 702.12 120.91 697.63 121.60 C 700.11 116.21 704.10 111.51 705.48 105.63 C 710.16 86.46 706.47 65.55 695.91 48.93 Z" />
<path fill="#fdc00f" opacity="1.00" d=" M 682.69 56.06 C 686.75 55.59 690.80 54.24 694.92 54.78 C 696.52 54.97 697.40 56.53 698.25 57.72 C 702.07 63.88 704.13 70.96 705.20 78.07 C 706.95 88.72 706.23 99.98 702.05 110.00 C 700.42 113.85 696.88 118.51 692.12 117.10 C 688.59 115.10 686.51 111.16 682.58 109.72 L 682.42 109.64 C 675.49 92.65 676.10 73.28 682.17 56.14 L 682.69 56.06 M 688.17 60.74 C 686.67 62.91 684.78 65.45 685.60 68.24 C 688.04 77.11 692.80 85.06 696.63 93.36 C 697.89 96.14 699.56 98.73 701.68 100.93 C 703.36 96.03 703.37 90.54 701.27 85.75 C 698.76 80.27 696.46 74.69 693.67 69.35 C 692.07 66.35 690.89 62.94 688.17 60.74 M 682.30 74.87 C 683.19 80.77 686.06 86.03 688.54 91.37 C 691.31 97.21 693.54 103.84 698.85 107.93 C 698.72 103.71 696.46 100.04 694.72 96.34 C 692.14 90.88 689.77 85.33 687.16 79.89 C 686.14 77.72 684.58 75.77 682.30 74.87 Z" />
<path fill="#ffde00" opacity="1.00" d=" M 341.14 82.88 C 349.07 69.24 364.10 59.52 380.04 59.31 C 393.53 58.93 406.73 65.30 415.70 75.23 C 419.05 79.07 421.94 83.33 424.09 87.96 C 428.87 98.15 430.09 109.70 428.76 120.81 C 428.06 125.08 426.89 129.27 425.28 133.29 C 423.38 137.65 421.03 141.83 418.18 145.64 C 410.62 155.31 399.15 161.96 386.91 163.28 C 373.38 164.96 359.06 160.60 349.19 151.09 C 345.89 147.80 342.93 144.16 340.48 140.19 C 338.28 136.45 336.50 132.45 335.24 128.30 C 332.27 117.74 332.34 106.45 335.21 95.88 C 336.52 91.28 338.63 86.94 341.14 82.88 M 366.59 69.58 C 356.79 71.79 348.80 79.35 344.06 88.01 C 338.54 98.33 337.70 110.52 339.24 121.95 C 341.84 136.31 351.98 149.08 365.59 154.46 C 374.01 157.56 383.29 157.80 392.02 156.03 C 407.10 152.47 418.82 139.40 422.57 124.61 C 424.45 116.36 424.43 107.59 422.54 99.34 C 420.41 93.25 417.84 87.20 414.15 81.88 C 409.51 76.01 403.16 70.46 395.51 69.52 C 386.72 64.70 375.35 64.74 366.59 69.58 Z" />
<path fill="#fede01" opacity="1.00" d=" M 688.17 60.74 C 690.89 62.94 692.07 66.35 693.67 69.35 C 696.46 74.69 698.76 80.27 701.27 85.75 C 703.37 90.54 703.36 96.03 701.68 100.93 C 699.56 98.73 697.89 96.14 696.63 93.36 C 692.80 85.06 688.04 77.11 685.60 68.24 C 684.78 65.45 686.67 62.91 688.17 60.74 Z" />
<path fill="#f0a91f" opacity="1.00" d=" M 366.59 69.58 C 375.35 64.74 386.72 64.70 395.51 69.52 C 385.91 70.48 376.20 70.34 366.59 69.58 Z" />
<path fill="#b5b5b5" opacity="1.00" d=" M 597.47 65.82 C 598.90 72.41 598.81 79.22 599.02 85.94 C 598.82 92.36 599.04 98.93 597.40 105.20 C 595.87 92.14 595.98 78.88 597.47 65.82 Z" />
<path fill="#fdc00f" opacity="1.00" d=" M 344.06 88.01 C 348.80 79.35 356.79 71.79 366.59 69.58 C 376.20 70.34 385.91 70.48 395.51 69.52 C 403.16 70.46 409.51 76.01 414.15 81.88 C 417.84 87.20 420.41 93.25 422.54 99.34 C 424.43 107.59 424.45 116.36 422.57 124.61 C 418.82 139.40 407.10 152.47 392.02 156.03 C 383.29 157.80 374.01 157.56 365.59 154.46 C 351.98 149.08 341.84 136.31 339.24 121.95 C 337.70 110.52 338.54 98.33 344.06 88.01 M 392.40 78.32 C 387.13 82.76 382.50 87.91 378.11 93.19 C 369.26 102.33 360.88 111.88 352.24 121.21 C 350.83 122.76 349.04 124.09 348.18 126.04 C 348.14 128.70 349.95 130.84 351.27 132.99 C 361.57 123.40 371.57 113.41 380.76 102.74 C 388.09 95.51 394.46 87.42 400.88 79.40 C 398.56 77.57 394.92 75.96 392.40 78.32 M 405.38 85.47 C 394.77 94.85 386.32 106.35 376.31 116.34 C 370.50 123.48 363.59 129.67 358.11 137.10 C 357.50 138.12 356.25 139.49 357.41 140.63 C 361.12 144.57 366.07 147.42 371.37 148.58 C 373.06 148.95 374.64 147.83 375.88 146.80 C 386.19 136.81 395.62 125.97 405.27 115.35 C 409.13 111.46 413.89 107.74 415.08 102.08 C 415.19 96.27 411.78 91.08 408.29 86.70 C 407.58 86.02 406.43 84.31 405.38 85.47 Z" />
<path fill="#010173" opacity="1.00" d=" M 415.70 75.23 C 462.67 75.21 509.88 84.22 552.96 103.15 C 572.02 111.82 590.11 122.77 606.18 136.22 C 601.97 137.62 597.87 139.30 593.84 141.14 C 592.39 141.70 591.30 140.45 590.21 139.77 C 565.20 121.06 536.16 108.23 506.13 99.97 C 479.41 92.58 451.76 88.98 424.09 87.96 C 421.94 83.33 419.05 79.07 415.70 75.23 Z" />
<path fill="#fedd03" opacity="1.00" d=" M 682.30 74.87 C 684.58 75.77 686.14 77.72 687.16 79.89 C 689.77 85.33 692.14 90.88 694.72 96.34 C 696.46 100.04 698.72 103.71 698.85 107.93 C 693.54 103.84 691.31 97.21 688.54 91.37 C 686.06 86.03 683.19 80.77 682.30 74.87 Z" />
<path fill="#fdde00" opacity="1.00" d=" M 392.40 78.32 C 394.92 75.96 398.56 77.57 400.88 79.40 C 394.46 87.42 388.09 95.51 380.76 102.74 C 371.57 113.41 361.57 123.40 351.27 132.99 C 349.95 130.84 348.14 128.70 348.18 126.04 C 349.04 124.09 350.83 122.76 352.24 121.21 C 360.88 111.88 369.26 102.33 378.11 93.19 C 382.50 87.91 387.13 82.76 392.40 78.32 Z" />
<path fill="#c2c2c2" opacity="1.00" d=" M 607.90 77.68 C 611.17 77.31 610.27 80.91 610.50 83.02 C 610.38 89.58 610.74 96.18 609.83 102.70 C 608.37 102.06 608.30 100.39 608.08 99.07 C 607.23 91.97 607.57 84.80 607.90 77.68 Z" />
<path fill="#010173" opacity="1.00" d=" M 279.08 100.22 C 298.85 91.89 319.54 85.78 340.61 81.77 L 341.07 82.25 L 341.14 82.88 C 338.63 86.94 336.52 91.28 335.21 95.88 C 292.77 105.36 251.26 123.23 219.00 152.95 C 216.06 155.39 213.82 158.76 210.31 160.44 C 207.02 158.10 203.82 155.60 200.19 153.78 C 221.97 130.21 249.63 112.64 279.08 100.22 Z" />
<path fill="#fede00" opacity="1.00" d=" M 405.38 85.47 C 406.43 84.31 407.58 86.02 408.29 86.70 C 411.78 91.08 415.19 96.27 415.08 102.08 C 413.89 107.74 409.13 111.46 405.27 115.35 C 395.62 125.97 386.19 136.81 375.88 146.80 C 374.64 147.83 373.06 148.95 371.37 148.58 C 366.07 147.42 361.12 144.57 357.41 140.63 C 356.25 139.49 357.50 138.12 358.11 137.10 C 363.59 129.67 370.50 123.48 376.31 116.34 C 386.32 106.35 394.77 94.85 405.38 85.47 Z" />
<path fill="#fdbf10" opacity="1.00" d=" M 49.11 102.24 C 66.81 92.39 86.76 86.30 107.08 85.75 C 108.80 88.85 109.69 92.30 109.01 95.84 C 101.55 100.62 93.42 104.18 84.99 106.85 C 84.37 105.77 83.76 104.69 83.16 103.61 C 89.46 99.42 96.66 96.44 102.19 91.17 C 91.53 88.46 81.06 93.78 72.22 99.23 C 65.86 103.43 59.63 108.16 52.14 110.12 C 51.09 107.67 50.12 105.19 49.26 102.67 L 49.11 102.24 Z" />
<path fill="#fbdb07" opacity="1.00" d=" M 107.08 85.75 C 110.87 86.75 115.15 88.40 116.31 92.58 C 113.84 93.59 111.36 94.58 109.01 95.84 C 109.69 92.30 108.80 88.85 107.08 85.75 Z" />
<path fill="#ffffff" opacity="1.00" d=" M 424.09 87.96 C 451.76 88.98 479.41 92.58 506.13 99.97 C 536.16 108.23 565.20 121.06 590.21 139.77 C 591.30 140.45 592.39 141.70 593.84 141.14 C 585.02 145.23 576.11 149.76 569.25 156.81 L 569.86 155.68 C 527.16 131.27 477.42 122.34 428.76 120.81 C 430.09 109.70 428.87 98.15 424.09 87.96 Z" />
<path fill="#fdd804" opacity="1.00" d=" M 72.22 99.23 C 81.06 93.78 91.53 88.46 102.19 91.17 C 96.66 96.44 89.46 99.42 83.16 103.61 C 83.76 104.69 84.37 105.77 84.99 106.85 C 72.66 110.94 59.53 111.14 46.71 112.31 C 46.15 112.35 45.04 112.43 44.48 112.47 C 45.67 109.03 47.09 105.63 49.26 102.67 C 50.12 105.19 51.09 107.67 52.14 110.12 C 59.63 108.16 65.86 103.43 72.22 99.23 Z" />
<path fill="#fedf00" opacity="1.00" d=" M 756.53 101.66 C 765.95 93.52 778.75 90.33 791.00 90.57 C 809.37 90.77 828.14 97.56 840.92 111.07 C 847.62 118.29 852.78 127.90 851.92 138.02 C 851.44 142.00 850.88 146.15 848.89 149.69 C 842.59 155.36 836.03 161.27 827.72 163.72 C 809.81 169.15 790.03 166.08 773.62 157.49 C 767.07 154.06 760.51 150.03 756.18 143.87 C 751.85 138.25 749.15 131.63 745.44 125.62 C 746.58 116.81 749.60 107.62 756.53 101.66 M 780.39 95.49 C 770.13 97.60 759.94 103.46 755.16 113.09 C 750.69 122.80 753.66 134.66 760.71 142.33 C 770.01 152.72 783.34 158.81 796.89 161.28 C 809.73 163.32 823.93 162.70 834.85 154.87 C 843.01 149.95 847.53 139.71 845.63 130.37 C 844.27 122.99 839.51 116.85 834.75 111.28 C 820.46 97.74 799.70 91.95 780.39 95.49 Z" />
<path fill="#f7b821" opacity="1.00" d=" M 109.01 95.84 C 111.36 94.58 113.84 93.59 116.31 92.58 C 116.78 97.14 117.92 101.59 118.68 106.10 C 106.25 117.10 89.80 121.52 73.97 125.00 C 65.97 126.71 57.65 127.09 49.60 125.46 C 48.27 121.17 47.31 116.76 46.71 112.31 C 59.53 111.14 72.66 110.94 84.99 106.85 C 93.42 104.18 101.55 100.62 109.01 95.84 Z" />
<path fill="#fdc00f" opacity="1.00" d=" M 780.39 95.49 C 799.70 91.95 820.46 97.74 834.75 111.28 C 839.51 116.85 844.27 122.99 845.63 130.37 C 847.53 139.71 843.01 149.95 834.85 154.87 C 823.93 162.70 809.73 163.32 796.89 161.28 C 783.34 158.81 770.01 152.72 760.71 142.33 C 753.66 134.66 750.69 122.80 755.16 113.09 C 759.94 103.46 770.13 97.60 780.39 95.49 M 812.72 109.66 C 803.92 113.33 794.96 116.57 786.11 120.11 C 778.26 123.06 770.34 125.96 763.00 130.04 C 760.72 131.41 762.63 134.45 764.04 135.80 C 776.92 131.90 789.26 126.48 801.86 121.80 C 809.36 118.72 817.18 116.26 824.25 112.25 C 826.28 111.26 823.84 109.68 822.77 109.22 C 819.65 107.17 815.85 108.31 812.72 109.66 M 811.71 123.71 C 797.31 129.53 782.63 134.70 768.43 141.02 C 771.73 145.68 776.83 148.80 781.93 151.17 C 785.84 153.00 790.16 151.41 793.89 149.90 C 805.62 144.64 818.04 141.10 829.69 135.66 C 832.51 134.27 835.61 133.12 837.87 130.83 C 837.87 125.39 834.23 120.76 830.98 116.69 C 824.39 118.53 818.20 121.53 811.71 123.71 Z" />
<path fill="#ffffff" opacity="1.00" d=" M 219.00 152.95 C 251.26 123.23 292.77 105.36 335.21 95.88 C 332.34 106.45 332.27 117.74 335.24 128.30 C 294.84 136.83 254.68 153.15 224.95 182.61 C 222.27 173.99 216.78 166.60 210.31 160.44 C 213.82 158.76 216.06 155.39 219.00 152.95 Z" />
<path fill="#fdde00" opacity="1.00" d=" M 812.72 109.66 C 815.85 108.31 819.65 107.17 822.77 109.22 C 823.84 109.68 826.28 111.26 824.25 112.25 C 817.18 116.26 809.36 118.72 801.86 121.80 C 789.26 126.48 776.92 131.90 764.04 135.80 C 762.63 134.45 760.72 131.41 763.00 130.04 C 770.34 125.96 778.26 123.06 786.11 120.11 C 794.96 116.57 803.92 113.33 812.72 109.66 Z" />
<path fill="#fede00" opacity="1.00" d=" M 811.71 123.71 C 818.20 121.53 824.39 118.53 830.98 116.69 C 834.23 120.76 837.87 125.39 837.87 130.83 C 835.61 133.12 832.51 134.27 829.69 135.66 C 818.04 141.10 805.62 144.64 793.89 149.90 C 790.16 151.41 785.84 153.00 781.93 151.17 C 776.83 148.80 771.73 145.68 768.43 141.02 C 782.63 134.70 797.31 129.53 811.71 123.71 Z" />
<path fill="#2959a3" opacity="1.00" d=" M 425.28 133.29 C 426.89 129.27 428.06 125.08 428.76 120.81 C 477.42 122.34 527.16 131.27 569.86 155.68 L 569.25 156.81 C 566.61 160.46 567.37 165.23 568.93 169.15 C 554.19 161.32 539.03 154.19 523.09 149.13 C 491.56 138.73 458.36 134.42 425.28 133.29 Z" />
<path fill="#f7b821" opacity="1.00" d=" M 744.44 142.98 C 742.96 137.24 743.78 131.22 745.44 125.62 C 749.15 131.63 751.85 138.25 756.18 143.87 C 760.51 150.03 767.07 154.06 773.62 157.49 C 790.03 166.08 809.81 169.15 827.72 163.72 C 836.03 161.27 842.59 155.36 848.89 149.69 C 848.61 158.11 844.34 166.36 837.47 171.29 C 828.22 178.18 816.38 180.73 805.02 180.37 C 787.77 180.01 770.30 174.27 757.30 162.71 C 751.49 157.36 746.42 150.75 744.44 142.98 Z" />
<path fill="#2959a3" opacity="1.00" d=" M 224.95 182.61 C 254.68 153.15 294.84 136.83 335.24 128.30 C 336.50 132.45 338.28 136.45 340.48 140.19 C 311.01 146.82 281.61 156.29 256.37 173.30 C 249.08 178.20 242.15 183.67 235.83 189.76 C 231.81 193.57 228.47 198.07 224.06 201.44 C 225.70 195.34 226.29 188.83 224.95 182.61 Z" />
<path fill="#fdc00f" opacity="1.00" d=" M 606.18 136.22 C 614.49 133.50 623.18 131.62 631.97 131.73 C 634.07 131.72 636.21 132.73 637.39 134.50 C 639.85 138.34 640.62 142.93 642.58 147.00 C 637.74 147.96 632.80 147.05 627.93 147.72 C 622.56 148.26 617.19 149.17 612.12 151.08 C 597.11 156.50 582.03 163.39 570.95 175.23 C 570.32 173.19 569.66 171.15 568.93 169.15 C 567.37 165.23 566.61 160.46 569.25 156.81 C 576.11 149.76 585.02 145.23 593.84 141.14 C 597.87 139.30 601.97 137.62 606.18 136.22 Z" />
<path fill="#a8a6ce" opacity="1.00" d=" M 418.18 145.64 C 421.03 141.83 423.38 137.65 425.28 133.29 C 458.36 134.42 491.56 138.73 523.09 149.13 C 539.03 154.19 554.19 161.32 568.93 169.15 C 569.66 171.15 570.32 173.19 570.95 175.23 C 572.07 182.07 580.22 183.01 585.80 181.92 C 597.08 191.44 607.30 202.36 615.06 214.96 C 625.67 231.93 631.67 251.44 634.39 271.18 C 634.90 274.80 634.77 278.47 634.40 282.09 C 631.25 275.44 631.11 267.95 629.03 260.98 C 620.19 228.46 597.72 200.44 569.20 182.85 C 533.38 160.75 491.54 150.25 449.90 146.90 C 439.35 146.10 428.76 145.48 418.18 145.64 Z" />
<path fill="#a8a6ce" opacity="1.00" d=" M 256.37 173.30 C 281.61 156.29 311.01 146.82 340.48 140.19 C 342.93 144.16 345.89 147.80 349.19 151.09 C 326.11 154.71 303.58 161.67 282.36 171.41 C 258.30 182.17 236.71 198.87 221.28 220.33 C 211.83 233.47 204.59 248.29 200.75 264.05 C 199.30 269.78 198.84 275.81 196.31 281.23 C 195.27 262.64 201.30 244.67 208.27 227.72 C 212.50 224.54 216.97 221.23 219.38 216.38 C 221.46 212.46 222.32 208.08 223.41 203.82 C 223.62 203.02 223.84 202.23 224.06 201.44 C 228.47 198.07 231.81 193.57 235.83 189.76 C 242.15 183.67 249.08 178.20 256.37 173.30 Z" />
<path fill="#fedf00" opacity="1.00" d=" M 139.62 156.57 C 146.27 150.51 155.12 147.28 164.00 146.47 C 176.45 145.21 189.15 147.99 200.19 153.78 C 203.82 155.60 207.02 158.10 210.31 160.44 C 216.78 166.60 222.27 173.99 224.95 182.61 C 226.29 188.83 225.70 195.34 224.06 201.44 C 223.84 202.23 223.62 203.02 223.41 203.82 C 218.02 207.17 213.97 212.34 208.22 215.15 C 197.87 220.22 185.78 220.99 174.64 218.43 C 161.98 215.78 149.42 210.19 140.85 200.22 C 135.72 194.47 133.42 186.95 129.33 180.53 C 129.90 171.75 132.92 162.60 139.62 156.57 M 163.38 150.49 C 155.47 151.90 147.77 155.39 142.26 161.36 C 138.60 165.69 135.84 171.13 135.90 176.91 C 135.49 186.37 140.21 195.63 147.62 201.38 C 156.04 208.40 166.18 213.55 177.08 215.21 C 187.12 216.98 198.06 216.24 207.01 210.99 C 212.94 207.73 217.76 202.23 219.68 195.69 C 220.98 188.62 220.08 181.00 216.19 174.83 C 212.44 169.09 208.12 163.52 202.43 159.58 C 191.09 151.99 176.93 148.41 163.38 150.49 Z" />
<path fill="#2959a3" opacity="1.00" d=" M 418.18 145.64 C 428.76 145.48 439.35 146.10 449.90 146.90 C 491.54 150.25 533.38 160.75 569.20 182.85 C 597.72 200.44 620.19 228.46 629.03 260.98 C 631.11 267.95 631.25 275.44 634.40 282.09 C 634.77 278.47 634.90 274.80 634.39 271.18 C 631.67 251.44 625.67 231.93 615.06 214.96 C 607.30 202.36 597.08 191.44 585.80 181.92 C 590.98 181.12 596.17 180.18 601.15 178.49 C 627.43 202.10 642.91 236.19 647.01 270.99 C 648.81 287.66 649.07 304.92 643.98 321.08 C 637.90 341.07 625.46 359.19 608.56 371.54 C 597.46 379.38 585.99 386.79 573.72 392.69 C 555.00 401.69 534.85 407.25 514.56 411.40 C 497.95 414.69 481.32 417.95 464.48 419.77 C 440.11 422.47 415.51 423.23 391.03 421.64 C 368.32 420.34 345.82 416.73 323.47 412.66 C 297.68 407.84 271.90 401.02 248.78 388.29 C 239.81 383.47 231.19 378.01 222.97 371.99 C 202.37 357.65 188.57 334.56 183.97 310.04 C 181.97 300.12 182.12 289.93 182.67 279.88 C 183.75 263.84 187.00 247.90 192.67 232.83 C 198.11 232.07 203.44 230.35 208.27 227.72 C 201.30 244.67 195.27 262.64 196.31 281.23 C 198.84 275.81 199.30 269.78 200.75 264.05 C 204.59 248.29 211.83 233.47 221.28 220.33 C 236.71 198.87 258.30 182.17 282.36 171.41 C 303.58 161.67 326.11 154.71 349.19 151.09 C 359.06 160.60 373.38 164.96 386.91 163.28 C 399.15 161.96 410.62 155.31 418.18 145.64 M 310.57 171.72 C 297.60 173.80 284.55 178.68 275.03 188.00 C 268.45 194.35 264.38 204.01 266.81 213.13 C 269.38 223.23 277.67 230.65 286.56 235.41 C 303.88 244.51 324.47 246.14 343.48 242.31 C 354.19 239.86 364.80 235.49 372.95 227.95 C 379.48 221.90 384.11 212.95 382.56 203.86 C 380.96 194.13 373.66 186.43 365.56 181.39 C 349.22 171.50 329.25 168.95 310.57 171.72 M 499.56 173.78 C 485.70 175.60 471.64 180.47 461.48 190.42 C 454.84 196.90 450.81 206.77 453.46 215.98 C 456.21 225.86 464.35 233.12 473.12 237.82 C 489.52 246.53 508.93 248.26 527.06 245.27 C 539.26 242.98 551.48 238.22 560.45 229.40 C 566.77 223.16 570.92 213.90 568.83 204.96 C 566.69 195.34 559.18 187.93 550.94 183.08 C 535.51 174.22 517.06 171.62 499.56 173.78 M 341.17 264.09 C 346.17 273.81 354.88 281.15 364.00 286.91 C 387.40 301.18 416.46 305.07 443.07 299.21 C 461.41 295.15 478.38 285.87 492.22 273.25 C 495.42 270.17 499.08 267.36 501.13 263.32 C 495.83 262.19 490.40 262.61 485.03 262.56 C 438.69 262.58 392.35 262.60 346.01 262.54 C 344.32 262.65 342.24 262.51 341.17 264.09 Z" />
<path fill="#eb9a22" opacity="1.00" d=" M 612.12 151.08 C 617.19 149.17 622.56 148.26 627.93 147.72 C 633.20 147.39 638.49 147.47 643.75 148.04 C 643.33 154.75 638.89 160.34 633.20 163.55 C 629.63 165.82 626.04 168.06 622.27 169.97 C 615.49 173.43 608.35 176.07 601.15 178.49 C 596.17 180.18 590.98 181.12 585.80 181.92 C 580.22 183.01 572.07 182.07 570.95 175.23 C 582.03 163.39 597.11 156.50 612.12 151.08 Z" />
<path fill="#fdc00f" opacity="1.00" d=" M 163.38 150.49 C 176.93 148.41 191.09 151.99 202.43 159.58 C 208.12 163.52 212.44 169.09 216.19 174.83 C 220.08 181.00 220.98 188.62 219.68 195.69 C 217.76 202.23 212.94 207.73 207.01 210.99 C 198.06 216.24 187.12 216.98 177.08 215.21 C 166.18 213.55 156.04 208.40 147.62 201.38 C 140.21 195.63 135.49 186.37 135.90 176.91 C 135.84 171.13 138.60 165.69 142.26 161.36 C 147.77 155.39 155.47 151.90 163.38 150.49 M 185.04 166.93 C 171.30 172.56 157.60 178.28 144.05 184.34 C 144.18 186.26 144.53 188.15 145.15 189.98 C 147.22 189.50 149.29 188.99 151.29 188.27 C 168.22 181.91 184.86 174.78 201.01 166.64 C 199.69 164.69 197.57 163.04 195.09 163.32 C 191.54 163.88 188.32 165.58 185.04 166.93 M 199.40 174.35 C 183.26 182.01 165.96 187.03 150.15 195.43 C 153.00 199.09 156.76 201.96 160.76 204.27 C 163.74 205.92 167.30 205.76 170.34 204.36 C 181.87 199.56 193.78 195.66 205.00 190.14 C 207.62 188.85 210.57 187.92 212.59 185.70 C 213.07 180.56 210.01 175.82 206.96 171.94 C 204.26 171.90 201.81 173.31 199.40 174.35 Z" />
<path fill="#d6d6d6" opacity="1.00" d=" M 52.40 158.81 C 53.29 159.64 54.02 160.61 53.90 161.91 C 54.54 170.94 54.18 180.00 54.04 189.05 C 53.95 191.45 54.11 194.14 52.32 196.03 C 51.62 183.65 51.35 171.18 52.40 158.81 Z" />
<path fill="#fdde00" opacity="1.00" d=" M 185.04 166.93 C 188.32 165.58 191.54 163.88 195.09 163.32 C 197.57 163.04 199.69 164.69 201.01 166.64 C 184.86 174.78 168.22 181.91 151.29 188.27 C 149.29 188.99 147.22 189.50 145.15 189.98 C 144.53 188.15 144.18 186.26 144.05 184.34 C 157.60 178.28 171.30 172.56 185.04 166.93 Z" />
<path fill="#010173" opacity="1.00" d=" M 622.27 169.97 C 626.04 168.06 629.63 165.82 633.20 163.55 C 643.57 176.40 653.00 190.21 659.37 205.51 C 664.27 217.46 669.31 229.44 672.09 242.10 C 673.74 242.25 675.39 242.40 677.05 242.55 C 677.22 228.62 673.82 213.95 679.51 200.66 C 682.09 195.51 685.26 189.69 691.07 187.74 C 692.88 186.79 694.62 188.04 696.25 188.79 C 706.74 194.18 714.25 204.27 717.86 215.36 C 723.22 214.06 728.57 212.70 733.99 211.68 C 735.96 217.56 736.40 223.81 736.24 229.97 C 735.56 278.22 729.52 326.18 723.03 373.93 C 720.65 394.51 706.96 414.10 687.13 421.15 C 676.12 425.15 664.27 423.11 652.88 422.91 C 639.48 442.49 622.56 459.58 603.37 473.51 C 604.00 476.31 604.64 479.11 605.31 481.91 C 620.06 471.95 633.66 460.40 648.42 450.46 C 664.39 439.46 680.88 428.92 698.96 421.72 C 708.77 418.00 719.55 414.31 730.12 416.78 C 740.73 420.30 749.63 428.07 755.76 437.30 C 764.32 450.12 766.86 466.65 762.67 481.47 C 757.88 498.39 749.51 514.11 739.51 528.49 C 722.74 552.31 701.69 572.76 679.69 591.70 C 651.97 615.26 621.79 635.67 591.53 655.76 C 588.57 657.67 585.37 659.64 583.77 662.91 C 577.34 675.53 569.95 687.62 562.80 699.83 C 554.79 713.48 547.70 727.64 540.93 741.93 C 533.38 757.68 526.71 773.87 517.99 789.03 C 511.42 800.33 505.32 812.06 496.81 822.05 C 491.63 822.36 486.57 820.87 481.40 820.92 C 481.23 819.43 481.05 817.91 480.98 816.44 C 480.85 814.53 480.74 812.63 480.63 810.75 C 475.64 812.42 471.14 815.20 466.40 817.42 C 460.61 820.43 454.58 823.06 449.29 826.94 C 442.01 832.33 432.58 832.85 423.96 834.34 C 412.67 835.75 401.19 835.09 389.98 833.25 C 384.51 832.60 379.27 830.84 374.37 828.38 C 374.06 828.79 373.46 829.61 373.15 830.03 C 373.22 829.22 373.34 827.61 373.41 826.80 C 363.05 820.59 352.16 815.25 341.40 809.78 C 341.26 811.52 341.08 813.26 341.00 815.02 C 334.55 813.87 327.86 814.61 321.59 816.36 C 317.67 812.30 314.96 806.93 311.84 802.16 C 297.16 777.66 287.30 750.74 275.15 724.99 C 270.46 715.04 264.42 705.81 259.47 695.99 C 254.17 685.36 247.58 675.43 242.32 664.77 C 241.02 662.15 239.48 659.50 236.96 657.87 C 206.87 637.67 176.49 617.71 148.74 594.31 C 124.86 574.23 102.14 552.33 84.30 526.59 C 74.51 512.32 66.44 496.68 61.88 479.94 C 56.46 459.42 64.55 436.24 81.56 423.55 C 87.00 419.63 93.14 415.92 100.03 415.69 C 108.06 415.27 115.91 417.65 123.37 420.39 C 145.85 429.02 166.01 442.53 185.48 456.49 C 196.90 464.77 207.90 473.65 219.57 481.59 C 220.26 478.74 220.88 475.87 221.44 472.99 C 202.25 459.26 185.39 442.22 172.18 422.66 C 160.47 422.67 148.24 424.93 137.01 420.54 C 118.03 413.42 104.80 394.76 102.04 374.98 C 95.47 326.89 89.39 278.59 88.61 229.99 C 88.49 223.75 88.95 217.45 90.74 211.45 C 96.27 212.22 101.64 213.77 107.06 215.04 C 110.55 204.42 117.40 194.52 127.43 189.19 C 127.39 191.65 127.51 194.11 127.81 196.56 C 121.37 204.84 117.42 214.80 114.89 224.91 C 112.45 224.26 110.01 223.58 107.63 222.73 C 104.97 221.72 102.37 220.60 99.73 219.56 C 100.09 239.05 100.81 258.53 101.83 278.00 C 102.41 286.33 102.67 294.74 104.43 302.93 C 107.95 297.57 108.81 291.11 110.45 285.04 C 112.81 275.96 115.32 266.81 119.46 258.35 C 121.42 255.28 123.68 252.39 126.23 249.80 C 129.05 248.31 132.04 247.20 135.00 246.05 C 136.16 245.61 137.32 245.17 138.49 244.74 C 139.09 235.16 139.39 225.57 139.46 215.98 C 141.74 218.36 144.37 220.38 147.11 222.21 C 147.49 222.48 148.26 223.02 148.64 223.28 C 148.01 229.61 147.83 235.96 147.82 242.31 C 149.48 242.16 151.15 242.00 152.81 241.85 C 154.02 237.05 155.33 232.27 156.80 227.54 C 160.37 229.29 164.17 230.56 168.04 231.44 C 161.52 250.69 157.22 270.74 155.90 291.04 C 154.94 306.93 153.88 322.94 155.99 338.79 C 156.37 353.29 159.88 367.52 165.03 381.03 C 176.23 411.10 196.10 437.86 221.62 457.30 C 249.46 478.41 282.53 491.75 316.44 499.41 C 341.57 505.11 367.30 507.70 393.00 508.79 C 438.14 510.11 483.90 507.23 527.46 494.65 C 559.78 485.16 591.09 470.09 615.88 446.94 C 639.85 424.89 657.15 395.75 665.32 364.24 C 667.43 355.77 668.81 347.10 669.08 338.37 C 670.97 323.95 669.99 309.38 669.17 294.92 C 666.81 249.84 651.20 204.93 622.27 169.97 M 688.11 200.90 C 684.58 210.17 685.44 220.24 685.73 229.94 C 686.06 235.10 685.69 240.29 686.45 245.41 C 687.65 245.60 688.85 245.79 690.07 245.98 C 692.18 248.13 695.77 248.53 698.55 249.80 C 701.00 252.80 703.51 255.77 705.79 258.93 C 710.56 270.23 713.76 282.09 716.59 294.00 C 717.46 297.12 718.10 300.70 720.74 302.88 C 722.86 289.02 723.14 274.97 723.89 260.99 C 724.32 247.27 725.13 233.56 724.99 219.83 C 722.29 220.89 719.64 222.06 717.00 223.24 L 716.80 224.12 L 716.79 223.21 C 714.52 223.96 712.25 224.71 709.91 225.17 C 708.62 219.01 706.27 213.13 703.62 207.44 C 701.07 202.48 698.42 197.29 693.93 193.78 L 694.12 192.36 C 691.13 194.37 689.24 197.54 688.11 200.90 M 129.19 262.29 C 124.46 268.56 122.61 276.42 120.81 283.92 C 118.30 295.81 115.13 307.55 112.61 319.44 C 110.93 329.12 111.26 339.08 112.19 348.83 C 111.70 358.23 112.03 367.75 113.97 376.98 C 116.69 389.21 124.46 400.53 135.59 406.53 C 144.49 411.53 155.07 411.10 164.91 410.49 C 162.67 404.66 159.95 399.03 157.73 393.19 C 154.91 385.99 153.02 378.47 150.34 371.22 C 147.00 357.73 144.46 343.97 144.50 330.03 C 144.27 313.00 144.87 295.85 148.24 279.11 C 149.92 270.88 148.67 262.40 150.08 254.14 C 142.80 255.69 134.69 256.76 129.19 262.29 M 674.72 254.50 C 676.37 262.55 674.89 270.86 676.54 278.91 C 680.64 298.99 680.73 319.61 680.02 340.01 C 679.35 350.52 677.03 360.84 674.67 371.09 C 670.42 384.59 665.78 397.99 659.90 410.89 C 665.32 410.98 670.75 411.22 676.16 410.84 C 687.89 409.81 698.31 402.30 704.56 392.55 C 712.72 380.03 713.11 364.43 712.87 349.98 C 713.22 342.35 713.72 334.70 713.21 327.06 C 712.48 317.75 709.61 308.81 707.56 299.74 C 704.92 289.13 703.46 278.12 698.97 268.06 C 697.49 264.80 695.50 261.47 692.20 259.79 C 686.76 256.96 680.74 255.44 674.72 254.50 M 81.14 443.95 C 76.20 451.30 73.10 460.77 75.19 469.54 C 73.86 480.15 79.76 489.93 84.09 499.23 C 87.40 498.09 90.67 496.82 93.97 495.65 C 105.12 490.74 115.29 483.16 122.19 473.02 C 128.59 463.58 132.51 452.72 135.65 441.83 C 124.89 436.23 113.58 429.88 101.03 430.57 C 92.36 430.59 85.93 437.50 81.14 443.95 M 689.16 442.28 C 691.96 451.24 694.96 460.24 699.62 468.43 C 706.35 480.69 717.59 490.07 730.28 495.72 L 730.12 495.90 C 733.76 497.05 737.37 498.30 741.00 499.52 C 745.62 489.70 750.63 479.54 750.40 468.41 C 750.91 458.70 747.88 448.94 741.63 441.47 C 737.16 436.21 731.31 430.95 723.97 431.02 C 711.36 430.17 699.89 436.49 689.16 442.28 M 142.30 445.73 C 138.04 457.17 134.24 469.06 126.92 478.99 C 119.71 488.75 109.33 495.58 98.60 500.92 C 94.91 502.55 91.30 504.36 87.67 506.12 C 94.35 518.34 102.80 529.52 111.89 540.04 C 133.97 565.09 159.65 586.72 186.46 606.52 C 200.07 616.33 213.52 626.53 228.43 634.30 C 220.42 610.36 212.55 586.17 208.93 561.11 C 206.30 540.38 207.13 519.10 212.81 498.93 C 206.79 493.25 200.43 487.95 193.96 482.80 C 177.33 469.66 160.50 456.65 142.30 445.73 M 649.59 468.66 C 636.79 478.49 623.87 488.23 612.06 499.25 C 617.88 519.69 618.43 541.28 615.90 562.28 L 615.72 562.21 C 613.63 576.77 610.33 591.15 605.79 605.14 C 602.88 615.04 599.94 624.94 596.40 634.64 C 606.31 629.45 615.68 623.31 624.72 616.74 C 653.38 596.56 680.89 574.50 705.12 549.10 C 717.27 536.06 728.68 522.08 737.17 506.34 C 733.38 504.67 729.74 502.70 725.93 501.10 C 714.87 495.51 704.10 488.36 697.00 477.98 C 690.23 468.32 686.66 456.97 682.55 446.04 C 671.18 453.00 660.20 460.59 649.59 468.66 M 234.27 479.67 C 232.72 482.36 231.19 485.06 229.78 487.83 C 226.61 496.97 222.14 506.02 222.04 515.89 C 219.63 523.32 219.19 531.22 219.03 538.98 C 219.99 579.81 233.93 619.04 251.59 655.43 C 257.70 668.27 265.63 680.10 272.49 692.54 C 277.51 701.62 283.54 710.08 289.50 718.57 C 294.33 725.28 299.58 731.86 306.30 736.78 C 309.33 738.95 312.04 741.95 315.92 742.50 C 317.80 745.72 321.13 747.65 324.04 749.82 C 335.02 757.76 346.06 765.70 357.97 772.20 C 370.92 779.25 385.10 784.67 399.94 785.60 C 417.73 787.05 435.41 782.47 451.73 775.69 C 469.68 768.33 486.31 758.20 502.53 747.67 C 504.70 746.22 506.93 744.74 508.54 742.65 C 511.01 742.06 513.21 740.77 515.19 739.21 C 526.26 730.57 535.31 719.57 542.63 707.64 C 549.43 696.47 556.62 685.55 563.25 674.29 C 571.20 661.02 577.69 646.95 583.72 632.72 C 592.63 611.46 599.78 589.33 603.36 566.50 C 605.69 550.10 607.51 533.02 603.11 516.80 C 602.56 506.79 598.51 497.51 595.12 488.22 C 593.68 485.45 592.15 482.72 590.65 479.99 C 585.13 483.06 579.64 486.17 573.96 488.93 C 537.28 507.21 496.45 515.44 455.86 518.79 C 423.96 521.22 391.85 520.85 359.99 517.99 C 316.15 513.67 272.44 502.14 234.27 479.67 M 515.77 752.27 C 496.79 764.49 477.76 776.91 457.02 785.99 C 440.70 793.15 423.04 798.13 405.07 797.49 C 383.46 796.99 363.19 787.93 344.81 777.22 C 332.17 770.03 320.91 760.71 308.51 753.19 C 317.80 769.10 328.95 784.03 342.20 796.87 C 354.90 809.06 369.98 819.23 387.01 824.17 C 403.98 829.21 422.52 828.10 439.04 821.89 C 455.90 815.62 470.81 805.03 483.95 792.90 C 496.44 781.46 507.25 768.18 515.79 753.54 C 515.79 753.23 515.78 752.59 515.77 752.27 Z" />
<path fill="#ffffff" opacity="1.00" d=" M 601.15 178.49 C 608.35 176.07 615.49 173.43 622.27 169.97 C 651.20 204.93 666.81 249.84 669.17 294.92 C 669.99 309.38 670.97 323.95 669.08 338.37 C 663.56 342.33 659.25 347.65 654.33 352.29 C 629.00 376.57 599.83 396.86 568.25 412.17 C 499.80 445.31 420.79 454.94 346.06 441.85 C 305.10 434.68 265.14 420.86 229.20 399.81 C 207.00 386.81 186.42 370.93 168.76 352.19 C 164.50 347.73 160.61 342.90 155.99 338.79 C 153.88 322.94 154.94 306.93 155.90 291.04 C 157.22 270.74 161.52 250.69 168.04 231.44 C 176.12 233.09 184.45 233.89 192.67 232.83 C 187.00 247.90 183.75 263.84 182.67 279.88 C 182.12 289.93 181.97 300.12 183.97 310.04 C 188.57 334.56 202.37 357.65 222.97 371.99 C 231.19 378.01 239.81 383.47 248.78 388.29 C 271.90 401.02 297.68 407.84 323.47 412.66 C 345.82 416.73 368.32 420.34 391.03 421.64 C 415.51 423.23 440.11 422.47 464.48 419.77 C 481.32 417.95 497.95 414.69 514.56 411.40 C 534.85 407.25 555.00 401.69 573.72 392.69 C 585.99 386.79 597.46 379.38 608.56 371.54 C 625.46 359.19 637.90 341.07 643.98 321.08 C 649.07 304.92 648.81 287.66 647.01 270.99 C 642.91 236.19 627.43 202.10 601.15 178.49 Z" />
<path fill="#01c08e" opacity="1.00" d=" M 310.57 171.72 C 329.25 168.95 349.22 171.50 365.56 181.39 C 373.66 186.43 380.96 194.13 382.56 203.86 C 384.11 212.95 379.48 221.90 372.95 227.95 C 364.80 235.49 354.19 239.86 343.48 242.31 C 324.47 246.14 303.88 244.51 286.56 235.41 C 277.67 230.65 269.38 223.23 266.81 213.13 C 264.38 204.01 268.45 194.35 275.03 188.00 C 284.55 178.68 297.60 173.80 310.57 171.72 Z" />
<path fill="#fede00" opacity="1.00" d=" M 199.40 174.35 C 201.81 173.31 204.26 171.90 206.96 171.94 C 210.01 175.82 213.07 180.56 212.59 185.70 C 210.57 187.92 207.62 188.85 205.00 190.14 C 193.78 195.66 181.87 199.56 170.34 204.36 C 167.30 205.76 163.74 205.92 160.76 204.27 C 156.76 201.96 153.00 199.09 150.15 195.43 C 165.96 187.03 183.26 182.01 199.40 174.35 Z" />
<path fill="#01c08e" opacity="1.00" d=" M 499.56 173.78 C 517.06 171.62 535.51 174.22 550.94 183.08 C 559.18 187.93 566.69 195.34 568.83 204.96 C 570.92 213.90 566.77 223.16 560.45 229.40 C 551.48 238.22 539.26 242.98 527.06 245.27 C 508.93 248.26 489.52 246.53 473.12 237.82 C 464.35 233.12 456.21 225.86 453.46 215.98 C 450.81 206.77 454.84 196.90 461.48 190.42 C 471.64 180.47 485.70 175.60 499.56 173.78 Z" />
<path fill="#d4d4d4" opacity="1.00" d=" M 59.27 177.75 C 62.26 182.65 61.64 189.13 59.35 194.19 C 58.24 188.77 58.55 183.19 59.27 177.75 Z" />
<path fill="#f7b821" opacity="1.00" d=" M 127.43 189.19 C 127.62 186.23 128.21 183.28 129.33 180.53 C 133.42 186.95 135.72 194.47 140.85 200.22 C 149.42 210.19 161.98 215.78 174.64 218.43 C 185.78 220.99 197.87 220.22 208.22 215.15 C 213.97 212.34 218.02 207.17 223.41 203.82 C 222.32 208.08 221.46 212.46 219.38 216.38 C 216.97 221.23 212.50 224.54 208.27 227.72 C 203.44 230.35 198.11 232.07 192.67 232.83 C 184.45 233.89 176.12 233.09 168.04 231.44 C 164.17 230.56 160.37 229.29 156.80 227.54 C 153.53 225.84 150.30 224.06 147.11 222.21 C 144.37 220.38 141.74 218.36 139.46 215.98 C 137.18 213.44 134.96 210.84 133.02 208.04 C 131.02 204.34 129.15 200.55 127.81 196.56 C 127.51 194.11 127.39 191.65 127.43 189.19 Z" />
<path fill="#01c08e" opacity="1.00" d=" M 688.11 200.90 C 689.24 197.54 691.13 194.37 694.12 192.36 L 693.93 193.78 C 693.12 199.16 691.72 204.44 691.23 209.87 C 689.78 221.86 691.23 233.97 690.07 245.98 C 688.85 245.79 687.65 245.60 686.45 245.41 C 685.69 240.29 686.06 235.10 685.73 229.94 C 685.44 220.24 684.58 210.17 688.11 200.90 Z" />
<path fill="#00795b" opacity="1.00" d=" M 693.93 193.78 C 698.42 197.29 701.07 202.48 703.62 207.44 C 706.27 213.13 708.62 219.01 709.91 225.17 C 705.08 232.86 702.36 241.60 698.55 249.80 C 695.77 248.53 692.18 248.13 690.07 245.98 C 691.23 233.97 689.78 221.86 691.23 209.87 C 691.72 204.44 693.12 199.16 693.93 193.78 Z" />
<path fill="#00795b" opacity="1.00" d=" M 114.89 224.91 C 117.42 214.80 121.37 204.84 127.81 196.56 C 129.15 200.55 131.02 204.34 133.02 208.04 C 135.34 220.57 133.02 233.45 135.00 246.05 C 132.04 247.20 129.05 248.31 126.23 249.80 C 122.56 241.46 120.02 232.52 114.89 224.91 Z" />
<path fill="#01c08e" opacity="1.00" d=" M 133.02 208.04 C 134.96 210.84 137.18 213.44 139.46 215.98 C 139.39 225.57 139.09 235.16 138.49 244.74 C 137.32 245.17 136.16 245.61 135.00 246.05 C 133.02 233.45 135.34 220.57 133.02 208.04 Z" />
<path fill="#fedf00" opacity="1.00" d=" M 44.84 219.81 C 47.80 217.49 51.73 215.00 55.44 215.38 C 59.59 224.37 63.41 233.97 62.60 244.08 C 62.74 250.75 59.37 256.64 56.49 262.40 C 52.52 264.17 47.58 260.49 45.91 256.70 C 49.06 258.05 53.14 261.11 56.35 258.31 C 61.03 253.14 61.61 245.65 61.38 238.99 C 60.80 232.79 59.45 226.33 55.88 221.12 C 53.29 217.48 48.46 219.67 44.84 219.81 Z" />
<path fill="#f7b822" opacity="1.00" d=" M 55.44 215.38 C 58.41 215.55 62.08 215.29 64.18 217.85 C 69.47 224.26 70.71 232.94 70.70 241.01 C 70.61 247.48 69.90 254.50 65.71 259.73 C 63.53 262.47 59.67 262.43 56.49 262.40 C 59.37 256.64 62.74 250.75 62.60 244.08 C 63.41 233.97 59.59 224.37 55.44 215.38 Z" />
<path fill="#c9c9c9" opacity="1.00" d=" M 777.28 221.91 C 777.32 220.41 777.92 219.05 778.62 217.76 C 779.97 224.76 779.39 231.90 779.44 238.98 C 779.09 251.04 780.07 263.16 778.74 275.17 C 777.23 273.83 776.65 271.97 776.89 269.98 C 777.39 253.96 775.71 237.90 777.28 221.91 Z" />
<path fill="#fdc00f" opacity="1.00" d=" M 44.84 219.81 C 48.46 219.67 53.29 217.48 55.88 221.12 C 59.45 226.33 60.80 232.79 61.38 238.99 C 61.61 245.65 61.03 253.14 56.35 258.31 C 53.14 261.11 49.06 258.05 45.91 256.70 L 45.54 256.52 C 40.03 245.08 40.20 231.50 44.84 219.81 M 47.80 230.32 C 50.86 236.82 54.04 243.46 58.70 248.98 C 59.06 245.42 59.55 241.56 57.70 238.30 C 55.11 233.24 52.85 227.96 49.58 223.29 C 47.16 224.35 46.61 228.07 47.80 230.32 Z" />
<path fill="#01c08e" opacity="1.00" d=" M 99.73 219.56 C 102.37 220.60 104.97 221.72 107.63 222.73 C 111.52 234.62 116.20 246.26 119.46 258.35 C 115.32 266.81 112.81 275.96 110.45 285.04 C 108.81 291.11 107.95 297.57 104.43 302.93 C 102.67 294.74 102.41 286.33 101.83 278.00 C 100.81 258.53 100.09 239.05 99.73 219.56 Z" />
<path fill="#01c08e" opacity="1.00" d=" M 717.00 223.24 C 719.64 222.06 722.29 220.89 724.99 219.83 C 725.13 233.56 724.32 247.27 723.89 260.99 C 723.14 274.97 722.86 289.02 720.74 302.88 C 718.10 300.70 717.46 297.12 716.59 294.00 C 713.76 282.09 710.56 270.23 705.79 258.93 C 705.84 256.40 706.56 253.95 707.49 251.62 C 709.89 245.45 711.59 239.05 713.95 232.86 C 715.03 229.99 716.21 227.14 716.80 224.12 L 717.00 223.24 Z" />
<path fill="#fede01" opacity="1.00" d=" M 47.80 230.32 C 46.61 228.07 47.16 224.35 49.58 223.29 C 52.85 227.96 55.11 233.24 57.70 238.30 C 59.55 241.56 59.06 245.42 58.70 248.98 C 54.04 243.46 50.86 236.82 47.80 230.32 Z" />
<path fill="#0f9e85" opacity="1.00" d=" M 107.63 222.73 C 110.01 223.58 112.45 224.26 114.89 224.91 C 120.02 232.52 122.56 241.46 126.23 249.80 C 123.68 252.39 121.42 255.28 119.46 258.35 C 116.20 246.26 111.52 234.62 107.63 222.73 Z" />
<path fill="#0f9e85" opacity="1.00" d=" M 709.91 225.17 C 712.25 224.71 714.52 223.96 716.79 223.21 L 716.80 224.12 C 716.21 227.14 715.03 229.99 713.95 232.86 C 711.59 239.05 709.89 245.45 707.49 251.62 C 706.56 253.95 705.84 256.40 705.79 258.93 C 703.51 255.77 701.00 252.80 698.55 249.80 C 702.36 241.60 705.08 232.86 709.91 225.17 Z" />
<path fill="#c8c8c8" opacity="1.00" d=" M 787.34 246.73 C 788.00 247.74 788.63 248.82 788.70 250.07 C 789.61 257.41 790.02 265.10 787.50 272.19 C 786.43 269.26 786.58 266.10 786.49 263.04 C 786.48 257.60 786.29 252.10 787.34 246.73 Z" />
<path fill="#ffffff" opacity="1.00" d=" M 129.19 262.29 C 134.69 256.76 142.80 255.69 150.08 254.14 C 148.67 262.40 149.92 270.88 148.24 279.11 C 144.87 295.85 144.27 313.00 144.50 330.03 C 144.46 343.97 147.00 357.73 150.34 371.22 C 141.67 369.89 132.66 367.91 125.55 362.46 C 120.55 358.52 115.57 354.31 112.19 348.83 C 111.26 339.08 110.93 329.12 112.61 319.44 C 115.13 307.55 118.30 295.81 120.81 283.92 C 122.61 276.42 124.46 268.56 129.19 262.29 Z" />
<path fill="#ffffff" opacity="1.00" d=" M 674.72 254.50 C 680.74 255.44 686.76 256.96 692.20 259.79 C 695.50 261.47 697.49 264.80 698.97 268.06 C 703.46 278.12 704.92 289.13 707.56 299.74 C 709.61 308.81 712.48 317.75 713.21 327.06 C 713.72 334.70 713.22 342.35 712.87 349.98 C 707.46 355.55 702.24 361.56 695.34 365.35 C 689.06 368.98 681.86 370.67 674.67 371.09 C 677.03 360.84 679.35 350.52 680.02 340.01 C 680.73 319.61 680.64 298.99 676.54 278.91 C 674.89 270.86 676.37 262.55 674.72 254.50 Z" />
<path fill="#01c08e" opacity="1.00" d=" M 341.17 264.09 C 342.24 262.51 344.32 262.65 346.01 262.54 C 392.35 262.60 438.69 262.58 485.03 262.56 C 490.40 262.61 495.83 262.19 501.13 263.32 C 499.08 267.36 495.42 270.17 492.22 273.25 C 478.38 285.87 461.41 295.15 443.07 299.21 C 416.46 305.07 387.40 301.18 364.00 286.91 C 354.88 281.15 346.17 273.81 341.17 264.09 Z" />
<path fill="#fede00" opacity="1.00" d=" M 759.72 307.27 C 762.73 305.25 765.49 302.62 769.07 301.61 C 775.01 300.93 780.87 303.41 785.69 306.72 C 780.37 306.45 774.88 305.17 769.64 306.56 C 763.77 308.92 762.90 316.25 764.34 321.66 C 767.69 335.31 776.08 347.27 786.15 356.87 C 792.07 362.84 799.46 368.03 808.01 369.05 C 812.63 369.53 817.97 366.83 818.69 361.88 C 819.47 354.88 816.58 348.17 816.19 341.24 C 820.20 346.97 821.75 354.13 822.21 361.02 C 822.58 366.67 818.49 371.15 814.84 374.93 C 806.74 371.62 797.86 369.62 790.97 363.93 C 779.59 354.44 769.61 342.69 764.35 328.68 C 761.76 322.07 761.12 314.96 759.85 308.04 L 759.72 307.27 Z" />
<path fill="#fdbf0f" opacity="1.00" d=" M 769.64 306.56 C 774.88 305.17 780.37 306.45 785.69 306.72 C 799.25 314.48 809.85 327.02 816.19 341.24 C 816.58 348.17 819.47 354.88 818.69 361.88 C 817.97 366.83 812.63 369.53 808.01 369.05 C 799.46 368.03 792.07 362.84 786.15 356.87 C 776.08 347.27 767.69 335.31 764.34 321.66 C 762.90 316.25 763.77 308.92 769.64 306.56 M 771.05 311.21 C 773.26 322.38 777.77 332.93 781.38 343.69 C 784.20 351.37 790.07 357.89 797.69 361.02 C 794.30 346.56 789.30 332.53 785.81 318.09 C 785.15 315.77 784.64 312.85 782.07 311.92 C 778.56 310.56 774.70 311.05 771.05 311.21 M 789.33 316.89 C 790.40 324.93 793.60 332.46 795.55 340.30 C 798.08 348.42 798.55 357.81 804.80 364.22 C 805.65 352.87 799.75 342.51 797.39 331.66 C 795.82 326.37 795.16 319.27 789.33 316.89 Z" />
<path fill="#f7b821" opacity="1.00" d=" M 749.98 325.98 C 748.71 318.49 754.31 312.21 759.85 308.04 C 761.12 314.96 761.76 322.07 764.35 328.68 C 769.61 342.69 779.59 354.44 790.97 363.93 C 797.86 369.62 806.74 371.62 814.84 374.93 C 811.03 378.77 806.97 383.79 801.02 383.62 C 791.29 383.25 783.16 377.04 776.20 370.81 C 763.45 358.86 752.42 343.69 749.98 325.98 Z" />
<path fill="#fede00" opacity="1.00" d=" M 771.05 311.21 C 774.70 311.05 778.56 310.56 782.07 311.92 C 784.64 312.85 785.15 315.77 785.81 318.09 C 789.30 332.53 794.30 346.56 797.69 361.02 C 790.07 357.89 784.20 351.37 781.38 343.69 C 777.77 332.93 773.26 322.38 771.05 311.21 Z" />
<path fill="#fddc03" opacity="1.00" d=" M 789.33 316.89 C 795.16 319.27 795.82 326.37 797.39 331.66 C 799.75 342.51 805.65 352.87 804.80 364.22 C 798.55 357.81 798.08 348.42 795.55 340.30 C 793.60 332.46 790.40 324.93 789.33 316.89 Z" />
<path fill="#a8a6ce" opacity="1.00" d=" M 155.99 338.79 C 160.61 342.90 164.50 347.73 168.76 352.19 C 186.42 370.93 207.00 386.81 229.20 399.81 C 265.14 420.86 305.10 434.68 346.06 441.85 C 420.79 454.94 499.80 445.31 568.25 412.17 C 599.83 396.86 629.00 376.57 654.33 352.29 C 659.25 347.65 663.56 342.33 669.08 338.37 C 668.81 347.10 667.43 355.77 665.32 364.24 C 657.15 395.75 639.85 424.89 615.88 446.94 C 591.09 470.09 559.78 485.16 527.46 494.65 C 483.90 507.23 438.14 510.11 393.00 508.79 C 367.30 507.70 341.57 505.11 316.44 499.41 C 282.53 491.75 249.46 478.41 221.62 457.30 C 196.10 437.86 176.23 411.10 165.03 381.03 C 159.88 367.52 156.37 353.29 155.99 338.79 Z" />
<path fill="#fdbf10" opacity="1.00" d=" M 8.48 359.86 C 26.20 350.12 46.05 344.60 66.14 342.83 C 67.72 342.80 69.41 342.35 70.93 342.98 C 73.88 345.50 76.05 348.87 75.24 352.91 C 66.85 357.97 57.68 361.43 48.35 364.31 C 47.63 363.29 46.90 362.30 46.30 361.22 C 52.50 356.00 61.36 354.49 66.57 348.02 C 55.72 346.18 44.77 349.89 35.60 355.53 C 28.11 360.20 20.67 365.29 12.11 367.78 C 10.93 365.32 9.81 362.83 8.69 360.34 L 8.48 359.86 Z" />
<path fill="#fbdb07" opacity="1.00" d=" M 70.93 342.98 C 75.36 342.77 80.33 344.45 82.59 348.51 C 80.20 350.07 77.76 351.56 75.24 352.91 C 76.05 348.87 73.88 345.50 70.93 342.98 Z" />
<path fill="#fdd804" opacity="1.00" d=" M 35.60 355.53 C 44.77 349.89 55.72 346.18 66.57 348.02 C 61.36 354.49 52.50 356.00 46.30 361.22 C 46.90 362.30 47.63 363.29 48.35 364.31 C 34.67 368.86 20.10 368.69 5.90 369.86 C 5.35 369.91 4.24 370.02 3.68 370.08 C 4.84 366.60 6.29 363.16 8.69 360.34 C 9.81 362.83 10.93 365.32 12.11 367.78 C 20.67 365.29 28.11 360.20 35.60 355.53 Z" />
<path fill="#f7b821" opacity="1.00" d=" M 75.24 352.91 C 77.76 351.56 80.20 350.07 82.59 348.51 C 83.20 353.47 84.48 358.31 85.53 363.19 C 74.60 373.08 60.04 377.34 46.06 380.88 C 34.17 383.86 21.58 386.14 9.43 383.36 C 7.36 379.34 7.03 374.32 5.90 369.86 C 20.10 368.69 34.67 368.86 48.35 364.31 C 57.68 361.43 66.85 357.97 75.24 352.91 Z" />
<path fill="#a8a6ce" opacity="1.00" d=" M 112.19 348.83 C 115.57 354.31 120.55 358.52 125.55 362.46 C 132.66 367.91 141.67 369.89 150.34 371.22 C 153.02 378.47 154.91 385.99 157.73 393.19 C 159.95 399.03 162.67 404.66 164.91 410.49 C 155.07 411.10 144.49 411.53 135.59 406.53 C 124.46 400.53 116.69 389.21 113.97 376.98 C 112.03 367.75 111.70 358.23 112.19 348.83 Z" />
<path fill="#a8a6ce" opacity="1.00" d=" M 695.34 365.35 C 702.24 361.56 707.46 355.55 712.87 349.98 C 713.11 364.43 712.72 380.03 704.56 392.55 C 698.31 402.30 687.89 409.81 676.16 410.84 C 670.75 411.22 665.32 410.98 659.90 410.89 C 665.78 397.99 670.42 384.59 674.67 371.09 C 681.86 370.67 689.06 368.98 695.34 365.35 Z" />
<path fill="#ffffff" opacity="1.00" d=" M 81.14 443.95 C 85.93 437.50 92.36 430.59 101.03 430.57 C 113.58 429.88 124.89 436.23 135.65 441.83 C 132.51 452.72 128.59 463.58 122.19 473.02 C 115.29 483.16 105.12 490.74 93.97 495.65 C 87.67 486.98 81.60 478.13 75.19 469.54 C 73.10 460.77 76.20 451.30 81.14 443.95 Z" />
<path fill="#ffffff" opacity="1.00" d=" M 689.16 442.28 C 699.89 436.49 711.36 430.17 723.97 431.02 C 731.31 430.95 737.16 436.21 741.63 441.47 C 747.88 448.94 750.91 458.70 750.40 468.41 C 743.77 477.56 738.02 487.42 730.28 495.72 C 717.59 490.07 706.35 480.69 699.62 468.43 C 694.96 460.24 691.96 451.24 689.16 442.28 Z" />
<path fill="#ffffff" opacity="1.00" d=" M 142.30 445.73 C 160.50 456.65 177.33 469.66 193.96 482.80 C 200.43 487.95 206.79 493.25 212.81 498.93 C 207.13 519.10 206.30 540.38 208.93 561.11 C 198.63 567.93 185.07 568.92 173.38 565.52 C 165.05 563.22 158.53 557.33 151.91 552.11 C 132.65 536.70 114.58 519.73 98.60 500.92 C 109.33 495.58 119.71 488.75 126.92 478.99 C 134.24 469.06 138.04 457.17 142.30 445.73 Z" />
<path fill="#ffffff" opacity="1.00" d=" M 649.59 468.66 C 660.20 460.59 671.18 453.00 682.55 446.04 C 686.66 456.97 690.23 468.32 697.00 477.98 C 704.10 488.36 714.87 495.51 725.93 501.10 C 719.70 509.67 711.96 517.04 704.54 524.58 C 691.33 537.42 677.34 549.49 662.54 560.47 C 649.01 570.27 630.42 569.38 615.90 562.28 C 618.43 541.28 617.88 519.69 612.06 499.25 C 623.87 488.23 636.79 478.49 649.59 468.66 Z" />
<path fill="#fede00" opacity="1.00" d=" M 825.16 464.52 C 829.63 461.99 834.72 459.85 839.97 460.50 C 843.56 461.40 846.33 464.10 849.42 466.03 L 849.30 466.80 C 848.16 473.12 847.76 479.61 845.57 485.70 C 840.72 499.65 831.27 511.58 820.24 521.21 C 812.81 527.70 803.30 530.96 793.93 533.47 C 790.57 529.72 786.62 525.46 787.03 520.05 C 787.47 513.10 788.96 505.82 793.13 500.10 C 792.82 507.16 789.21 513.99 790.69 521.10 C 791.63 526.55 798.05 528.88 802.94 527.76 C 811.22 526.11 817.99 520.60 824.16 515.14 C 833.09 506.14 840.32 495.22 844.22 483.10 C 845.74 477.61 846.61 470.41 841.62 466.38 C 836.75 462.77 830.26 466.86 825.16 464.52 Z" />
<path fill="#fdbf0f" opacity="1.00" d=" M 793.13 500.10 C 799.55 485.18 811.04 472.53 825.16 464.52 C 830.26 466.86 836.75 462.77 841.62 466.38 C 846.61 470.41 845.74 477.61 844.22 483.10 C 840.32 495.22 833.09 506.14 824.16 515.14 C 817.99 520.60 811.22 526.11 802.94 527.76 C 798.05 528.88 791.63 526.55 790.69 521.10 C 789.21 513.99 792.82 507.16 793.13 500.10 M 824.77 472.77 C 822.81 478.37 821.95 484.32 819.90 489.92 C 817.20 499.85 813.30 509.54 812.12 519.82 C 818.36 516.47 824.26 511.67 826.89 504.89 C 830.41 495.83 833.33 486.55 836.44 477.35 C 837.27 475.08 837.80 472.73 837.93 470.32 C 833.60 470.14 827.74 468.70 824.77 472.77 M 811.56 491.60 C 809.11 502.08 803.85 512.10 804.17 523.09 C 809.61 517.97 810.74 510.28 812.46 503.38 C 814.65 493.87 819.07 484.89 819.74 475.05 C 814.46 478.82 812.96 485.65 811.56 491.60 Z" />
<path fill="#f7b821" opacity="1.00" d=" M 849.30 466.80 C 854.52 470.92 860.02 476.69 859.31 483.89 C 857.52 500.39 847.83 514.84 836.42 526.40 C 828.86 533.90 819.99 541.51 808.93 542.52 C 802.44 543.11 798.10 537.51 793.93 533.47 C 803.30 530.96 812.81 527.70 820.24 521.21 C 831.27 511.58 840.72 499.65 845.57 485.70 C 847.76 479.61 848.16 473.12 849.30 466.80 Z" />
<path fill="#a8a6ce" opacity="1.00" d=" M 730.28 495.72 C 738.02 487.42 743.77 477.56 750.40 468.41 C 750.63 479.54 745.62 489.70 741.00 499.52 C 737.37 498.30 733.76 497.05 730.12 495.90 L 730.28 495.72 Z" />
<path fill="#a8a6ce" opacity="1.00" d=" M 75.19 469.54 C 81.60 478.13 87.67 486.98 93.97 495.65 C 90.67 496.82 87.40 498.09 84.09 499.23 C 79.76 489.93 73.86 480.15 75.19 469.54 Z" />
<path fill="#fede00" opacity="1.00" d=" M 824.77 472.77 C 827.74 468.70 833.60 470.14 837.93 470.32 C 837.80 472.73 837.27 475.08 836.44 477.35 C 833.33 486.55 830.41 495.83 826.89 504.89 C 824.26 511.67 818.36 516.47 812.12 519.82 C 813.30 509.54 817.20 499.85 819.90 489.92 C 821.95 484.32 822.81 478.37 824.77 472.77 Z" />
<path fill="#fddc03" opacity="1.00" d=" M 811.56 491.60 C 812.96 485.65 814.46 478.82 819.74 475.05 C 819.07 484.89 814.65 493.87 812.46 503.38 C 810.74 510.28 809.61 517.97 804.17 523.09 C 803.85 512.10 809.11 502.08 811.56 491.60 Z" />
<path fill="#a8a6ce" opacity="1.00" d=" M 234.27 479.67 C 272.44 502.14 316.15 513.67 359.99 517.99 C 391.85 520.85 423.96 521.22 455.86 518.79 C 496.45 515.44 537.28 507.21 573.96 488.93 C 579.64 486.17 585.13 483.06 590.65 479.99 C 592.15 482.72 593.68 485.45 595.12 488.22 C 578.63 496.97 562.37 506.46 544.63 512.54 C 507.46 525.28 468.15 530.87 428.96 532.03 C 387.06 533.10 344.72 530.26 304.06 519.53 C 287.83 515.16 271.80 509.74 256.76 502.17 C 247.65 497.62 238.74 492.68 229.78 487.83 C 231.19 485.06 232.72 482.36 234.27 479.67 Z" />
<path fill="#ffffff" opacity="1.00" d=" M 229.78 487.83 C 238.74 492.68 247.65 497.62 256.76 502.17 C 271.80 509.74 287.83 515.16 304.06 519.53 C 344.72 530.26 387.06 533.10 428.96 532.03 C 468.15 530.87 507.46 525.28 544.63 512.54 C 562.37 506.46 578.63 496.97 595.12 488.22 C 598.51 497.51 602.56 506.79 603.11 516.80 C 601.33 523.05 601.11 529.57 600.17 535.97 C 597.55 556.44 591.87 576.42 584.65 595.73 C 579.82 608.46 574.55 621.05 567.95 632.98 C 559.52 648.28 551.15 663.61 543.26 679.19 C 535.59 694.11 528.03 709.10 519.65 723.65 C 516.02 730.03 511.48 735.89 508.54 742.65 C 506.93 744.74 504.70 746.22 502.53 747.67 C 486.31 758.20 469.68 768.33 451.73 775.69 C 435.41 782.47 417.73 787.05 399.94 785.60 C 385.10 784.67 370.92 779.25 357.97 772.20 C 346.06 765.70 335.02 757.76 324.04 749.82 C 321.13 747.65 317.80 745.72 315.92 742.50 C 313.59 736.93 310.29 731.88 307.30 726.67 C 299.09 711.56 290.65 696.59 282.61 681.39 C 274.39 665.40 266.12 649.42 257.55 633.61 C 250.40 620.80 244.66 607.25 239.51 593.53 C 232.32 573.80 226.69 553.38 224.31 532.48 C 223.66 526.93 222.93 521.40 222.04 515.89 C 222.14 506.02 226.61 496.97 229.78 487.83 M 399.50 542.78 C 357.71 547.02 319.15 576.76 306.09 616.94 C 299.71 636.65 299.46 658.27 305.22 678.16 C 311.01 697.78 322.88 715.40 338.32 728.74 C 366.69 753.63 407.87 761.89 444.02 751.86 C 475.33 743.39 502.43 720.46 515.66 690.81 C 523.68 672.76 525.96 652.42 523.23 632.92 C 520.01 611.16 509.06 590.92 493.66 575.35 C 469.55 550.68 433.63 538.66 399.50 542.78 Z" />
<path fill="#a8a6ce" opacity="1.00" d=" M 87.67 506.12 C 91.30 504.36 94.91 502.55 98.60 500.92 C 114.58 519.73 132.65 536.70 151.91 552.11 C 158.53 557.33 165.05 563.22 173.38 565.52 C 185.07 568.92 198.63 567.93 208.93 561.11 C 212.55 586.17 220.42 610.36 228.43 634.30 C 213.52 626.53 200.07 616.33 186.46 606.52 C 159.65 586.72 133.97 565.09 111.89 540.04 C 102.80 529.52 94.35 518.34 87.67 506.12 Z" />
<path fill="#a8a6ce" opacity="1.00" d=" M 725.93 501.10 C 729.74 502.70 733.38 504.67 737.17 506.34 C 728.68 522.08 717.27 536.06 705.12 549.10 C 680.89 574.50 653.38 596.56 624.72 616.74 C 615.68 623.31 606.31 629.45 596.40 634.64 C 599.94 624.94 602.88 615.04 605.79 605.14 C 610.33 591.15 613.63 576.77 615.72 562.21 L 615.90 562.28 C 630.42 569.38 649.01 570.27 662.54 560.47 C 677.34 549.49 691.33 537.42 704.54 524.58 C 711.96 517.04 719.70 509.67 725.93 501.10 Z" />
<path fill="#a8a6ce" opacity="1.00" d=" M 219.03 538.98 C 219.19 531.22 219.63 523.32 222.04 515.89 C 222.93 521.40 223.66 526.93 224.31 532.48 C 226.69 553.38 232.32 573.80 239.51 593.53 C 244.66 607.25 250.40 620.80 257.55 633.61 C 266.12 649.42 274.39 665.40 282.61 681.39 C 290.65 696.59 299.09 711.56 307.30 726.67 C 310.29 731.88 313.59 736.93 315.92 742.50 C 312.04 741.95 309.33 738.95 306.30 736.78 C 299.58 731.86 294.33 725.28 289.50 718.57 C 283.54 710.08 277.51 701.62 272.49 692.54 C 265.63 680.10 257.70 668.27 251.59 655.43 C 233.93 619.04 219.99 579.81 219.03 538.98 Z" />
<path fill="#a8a6ce" opacity="1.00" d=" M 603.11 516.80 C 607.51 533.02 605.69 550.10 603.36 566.50 C 599.78 589.33 592.63 611.46 583.72 632.72 C 577.69 646.95 571.20 661.02 563.25 674.29 C 556.62 685.55 549.43 696.47 542.63 707.64 C 535.31 719.57 526.26 730.57 515.19 739.21 C 513.21 740.77 511.01 742.06 508.54 742.65 C 511.48 735.89 516.02 730.03 519.65 723.65 C 528.03 709.10 535.59 694.11 543.26 679.19 C 551.15 663.61 559.52 648.28 567.95 632.98 C 574.55 621.05 579.82 608.46 584.65 595.73 C 591.87 576.42 597.55 556.44 600.17 535.97 C 601.11 529.57 601.33 523.05 603.11 516.80 Z" />
<path fill="#010173" opacity="1.00" d=" M 399.50 542.78 C 433.63 538.66 469.55 550.68 493.66 575.35 C 509.06 590.92 520.01 611.16 523.23 632.92 C 525.96 652.42 523.68 672.76 515.66 690.81 C 502.43 720.46 475.33 743.39 444.02 751.86 C 407.87 761.89 366.69 753.63 338.32 728.74 C 322.88 715.40 311.01 697.78 305.22 678.16 C 299.46 658.27 299.71 636.65 306.09 616.94 C 319.15 576.76 357.71 547.02 399.50 542.78 M 395.53 551.69 C 367.95 555.78 342.47 571.68 326.29 594.34 C 304.52 624.14 303.12 667.12 322.67 698.39 C 332.93 715.07 348.06 728.71 365.72 737.20 C 397.64 752.57 437.27 751.09 467.63 732.66 C 484.81 722.28 499.04 706.87 507.47 688.60 C 522.03 657.26 517.65 617.98 496.15 590.85 C 484.00 575.20 467.25 563.25 448.65 556.52 C 431.71 550.47 413.28 549.15 395.53 551.69 Z" />
<path fill="#ffffff" opacity="1.00" d=" M 395.53 551.69 C 413.28 549.15 431.71 550.47 448.65 556.52 C 467.25 563.25 484.00 575.20 496.15 590.85 C 517.65 617.98 522.03 657.26 507.47 688.60 C 499.04 706.87 484.81 722.28 467.63 732.66 C 437.27 751.09 397.64 752.57 365.72 737.20 C 348.06 728.71 332.93 715.07 322.67 698.39 C 303.12 667.12 304.52 624.14 326.29 594.34 C 342.47 571.68 367.95 555.78 395.53 551.69 M 408.30 557.95 C 411.85 569.95 418.10 581.08 420.39 593.47 C 422.78 605.17 422.41 617.19 423.96 629.00 C 427.46 652.56 442.96 673.45 463.58 685.02 C 459.70 673.17 453.87 662.02 450.58 649.97 C 447.12 637.54 448.03 624.46 445.64 611.85 C 441.51 589.82 428.60 568.45 408.30 557.95 M 386.41 618.27 C 381.40 624.05 374.88 628.17 368.88 632.81 C 359.11 640.27 349.96 648.82 343.17 659.15 C 334.99 671.71 331.56 686.95 331.94 701.82 C 340.01 693.48 345.54 683.05 353.71 674.79 C 360.85 667.35 369.96 662.34 378.01 656.02 C 389.67 646.79 399.35 634.75 404.69 620.79 C 408.76 610.12 409.74 598.58 409.96 587.25 C 401.95 597.47 394.90 608.43 386.41 618.27 M 360.71 678.76 C 372.39 681.68 384.25 683.79 395.90 686.81 C 403.30 688.73 409.61 693.24 416.30 696.75 C 427.74 702.84 439.92 708.17 452.92 709.59 C 466.57 711.13 480.91 709.29 493.05 702.62 C 492.97 702.36 492.80 701.84 492.71 701.58 C 482.68 698.11 471.91 697.45 461.91 693.83 C 450.84 690.09 441.61 682.66 431.08 677.79 C 420.44 672.75 408.84 669.21 396.98 669.33 C 384.43 669.41 371.37 671.85 360.71 678.76 Z" />
<path fill="#2959a3" opacity="1.00" d=" M 408.30 557.95 C 428.60 568.45 441.51 589.82 445.64 611.85 C 448.03 624.46 447.12 637.54 450.58 649.97 C 453.87 662.02 459.70 673.17 463.58 685.02 C 442.96 673.45 427.46 652.56 423.96 629.00 C 422.41 617.19 422.78 605.17 420.39 593.47 C 418.10 581.08 411.85 569.95 408.30 557.95 Z" />
<path fill="#b5b5b5" opacity="1.00" d=" M 42.40 566.86 C 44.26 574.39 44.33 582.28 43.97 590.00 C 43.70 593.56 43.65 597.21 42.34 600.59 C 40.83 589.43 40.89 578.02 42.40 566.86 Z" />
<path fill="#c0c0c0" opacity="1.00" d=" M 52.00 583.00 C 52.17 580.67 51.48 577.65 53.94 576.29 C 54.37 583.90 55.17 591.66 53.52 599.19 C 51.56 594.02 52.06 588.41 52.00 583.00 Z" />
<path fill="#2959a3" opacity="1.00" d=" M 386.41 618.27 C 394.90 608.43 401.95 597.47 409.96 587.25 C 409.74 598.58 408.76 610.12 404.69 620.79 C 399.35 634.75 389.67 646.79 378.01 656.02 C 369.96 662.34 360.85 667.35 353.71 674.79 C 345.54 683.05 340.01 693.48 331.94 701.82 C 331.56 686.95 334.99 671.71 343.17 659.15 C 349.96 648.82 359.11 640.27 368.88 632.81 C 374.88 628.17 381.40 624.05 386.41 618.27 Z" />
<path fill="#fedf00" opacity="1.00" d=" M 786.61 601.37 C 794.48 598.75 804.03 601.17 809.34 607.65 C 811.57 610.28 812.27 613.75 812.48 617.12 C 809.49 621.26 807.72 626.36 803.67 629.68 C 797.75 634.71 789.76 637.25 782.02 636.66 C 776.73 636.02 772.00 633.34 766.93 631.86 L 766.37 631.67 C 765.16 626.86 764.88 621.70 766.58 616.98 C 768.48 621.99 768.29 628.42 773.15 631.80 C 779.06 635.45 786.69 635.69 793.14 633.33 C 799.82 630.95 806.32 626.21 808.32 619.10 C 810.26 613.68 807.84 606.85 802.38 604.58 C 797.38 602.53 791.90 602.18 786.61 601.37 Z" />
<path fill="#fdbf0e" opacity="1.00" d=" M 768.68 611.73 C 773.74 607.05 779.36 601.80 786.61 601.37 C 791.90 602.18 797.38 602.53 802.38 604.58 C 807.84 606.85 810.26 613.68 808.32 619.10 C 806.32 626.21 799.82 630.95 793.14 633.33 C 786.69 635.69 779.06 635.45 773.15 631.80 C 768.29 628.42 768.48 621.99 766.58 616.98 L 766.51 616.76 C 766.96 614.98 767.11 612.94 768.68 611.73 M 789.15 608.24 C 783.23 614.40 778.53 621.64 774.56 629.18 C 778.30 631.32 782.74 632.24 787.03 632.11 C 789.17 631.03 790.60 628.99 792.12 627.20 C 796.31 621.68 801.15 616.52 803.98 610.11 C 799.72 607.79 793.17 603.36 789.15 608.24 Z" />
<path fill="#fddc04" opacity="1.00" d=" M 789.15 608.24 C 793.17 603.36 799.72 607.79 803.98 610.11 C 801.15 616.52 796.31 621.68 792.12 627.20 C 790.60 628.99 789.17 631.03 787.03 632.11 C 782.74 632.24 778.30 631.32 774.56 629.18 C 778.53 621.64 783.23 614.40 789.15 608.24 Z" />
<path fill="#f7b61f" opacity="1.00" d=" M 803.67 629.68 C 807.72 626.36 809.49 621.26 812.48 617.12 C 813.57 621.36 813.54 626.16 811.12 629.97 C 804.01 640.98 789.24 646.21 776.76 642.30 C 771.97 640.74 768.53 636.50 766.93 631.86 C 772.00 633.34 776.73 636.02 782.02 636.66 C 789.76 637.25 797.75 634.71 803.67 629.68 Z" />
<path fill="#fdc00f" opacity="1.00" d=" M 35.73 644.72 C 48.36 639.34 62.02 634.19 75.98 635.98 C 80.86 638.74 81.88 644.82 83.03 649.83 C 76.83 649.56 70.54 649.26 64.40 650.43 C 46.72 654.38 29.43 661.79 16.04 674.24 C 14.93 669.60 11.85 665.00 13.32 660.12 C 18.48 652.30 27.57 648.58 35.73 644.72 Z" />
<path fill="#eb9a22" opacity="1.00" d=" M 64.40 650.43 C 70.54 649.26 76.83 649.56 83.03 649.83 L 84.59 649.91 C 84.20 654.34 82.08 658.82 78.30 661.32 C 63.02 672.28 44.74 678.92 26.04 680.60 C 21.73 681.22 16.85 678.78 16.04 674.24 C 29.43 661.79 46.72 654.38 64.40 650.43 Z" />
<path fill="#2959a3" opacity="1.00" d=" M 360.71 678.76 C 371.37 671.85 384.43 669.41 396.98 669.33 C 408.84 669.21 420.44 672.75 431.08 677.79 C 441.61 682.66 450.84 690.09 461.91 693.83 C 471.91 697.45 482.68 698.11 492.71 701.58 C 492.80 701.84 492.97 702.36 493.05 702.62 C 480.91 709.29 466.57 711.13 452.92 709.59 C 439.92 708.17 427.74 702.84 416.30 696.75 C 409.61 693.24 403.30 688.73 395.90 686.81 C 384.25 683.79 372.39 681.68 360.71 678.76 Z" />
<path fill="#a8a6ce" opacity="1.00" d=" M 515.77 752.27 C 515.78 752.59 515.79 753.23 515.79 753.54 C 507.25 768.18 496.44 781.46 483.95 792.90 C 470.81 805.03 455.90 815.62 439.04 821.89 C 422.52 828.10 403.98 829.21 387.01 824.17 C 369.98 819.23 354.90 809.06 342.20 796.87 C 328.95 784.03 317.80 769.10 308.51 753.19 C 320.91 760.71 332.17 770.03 344.81 777.22 C 363.19 787.93 383.46 796.99 405.07 797.49 C 423.04 798.13 440.70 793.15 457.02 785.99 C 477.76 776.91 496.79 764.49 515.77 752.27 Z" />
<path fill="#2959a3" opacity="1.00" d=" M 341.40 809.78 C 352.16 815.25 363.05 820.59 373.41 826.80 C 373.34 827.61 373.22 829.22 373.15 830.03 C 373.04 831.89 372.99 833.77 373.02 835.66 C 361.15 831.38 351.18 823.44 340.98 816.26 C 340.99 815.95 341.00 815.33 341.00 815.02 C 341.08 813.26 341.26 811.52 341.40 809.78 Z" />
<path fill="#2959a3" opacity="1.00" d=" M 466.40 817.42 C 471.14 815.20 475.64 812.42 480.63 810.75 C 480.74 812.63 480.85 814.53 480.98 816.44 C 471.35 823.16 462.17 830.93 450.88 834.75 C 450.66 836.78 450.40 838.81 450.10 840.85 C 450.50 836.25 450.75 831.64 450.50 827.04 L 449.29 826.94 C 454.58 823.06 460.61 820.43 466.40 817.42 Z" />
<path fill="#010165" opacity="1.00" d=" M 321.59 816.36 C 327.86 814.61 334.55 813.87 341.00 815.02 C 341.00 815.33 340.99 815.95 340.98 816.26 C 340.99 823.76 339.85 831.21 338.55 838.58 C 331.84 831.98 326.66 824.08 321.23 816.46 L 321.59 816.36 Z" />
<path fill="#010165" opacity="1.00" d=" M 481.40 820.92 C 486.57 820.87 491.63 822.36 496.81 822.05 C 493.01 828.08 488.69 833.82 483.64 838.87 C 482.72 832.90 482.16 826.90 481.40 820.92 Z" />
<path fill="#010165" opacity="1.00" d=" M 449.29 826.94 L 450.50 827.04 C 450.75 831.64 450.50 836.25 450.10 840.85 C 449.97 842.18 449.81 843.51 449.68 844.86 C 442.42 845.63 435.27 843.62 428.02 843.98 C 423.32 843.91 418.68 844.70 414.01 845.03 C 400.88 845.14 387.76 844.91 374.64 844.94 C 374.07 841.85 373.23 838.80 373.02 835.66 C 372.99 833.77 373.04 831.89 373.15 830.03 C 373.46 829.61 374.06 828.79 374.37 828.38 C 379.27 830.84 384.51 832.60 389.98 833.25 C 401.19 835.09 412.67 835.75 423.96 834.34 C 432.58 832.85 442.01 832.33 449.29 826.94 Z" />
<path fill="#010156" opacity="1.00" d=" M 414.01 845.03 C 418.68 844.70 423.32 843.91 428.02 843.98 C 435.27 843.62 442.42 845.63 449.68 844.86 C 449.40 848.78 448.83 852.67 448.29 856.58 C 425.69 867.68 398.38 866.44 375.58 856.51 C 375.12 852.66 374.69 848.81 374.64 844.94 C 387.76 844.91 400.88 845.14 414.01 845.03 Z" />
</svg>
