<?xml version="1.0" encoding="UTF-8" ?>
<!DOCTYPE svg PUBLIC "-//W3C//DTD SVG 1.1//EN" "http://www.w3.org/Graphics/SVG/1.1/DTD/svg11.dtd">
<svg width="1100pt" height="1100pt" viewBox="0 0 1100 1100" version="1.1" xmlns="http://www.w3.org/2000/svg">
<path fill="#fedf00" opacity="1.00" d=" M 306.37 26.30 C 313.76 19.53 323.68 14.42 333.96 15.66 C 337.60 16.26 341.52 16.67 344.70 18.67 C 350.10 24.68 355.74 30.84 358.38 38.64 C 363.21 53.59 362.06 70.06 356.61 84.68 C 352.38 95.63 346.42 106.76 336.23 113.22 C 331.34 116.68 325.65 118.72 320.70 122.06 C 311.97 120.96 302.87 118.00 296.88 111.23 C 288.69 101.90 285.40 89.17 285.57 76.97 C 285.66 58.31 292.54 39.18 306.37 26.30 M 329.24 21.53 C 324.20 21.67 319.25 23.26 315.13 26.15 C 309.37 29.49 304.41 34.16 300.73 39.72 C 293.20 50.56 289.00 63.77 289.62 77.01 C 289.40 89.07 293.94 101.80 303.51 109.49 C 309.24 114.57 317.56 115.02 324.74 113.60 C 333.77 111.28 340.87 104.47 345.95 96.91 C 354.67 83.43 358.60 66.92 356.87 50.95 C 355.44 42.01 351.73 33.20 345.04 26.94 C 340.57 23.43 334.94 21.43 329.24 21.53 Z" />
<path fill="#f7b61f" opacity="1.00" d=" M 751.76 18.69 C 762.41 15.25 774.76 18.47 782.65 26.34 C 787.61 30.71 789.99 37.86 787.57 44.19 C 784.78 38.16 781.20 32.07 775.33 28.60 C 768.33 24.42 759.44 22.60 751.65 25.56 C 748.34 26.83 745.19 28.49 741.74 29.35 C 743.83 24.90 746.90 20.38 751.76 18.69 Z" />
<path fill="#f7b821" opacity="1.00" d=" M 344.70 18.67 C 353.29 18.81 361.68 23.39 366.58 30.44 C 373.36 39.77 375.79 51.62 375.35 62.99 C 374.90 80.20 369.06 97.62 357.43 110.52 C 352.34 115.94 346.18 120.68 338.96 122.79 C 332.99 124.57 326.57 123.87 320.70 122.06 C 325.65 118.72 331.34 116.68 336.23 113.22 C 346.42 106.76 352.38 95.63 356.61 84.68 C 362.06 70.06 363.21 53.59 358.38 38.64 C 355.74 30.84 350.10 24.68 344.70 18.67 Z" />
<path fill="#f7b61f" opacity="1.00" d=" M 999.99 21.10 C 1003.68 18.71 1008.40 18.59 1012.55 19.69 C 1009.21 22.41 1004.96 23.80 1001.87 26.84 C 995.77 32.83 992.51 41.60 993.22 50.12 C 993.69 55.58 996.78 60.29 998.23 65.49 C 993.16 63.63 988.43 59.60 987.21 54.15 C 984.08 41.94 989.31 27.94 999.99 21.10 Z" />
<path fill="#fedf00" opacity="1.00" d=" M 1012.55 19.69 C 1016.21 19.90 1020.03 20.66 1022.79 23.28 C 1028.80 28.59 1030.94 37.73 1028.59 45.30 C 1027.74 40.06 1027.58 34.58 1025.39 29.67 C 1022.62 23.58 1014.35 21.39 1008.64 24.57 C 996.89 30.62 991.28 46.84 997.43 58.69 C 1000.54 63.86 1007.39 63.56 1012.39 65.73 C 1007.86 67.25 1002.89 67.14 998.33 65.81 L 998.23 65.49 C 996.78 60.29 993.69 55.58 993.22 50.12 C 992.51 41.60 995.77 32.83 1001.87 26.84 C 1004.96 23.80 1009.21 22.41 1012.55 19.69 Z" />
<path fill="#fdc00f" opacity="1.00" d=" M 329.24 21.53 C 334.94 21.43 340.57 23.43 345.04 26.94 C 351.73 33.20 355.44 42.01 356.87 50.95 C 358.60 66.92 354.67 83.43 345.95 96.91 C 340.87 104.47 333.77 111.28 324.74 113.60 C 317.56 115.02 309.24 114.57 303.51 109.49 C 293.94 101.80 289.40 89.07 289.62 77.01 C 289.00 63.77 293.20 50.56 300.73 39.72 C 304.41 34.16 309.37 29.49 315.13 26.15 C 319.25 23.26 324.20 21.67 329.24 21.53 M 311.71 36.99 C 319.05 56.87 326.78 76.62 334.69 96.28 C 335.26 97.01 335.44 98.93 336.65 98.68 C 341.20 95.04 344.32 89.93 346.60 84.64 C 348.05 80.22 345.79 75.91 344.17 71.90 C 339.66 61.26 336.24 50.19 331.49 39.66 C 330.03 36.21 328.72 32.50 325.95 29.85 C 320.42 29.48 315.37 33.16 311.71 36.99 M 303.63 52.20 C 310.23 68.12 315.83 84.44 322.72 100.25 C 323.54 102.27 324.64 104.18 326.14 105.79 C 327.74 105.35 329.30 104.75 330.75 103.92 C 329.10 96.57 325.97 89.68 323.44 82.61 C 317.81 69.09 313.44 55.02 306.58 42.05 C 303.50 44.33 302.07 48.61 303.63 52.20 Z" />
<path fill="#fdbf0e" opacity="1.00" d=" M 1008.64 24.57 C 1014.35 21.39 1022.62 23.58 1025.39 29.67 C 1027.58 34.58 1027.74 40.06 1028.59 45.30 C 1028.27 52.33 1023.35 57.89 1018.87 62.86 C 1017.28 64.75 1014.87 65.90 1012.39 65.73 C 1007.39 63.56 1000.54 63.86 997.43 58.69 C 991.28 46.84 996.89 30.62 1008.64 24.57 M 1005.63 37.71 C 1002.86 39.90 999.73 41.92 997.92 45.03 C 997.53 49.37 998.47 53.89 1000.89 57.55 C 1009.30 53.21 1017.52 47.99 1023.66 40.69 C 1024.25 36.16 1022.18 31.77 1019.59 28.17 C 1014.51 30.69 1010.23 34.47 1005.63 37.71 Z" />
<path fill="#fedf00" opacity="1.00" d=" M 751.65 25.56 C 759.44 22.60 768.33 24.42 775.33 28.60 C 781.20 32.07 784.78 38.16 787.57 44.19 C 788.05 50.36 783.62 55.88 778.21 58.31 C 773.37 60.44 767.71 61.41 762.61 59.63 C 768.01 58.56 773.76 58.42 778.75 55.85 C 782.77 54.00 784.51 49.19 784.30 45.01 C 784.14 40.80 781.88 36.99 778.89 34.14 C 773.05 27.73 763.75 25.02 755.30 26.29 C 751.27 27.11 746.36 28.56 744.93 32.92 C 743.80 36.24 743.00 39.66 741.72 42.93 C 740.17 38.59 740.39 33.72 741.74 29.35 C 745.19 28.49 748.34 26.83 751.65 25.56 Z" />
<path fill="#fdbf0e" opacity="1.00" d=" M 755.30 26.29 C 763.75 25.02 773.05 27.73 778.89 34.14 C 781.88 36.99 784.14 40.80 784.30 45.01 C 784.51 49.19 782.77 54.00 778.75 55.85 C 773.76 58.42 768.01 58.56 762.61 59.63 C 755.29 59.43 749.50 54.30 744.38 49.61 C 742.45 47.99 741.58 45.39 741.72 42.93 C 743.00 39.66 743.80 36.24 744.93 32.92 C 746.36 28.56 751.27 27.11 755.30 26.29 M 750.15 31.30 C 750.49 33.96 752.14 36.14 753.52 38.35 C 756.47 42.99 759.60 47.58 763.44 51.54 C 765.29 53.08 767.29 55.39 769.99 54.71 C 773.36 54.00 776.83 52.73 779.26 50.19 C 774.97 42.91 769.52 36.36 764.18 29.84 C 759.82 27.26 754.58 30.13 750.15 31.30 Z" />
<path fill="#fddc04" opacity="1.00" d=" M 1005.63 37.71 C 1010.23 34.47 1014.51 30.69 1019.59 28.17 C 1022.18 31.77 1024.25 36.16 1023.66 40.69 C 1017.52 47.99 1009.30 53.21 1000.89 57.55 C 998.47 53.89 997.53 49.37 997.92 45.03 C 999.73 41.92 1002.86 39.90 1005.63 37.71 Z" />
<path fill="#fddc04" opacity="1.00" d=" M 750.15 31.30 C 754.58 30.13 759.82 27.26 764.18 29.84 C 769.52 36.36 774.97 42.91 779.26 50.19 C 776.83 52.73 773.36 54.00 769.99 54.71 C 767.29 55.39 765.29 53.08 763.44 51.54 C 759.60 47.58 756.47 42.99 753.52 38.35 C 752.14 36.14 750.49 33.96 750.15 31.30 Z" />
<path fill="#fede00" opacity="1.00" d=" M 311.71 36.99 C 315.37 33.16 320.42 29.48 325.95 29.85 C 328.72 32.50 330.03 36.21 331.49 39.66 C 336.24 50.19 339.66 61.26 344.17 71.90 C 345.79 75.91 348.05 80.22 346.60 84.64 C 344.32 89.93 341.20 95.04 336.65 98.68 C 335.44 98.93 335.26 97.01 334.69 96.28 C 326.78 76.62 319.05 56.87 311.71 36.99 Z" />
<path fill="#fdde00" opacity="1.00" d=" M 303.63 52.20 C 302.07 48.61 303.50 44.33 306.58 42.05 C 313.44 55.02 317.81 69.09 323.44 82.61 C 325.97 89.68 329.10 96.57 330.75 103.92 C 329.30 104.75 327.74 105.35 326.14 105.79 C 324.64 104.18 323.54 102.27 322.72 100.25 C 315.83 84.44 310.23 68.12 303.63 52.20 Z" />
<path fill="#cfcfcf" opacity="1.00" d=" M 210.80 60.04 C 211.37 60.02 212.49 60.00 213.06 59.98 C 212.47 62.08 213.25 65.47 210.85 66.47 C 210.69 64.33 210.46 62.17 210.80 60.04 Z" />
<path fill="#fede00" opacity="1.00" d=" M 609.97 68.25 C 614.41 64.86 620.28 62.86 625.89 63.56 C 629.26 64.70 632.00 67.09 634.88 69.11 L 634.78 69.65 C 633.72 75.34 633.47 81.20 631.71 86.74 C 628.32 97.52 622.13 107.23 614.60 115.58 C 610.11 120.44 605.43 125.28 599.62 128.59 C 593.46 132.45 586.39 134.34 579.56 136.61 C 576.14 132.82 572.11 128.52 572.53 123.00 C 573.03 115.85 574.55 108.23 579.07 102.48 C 578.06 110.08 574.33 117.66 576.53 125.40 C 579.09 131.63 587.22 132.18 592.64 129.63 C 607.47 123.02 618.63 110.03 625.78 95.71 C 628.71 89.94 631.36 83.60 630.96 77.01 C 630.71 72.72 627.57 68.30 623.05 67.98 C 618.69 67.67 614.33 68.39 609.97 68.25 Z" />
<path fill="#fdbf0f" opacity="1.00" d=" M 606.85 69.79 C 607.85 69.23 608.77 68.32 609.97 68.25 C 614.33 68.39 618.69 67.67 623.05 67.98 C 627.57 68.30 630.71 72.72 630.96 77.01 C 631.36 83.60 628.71 89.94 625.78 95.71 C 618.63 110.03 607.47 123.02 592.64 129.63 C 587.22 132.18 579.09 131.63 576.53 125.40 C 574.33 117.66 578.06 110.08 579.07 102.48 C 584.60 89.04 594.83 77.80 606.85 69.79 M 612.67 73.59 C 610.24 74.27 609.82 76.93 609.25 79.01 C 606.55 90.46 602.41 101.52 599.67 112.96 C 598.98 115.98 597.79 118.95 597.93 122.10 C 602.40 120.72 605.68 117.12 608.81 113.83 C 611.11 111.47 612.36 108.38 613.41 105.32 C 617.00 94.79 621.25 84.42 623.66 73.54 C 620.05 73.08 616.20 72.38 612.67 73.59 M 597.42 93.36 C 595.09 103.97 589.29 114.03 590.00 125.16 C 591.18 124.33 592.33 123.40 592.96 122.06 C 596.75 115.24 597.21 107.27 599.71 99.98 C 601.42 92.67 605.47 85.71 604.80 78.00 C 600.61 82.04 598.52 87.76 597.42 93.36 Z" />
<path fill="#f7b821" opacity="1.00" d=" M 631.71 86.74 C 633.47 81.20 633.72 75.34 634.78 69.65 C 639.66 73.80 645.10 79.07 644.86 86.00 C 643.55 101.51 634.96 115.38 624.61 126.58 C 618.25 133.30 611.31 139.92 602.65 143.52 C 598.44 145.06 593.58 146.56 589.24 144.67 C 585.36 142.88 582.58 139.52 579.56 136.61 C 586.39 134.34 593.46 132.45 599.62 128.59 C 605.43 125.28 610.11 120.44 614.60 115.58 C 622.13 107.23 628.32 97.52 631.71 86.74 Z" />
<path fill="#fede00" opacity="1.00" d=" M 612.67 73.59 C 616.20 72.38 620.05 73.08 623.66 73.54 C 621.25 84.42 617.00 94.79 613.41 105.32 C 612.36 108.38 611.11 111.47 608.81 113.83 C 605.68 117.12 602.40 120.72 597.93 122.10 C 597.79 118.95 598.98 115.98 599.67 112.96 C 602.41 101.52 606.55 90.46 609.25 79.01 C 609.82 76.93 610.24 74.27 612.67 73.59 Z" />
<path fill="#b5b5b5" opacity="1.00" d=" M 41.37 73.83 C 43.87 85.03 43.77 96.90 41.45 108.13 C 39.75 96.80 39.91 85.18 41.37 73.83 Z" />
<path fill="#fddc03" opacity="1.00" d=" M 597.42 93.36 C 598.52 87.76 600.61 82.04 604.80 78.00 C 605.47 85.71 601.42 92.67 599.71 99.98 C 597.21 107.27 596.75 115.24 592.96 122.06 C 592.33 123.40 591.18 124.33 590.00 125.16 C 589.29 114.03 595.09 103.97 597.42 93.36 Z" />
<path fill="#fdbf10" opacity="1.00" d=" M 843.34 96.19 C 862.05 85.25 883.70 80.04 905.20 78.51 L 905.82 79.09 C 907.39 80.62 909.15 82.06 910.15 84.06 C 910.28 85.69 910.17 87.34 910.13 88.98 C 901.90 94.09 892.78 97.41 883.54 100.20 C 882.67 99.31 881.81 98.41 880.96 97.51 C 887.27 92.38 895.48 90.26 901.53 84.72 C 899.28 83.24 896.51 83.55 893.98 83.60 C 887.82 83.76 881.94 85.88 876.36 88.32 C 866.39 93.12 857.89 101.24 846.84 103.61 C 845.97 101.15 844.91 98.77 843.55 96.55 L 843.34 96.19 Z" />
<path fill="#fbdb07" opacity="1.00" d=" M 905.82 79.09 C 910.23 78.66 915.38 80.43 917.55 84.52 C 915.14 86.13 912.67 87.61 910.13 88.98 C 910.17 87.34 910.28 85.69 910.15 84.06 C 909.15 82.06 907.39 80.62 905.82 79.09 Z" />
<path fill="#bdbdbd" opacity="1.00" d=" M 51.13 86.99 C 50.94 85.43 51.88 84.19 52.67 82.96 C 53.54 90.62 54.25 98.58 52.40 106.15 C 50.40 99.98 51.13 93.37 51.13 86.99 Z" />
<path fill="#fdd804" opacity="1.00" d=" M 876.36 88.32 C 881.94 85.88 887.82 83.76 893.98 83.60 C 896.51 83.55 899.28 83.24 901.53 84.72 C 895.48 90.26 887.27 92.38 880.96 97.51 C 881.81 98.41 882.67 99.31 883.54 100.20 C 869.83 104.87 855.17 104.69 840.90 105.84 C 840.36 105.90 839.26 106.03 838.71 106.09 C 839.80 102.68 841.18 99.30 843.55 96.55 C 844.91 98.77 845.97 101.15 846.84 103.61 C 857.89 101.24 866.39 93.12 876.36 88.32 Z" />
<path fill="#f7b821" opacity="1.00" d=" M 910.13 88.98 C 912.67 87.61 915.14 86.13 917.55 84.52 C 918.23 89.47 919.50 94.32 920.52 99.21 C 912.22 106.72 901.63 111.05 891.03 114.18 C 876.75 118.18 861.87 122.26 846.94 119.92 C 845.77 119.60 843.79 119.88 843.71 118.16 C 842.62 114.09 841.68 109.98 840.90 105.84 C 855.17 104.69 869.83 104.87 883.54 100.20 C 892.78 97.41 901.90 94.09 910.13 88.98 Z" />
<path fill="#fedf00" opacity="1.00" d=" M 200.85 101.01 C 203.70 96.70 208.95 94.51 213.94 93.94 C 222.80 108.79 227.10 126.95 222.81 143.98 C 221.85 149.88 217.80 154.44 214.84 159.41 C 208.77 160.03 203.57 155.14 201.68 149.74 C 206.01 151.37 209.54 157.14 214.67 154.75 C 220.34 150.73 221.73 143.38 222.66 136.93 C 223.93 125.51 222.12 113.57 216.82 103.32 C 215.85 101.72 214.99 99.59 212.97 99.14 C 208.83 98.34 204.80 100.05 200.85 101.01 Z" />
<path fill="#f7b822" opacity="1.00" d=" M 213.94 93.94 C 218.00 94.38 222.88 93.75 226.00 96.97 C 234.53 107.18 235.40 121.38 234.86 134.11 C 234.35 141.73 233.16 149.98 227.83 155.86 C 224.52 159.43 219.20 158.68 214.84 159.41 C 217.80 154.44 221.85 149.88 222.81 143.98 C 227.10 126.95 222.80 108.79 213.94 93.94 Z" />
<path fill="#fdc00f" opacity="1.00" d=" M 200.85 101.01 C 204.80 100.05 208.83 98.34 212.97 99.14 C 214.99 99.59 215.85 101.72 216.82 103.32 C 222.12 113.57 223.93 125.51 222.66 136.93 C 221.73 143.38 220.34 150.73 214.67 154.75 C 209.54 157.14 206.01 151.37 201.68 149.74 L 201.39 149.57 C 194.41 134.40 195.12 116.76 200.32 101.17 L 200.85 101.01 M 206.17 104.91 C 203.27 108.45 203.72 113.39 205.73 117.24 C 209.31 124.27 212.36 131.62 216.97 138.07 C 217.56 138.75 218.54 140.59 219.60 139.65 C 220.06 135.81 220.28 131.78 218.92 128.09 C 216.39 120.75 212.41 114.04 208.57 107.33 C 208.06 106.28 207.18 105.49 206.17 104.91 M 202.00 118.82 C 201.81 124.00 204.86 128.44 207.00 132.93 C 209.47 137.56 211.42 142.90 215.88 146.02 C 215.67 139.69 211.19 134.78 208.80 129.21 C 206.98 125.52 205.82 121.00 202.00 118.82 Z" />
<path fill="#fede01" opacity="1.00" d=" M 206.17 104.91 C 207.18 105.49 208.06 106.28 208.57 107.33 C 212.41 114.04 216.39 120.75 218.92 128.09 C 220.28 131.78 220.06 135.81 219.60 139.65 C 218.54 140.59 217.56 138.75 216.97 138.07 C 212.36 131.62 209.31 124.27 205.73 117.24 C 203.72 113.39 203.27 108.45 206.17 104.91 Z" />
<path fill="#fedd03" opacity="1.00" d=" M 202.00 118.82 C 205.82 121.00 206.98 125.52 208.80 129.21 C 211.19 134.78 215.67 139.69 215.88 146.02 C 211.42 142.90 209.47 137.56 207.00 132.93 C 204.86 128.44 201.81 124.00 202.00 118.82 Z" />
<path fill="#b8b8b8" opacity="1.00" d=" M 488.60 122.02 C 490.02 124.06 489.54 126.69 489.81 129.02 C 490.68 149.67 489.72 170.33 489.96 190.99 C 489.90 200.66 490.29 210.33 490.10 220.01 C 489.80 222.33 490.18 225.16 488.39 226.97 C 485.98 200.40 488.29 173.73 487.39 147.12 C 487.07 138.74 487.04 130.29 488.60 122.02 Z" />
<path fill="#fedf00" opacity="1.00" d=" M 738.67 126.38 C 749.29 122.44 764.97 129.46 764.30 142.08 C 761.57 146.39 759.66 151.40 755.64 154.73 C 749.91 159.52 742.36 162.02 734.92 161.75 C 729.39 161.56 724.68 158.19 719.31 157.24 L 718.80 157.12 C 716.93 152.40 716.84 146.84 718.63 142.10 C 720.58 147.07 720.28 153.47 725.15 156.83 C 730.86 160.33 738.15 160.73 744.42 158.53 C 751.33 156.21 758.24 151.49 760.29 144.12 C 762.38 138.69 759.82 131.95 754.43 129.59 C 749.42 127.57 743.95 127.25 738.67 126.38 Z" />
<path fill="#fdbf0e" opacity="1.00" d=" M 720.70 136.70 C 725.78 132.04 731.40 126.75 738.67 126.38 C 743.95 127.25 749.42 127.57 754.43 129.59 C 759.82 131.95 762.38 138.69 760.29 144.12 C 758.24 151.49 751.33 156.21 744.42 158.53 C 738.15 160.73 730.86 160.33 725.15 156.83 C 720.28 153.47 720.58 147.07 718.63 142.10 L 718.54 141.84 C 718.94 140.01 719.06 137.92 720.70 136.70 M 740.63 133.72 C 734.97 139.78 730.56 146.86 726.54 154.07 C 730.17 156.41 734.68 157.21 738.94 157.09 C 740.98 156.26 742.28 154.35 743.70 152.75 C 748.04 147.07 753.02 141.72 755.95 135.12 C 752.62 133.04 748.90 131.24 744.94 131.00 C 743.03 130.88 741.87 132.58 740.63 133.72 Z" />
<path fill="#fddc04" opacity="1.00" d=" M 740.63 133.72 C 741.87 132.58 743.03 130.88 744.94 131.00 C 748.90 131.24 752.62 133.04 755.95 135.12 C 753.02 141.72 748.04 147.07 743.70 152.75 C 742.28 154.35 740.98 156.26 738.94 157.09 C 734.68 157.21 730.17 156.41 726.54 154.07 C 730.56 146.86 734.97 139.78 740.63 133.72 Z" />
<path fill="#fdc00f" opacity="1.00" d=" M 33.98 152.05 C 46.86 146.52 60.80 141.13 75.04 143.01 C 79.86 145.80 80.90 151.83 82.02 156.82 C 74.70 156.54 67.21 156.12 60.09 158.21 C 43.64 162.38 27.55 169.49 15.07 181.24 C 13.91 176.62 10.86 172.02 12.31 167.12 C 17.31 159.53 26.07 155.82 33.98 152.05 Z" />
<path fill="#f7b61f" opacity="1.00" d=" M 755.64 154.73 C 759.66 151.40 761.57 146.39 764.30 142.08 C 766.00 146.72 765.31 152.31 762.25 156.26 C 754.99 166.15 741.42 170.81 729.60 167.57 C 724.73 166.22 720.55 162.14 719.31 157.24 C 724.68 158.19 729.39 161.56 734.92 161.75 C 742.36 162.02 749.91 159.52 755.64 154.73 Z" />
<path fill="#eb9a22" opacity="1.00" d=" M 60.09 158.21 C 67.21 156.12 74.70 156.54 82.02 156.82 L 83.43 156.88 C 83.44 161.29 81.00 165.79 77.33 168.29 C 62.07 179.26 43.80 185.89 25.10 187.60 C 20.83 188.22 15.78 185.84 15.07 181.24 C 27.55 169.49 43.64 162.38 60.09 158.21 Z" />
<path fill="#fedf00" opacity="1.00" d=" M 990.05 175.07 C 999.49 166.65 1012.52 163.33 1024.96 163.57 C 1043.36 163.76 1062.16 170.56 1074.94 184.09 C 1081.41 191.08 1086.40 200.22 1086.00 209.98 C 1085.59 214.32 1085.00 218.85 1082.88 222.74 C 1076.75 228.19 1070.40 233.85 1062.48 236.49 C 1040.06 243.57 1014.97 237.31 996.43 223.49 C 988.41 217.21 984.82 207.39 979.54 199.05 L 979.39 198.83 C 980.54 190.15 983.38 181.11 990.05 175.07 M 1014.35 168.50 C 1003.87 170.83 993.23 176.71 988.80 186.95 C 984.98 196.06 987.73 206.81 993.75 214.29 C 1008.13 230.64 1031.34 237.59 1052.59 234.57 C 1059.08 233.33 1065.29 230.53 1070.59 226.59 C 1078.00 221.39 1081.47 211.45 1079.49 202.70 C 1078.29 196.50 1074.41 191.31 1070.60 186.45 C 1067.08 181.83 1061.99 178.89 1057.21 175.79 C 1044.43 168.17 1028.90 166.05 1014.35 168.50 Z" />
<path fill="#fdc00f" opacity="1.00" d=" M 1014.35 168.50 C 1028.90 166.05 1044.43 168.17 1057.21 175.79 C 1061.99 178.89 1067.08 181.83 1070.60 186.45 C 1074.41 191.31 1078.29 196.50 1079.49 202.70 C 1081.47 211.45 1078.00 221.39 1070.59 226.59 C 1065.29 230.53 1059.08 233.33 1052.59 234.57 C 1031.34 237.59 1008.13 230.64 993.75 214.29 C 987.73 206.81 984.98 196.06 988.80 186.95 C 993.23 176.71 1003.87 170.83 1014.35 168.50 M 1048.05 182.13 C 1031.84 189.10 1014.86 194.23 998.99 201.98 C 997.77 202.72 995.60 203.11 995.98 205.02 C 995.98 206.57 997.16 207.68 998.12 208.76 C 1005.77 206.44 1013.24 203.58 1020.70 200.74 C 1032.28 195.91 1044.22 191.97 1055.62 186.73 C 1056.75 185.90 1058.76 185.57 1059.05 183.99 C 1056.39 180.98 1051.62 180.19 1048.05 182.13 M 1004.07 213.14 C 1002.50 213.34 1002.82 215.48 1003.88 216.10 C 1007.72 219.49 1011.89 222.66 1016.71 224.50 C 1020.48 225.83 1024.37 224.20 1027.89 222.86 C 1040.09 217.50 1052.96 213.81 1064.99 208.03 C 1067.35 206.79 1070.03 205.86 1071.86 203.81 C 1071.82 198.33 1068.27 193.74 1064.94 189.70 C 1044.41 196.83 1024.29 205.16 1004.07 213.14 Z" />
<path fill="#bbbbbb" opacity="1.00" d=" M 513.41 170.83 C 515.77 173.62 514.93 177.65 515.27 181.03 C 515.04 193.34 515.32 205.65 515.24 217.97 C 514.94 221.04 515.50 224.67 513.28 227.17 C 511.76 214.62 513.17 201.98 512.52 189.40 C 512.21 183.20 512.68 176.99 513.41 170.83 Z" />
<path fill="#bbbbbb" opacity="1.00" d=" M 162.43 178.90 C 164.46 183.96 164.08 189.62 164.15 194.98 C 163.81 203.31 164.07 211.64 164.17 219.97 C 163.92 223.03 164.13 226.46 162.29 229.08 C 161.15 220.09 161.39 211.02 161.33 201.98 C 161.45 194.28 161.27 186.54 162.43 178.90 Z" />
<path fill="#fdde00" opacity="1.00" d=" M 1048.05 182.13 C 1051.62 180.19 1056.39 180.98 1059.05 183.99 C 1058.76 185.57 1056.75 185.90 1055.62 186.73 C 1044.22 191.97 1032.28 195.91 1020.70 200.74 C 1013.24 203.58 1005.77 206.44 998.12 208.76 C 997.16 207.68 995.98 206.57 995.98 205.02 C 995.60 203.11 997.77 202.72 998.99 201.98 C 1014.86 194.23 1031.84 189.10 1048.05 182.13 Z" />
<path fill="#fec00e" opacity="1.00" d=" M 387.40 183.58 C 392.64 182.70 397.84 184.49 402.69 186.29 C 414.47 190.76 425.97 197.18 433.94 207.18 C 432.68 210.66 431.61 214.21 430.31 217.69 C 417.57 204.28 400.35 194.42 381.63 193.31 C 383.00 189.89 383.55 185.15 387.40 183.58 Z" />
<path fill="#c2c2c2" opacity="1.00" d=" M 500.30 186.11 C 500.66 186.12 501.36 186.15 501.71 186.16 C 504.48 193.81 503.34 202.04 503.58 209.99 C 503.71 214.46 503.04 218.99 501.27 223.12 C 499.17 220.22 499.77 216.43 499.46 213.07 C 499.36 204.09 498.80 195.00 500.30 186.11 Z" />
<path fill="#fede00" opacity="1.00" d=" M 1004.07 213.14 C 1024.29 205.16 1044.41 196.83 1064.94 189.70 C 1068.27 193.74 1071.82 198.33 1071.86 203.81 C 1070.03 205.86 1067.35 206.79 1064.99 208.03 C 1052.96 213.81 1040.09 217.50 1027.89 222.86 C 1024.37 224.20 1020.48 225.83 1016.71 224.50 C 1011.89 222.66 1007.72 219.49 1003.88 216.10 C 1002.82 215.48 1002.50 213.34 1004.07 213.14 Z" />
<path fill="#c3c3c3" opacity="1.00" d=" M 907.32 190.98 C 908.07 191.59 908.46 192.38 908.50 193.36 C 909.64 207.54 908.52 221.77 908.80 235.97 C 908.79 239.24 908.93 242.53 908.61 245.80 C 908.14 245.99 907.19 246.35 906.71 246.53 C 906.67 230.36 905.90 214.18 906.47 198.00 C 906.53 195.64 906.87 193.30 907.32 190.98 Z" />
<path fill="#ef9c21" opacity="1.00" d=" M 379.31 193.34 C 380.07 193.31 380.85 193.30 381.63 193.31 C 400.35 194.42 417.57 204.28 430.31 217.69 L 430.81 218.17 C 428.26 220.71 424.63 222.80 420.92 221.84 C 407.50 218.89 394.69 212.68 384.44 203.48 C 381.52 200.85 380.64 196.87 379.31 193.34 Z" />
<path fill="#b8b8b8" opacity="1.00" d=" M 174.44 195.07 C 175.32 205.00 175.17 214.97 174.50 224.90 C 172.75 220.84 172.53 216.33 172.32 211.97 C 172.24 206.29 172.41 200.44 174.44 195.07 Z" />
<path fill="#f7b821" opacity="1.00" d=" M 977.70 210.95 C 977.63 206.94 977.95 202.78 979.54 199.05 C 984.82 207.39 988.41 217.21 996.43 223.49 C 1014.97 237.31 1040.06 243.57 1062.48 236.49 C 1070.40 233.85 1076.75 228.19 1082.88 222.74 C 1082.61 231.44 1078.00 239.92 1070.77 244.79 C 1061.34 251.52 1049.41 253.84 1038.00 253.33 C 1020.65 252.78 1003.10 246.73 990.28 234.78 C 983.76 228.46 978.17 220.29 977.70 210.95 Z" />
<path fill="#c7c7c7" opacity="1.00" d=" M 916.45 243.91 C 916.14 236.00 914.63 227.56 917.46 219.98 C 919.33 227.69 919.25 235.86 917.53 243.59 C 917.26 243.67 916.72 243.83 916.45 243.91 Z" />
<path fill="#bebebe" opacity="1.00" d=" M 726.37 258.99 C 726.35 257.83 726.95 256.85 727.58 255.93 C 728.88 268.57 728.81 281.33 727.51 293.96 C 726.82 292.42 726.32 290.79 726.30 289.10 C 725.61 279.08 725.61 269.01 726.37 258.99 Z" />
<path fill="#ffde00" opacity="1.00" d=" M 469.12 282.74 C 476.88 269.86 490.77 260.33 505.97 259.41 C 520.14 258.31 534.29 264.78 543.70 275.24 C 547.06 279.07 549.95 283.33 552.09 287.97 C 556.88 298.16 558.09 309.71 556.76 320.81 C 556.05 325.08 554.89 329.27 553.28 333.29 C 551.37 337.65 549.03 341.85 546.16 345.66 C 538.60 355.32 527.14 361.96 514.91 363.28 C 501.38 364.96 487.05 360.59 477.18 351.09 C 473.87 347.78 470.90 344.13 468.46 340.15 C 466.26 336.42 464.50 332.44 463.24 328.30 C 460.27 317.75 460.34 306.45 463.21 295.88 C 464.52 291.24 466.70 286.90 469.12 282.74 M 494.60 269.57 C 485.52 271.59 477.82 278.31 473.16 286.23 C 466.99 296.26 465.76 308.52 466.97 320.02 C 468.64 332.13 475.49 343.50 485.72 350.27 C 495.81 357.46 509.14 358.39 520.94 355.80 C 539.43 350.79 552.45 331.97 551.91 313.01 C 552.65 301.80 548.20 291.08 542.22 281.86 C 537.42 276.14 531.22 270.29 523.45 269.60 C 514.78 264.60 503.32 264.80 494.60 269.57 Z" />
<path fill="#fdbf10" opacity="1.00" d=" M 134.16 280.23 C 151.77 270.44 171.62 264.28 191.83 263.82 C 193.71 266.86 194.89 270.25 193.97 273.85 C 186.58 278.80 178.28 282.02 169.91 284.91 C 169.57 283.77 168.31 282.57 168.60 281.42 C 174.62 277.16 181.84 274.53 187.14 269.26 C 177.80 266.57 168.41 270.97 160.34 275.32 C 152.67 279.73 145.87 286.05 137.03 288.09 C 136.08 285.62 135.07 283.18 134.30 280.65 L 134.16 280.23 Z" />
<path fill="#fbdb07" opacity="1.00" d=" M 191.83 263.82 C 195.74 264.57 200.16 266.35 201.29 270.59 C 198.82 271.60 196.33 272.59 193.97 273.85 C 194.89 270.25 193.71 266.86 191.83 263.82 Z" />
<path fill="#f0a91f" opacity="1.00" d=" M 494.60 269.57 C 503.32 264.80 514.78 264.60 523.45 269.60 C 513.86 270.25 504.18 270.45 494.60 269.57 Z" />
<path fill="#c2c2c2" opacity="1.00" d=" M 737.38 266.05 C 738.31 266.47 740.17 266.44 739.88 267.97 C 740.17 272.98 739.90 278.01 739.92 283.02 C 739.82 286.07 740.14 289.34 738.41 292.03 C 736.43 283.52 737.09 274.70 737.38 266.05 Z" />
<path fill="#fdd804" opacity="1.00" d=" M 160.34 275.32 C 168.41 270.97 177.80 266.57 187.14 269.26 C 181.84 274.53 174.62 277.16 168.60 281.42 C 168.31 282.57 169.57 283.77 169.91 284.91 C 157.58 288.86 144.51 289.15 131.72 290.29 C 131.17 290.34 130.06 290.42 129.51 290.46 C 130.67 287.00 132.07 283.58 134.30 280.65 C 135.07 283.18 136.08 285.62 137.03 288.09 C 145.87 286.05 152.67 279.73 160.34 275.32 Z" />
<path fill="#fdc00f" opacity="1.00" d=" M 473.16 286.23 C 477.82 278.31 485.52 271.59 494.60 269.57 C 504.18 270.45 513.86 270.25 523.45 269.60 C 531.22 270.29 537.42 276.14 542.22 281.86 C 548.20 291.08 552.65 301.80 551.91 313.01 C 552.45 331.97 539.43 350.79 520.94 355.80 C 509.14 358.39 495.81 357.46 485.72 350.27 C 475.49 343.50 468.64 332.13 466.97 320.02 C 465.76 308.52 466.99 296.26 473.16 286.23 M 520.33 278.32 C 512.99 284.32 507.54 292.19 500.75 298.76 C 497.50 301.88 494.94 305.62 491.71 308.76 C 486.78 313.49 482.76 319.06 477.75 323.73 C 474.38 326.29 477.59 330.29 479.17 332.92 C 487.02 326.26 493.93 318.55 501.21 311.27 C 510.49 300.64 520.62 290.72 528.85 279.20 C 526.37 277.67 522.86 275.97 520.33 278.32 M 507.73 312.81 C 502.87 317.62 498.81 323.15 493.84 327.85 C 490.92 331.86 486.43 335.09 484.92 339.91 C 487.11 343.07 490.68 344.99 494.00 346.78 C 496.89 347.87 500.72 350.02 503.35 347.24 C 509.68 340.93 516.21 334.76 521.85 327.81 C 525.22 324.20 528.75 320.74 531.83 316.87 C 536.05 312.02 542.58 308.01 543.18 301.02 C 542.22 294.85 538.97 288.74 534.11 284.80 C 524.42 293.26 516.53 303.49 507.73 312.81 Z" />
<path fill="#f7b821" opacity="1.00" d=" M 193.97 273.85 C 196.33 272.59 198.82 271.60 201.29 270.59 C 201.78 275.15 202.93 279.59 203.67 284.11 C 191.56 294.85 175.57 299.28 160.13 302.76 C 151.76 304.62 143.02 305.23 134.58 303.43 C 133.27 299.14 132.30 294.75 131.72 290.29 C 144.51 289.15 157.58 288.86 169.91 284.91 C 178.28 282.02 186.58 278.80 193.97 273.85 Z" />
<path fill="#010173" opacity="1.00" d=" M 543.70 275.24 C 583.53 275.16 623.45 281.75 660.98 295.16 C 687.48 304.51 712.57 318.19 734.17 336.22 C 729.98 337.63 725.88 339.29 721.86 341.12 C 720.40 341.87 719.30 340.41 718.20 339.77 C 686.55 316.13 648.71 301.88 610.15 294.37 C 591.02 290.63 571.56 288.71 552.09 287.97 C 549.95 283.33 547.06 279.07 543.70 275.24 Z" />
<path fill="#fdde00" opacity="1.00" d=" M 520.33 278.32 C 522.86 275.97 526.37 277.67 528.85 279.20 C 520.62 290.72 510.49 300.64 501.21 311.27 C 493.93 318.55 487.02 326.26 479.17 332.92 C 477.59 330.29 474.38 326.29 477.75 323.73 C 482.76 319.06 486.78 313.49 491.71 308.76 C 494.94 305.62 497.50 301.88 500.75 298.76 C 507.54 292.19 512.99 284.32 520.33 278.32 Z" />
<path fill="#fedf00" opacity="1.00" d=" M 896.77 285.09 C 899.50 280.62 904.85 278.42 909.86 277.73 C 917.77 290.52 922.00 305.58 921.48 320.63 C 920.72 327.53 920.39 334.79 916.96 341.01 C 915.20 344.19 913.15 347.22 911.70 350.57 C 904.37 351.71 898.42 345.18 896.58 338.70 C 900.64 339.92 902.42 344.30 906.14 346.06 C 910.58 347.59 913.96 343.21 915.72 339.75 C 920.43 328.90 921.16 316.55 918.76 305.03 C 917.33 297.58 915.28 289.51 909.88 283.92 C 905.50 282.95 901.11 284.57 896.77 285.09 Z" />
<path fill="#f7b822" opacity="1.00" d=" M 909.86 277.73 C 914.29 278.19 919.69 277.36 923.02 280.99 C 928.81 288.37 931.29 297.77 932.20 306.96 C 932.94 315.23 932.88 323.62 931.41 331.81 C 930.34 337.41 928.40 343.11 924.47 347.36 C 921.00 350.47 915.99 349.96 911.70 350.57 C 913.15 347.22 915.20 344.19 916.96 341.01 C 920.39 334.79 920.72 327.53 921.48 320.63 C 922.00 305.58 917.77 290.52 909.86 277.73 Z" />
<path fill="#010173" opacity="1.00" d=" M 388.74 308.76 C 414.22 295.74 441.70 286.79 469.80 281.55 L 469.12 282.74 C 466.70 286.90 464.52 291.24 463.21 295.88 C 417.16 306.09 372.11 326.48 338.96 360.75 L 338.28 360.61 C 335.16 358.01 331.83 355.65 328.21 353.79 C 345.33 335.15 366.30 320.31 388.74 308.76 Z" />
<path fill="#fdc00f" opacity="1.00" d=" M 896.77 285.09 C 901.11 284.57 905.50 282.95 909.88 283.92 C 915.28 289.51 917.33 297.58 918.76 305.03 C 921.16 316.55 920.43 328.90 915.72 339.75 C 913.96 343.21 910.58 347.59 906.14 346.06 C 902.42 344.30 900.64 339.92 896.58 338.70 L 896.40 338.61 C 889.51 321.64 890.10 302.31 896.15 285.18 L 896.77 285.09 M 902.18 289.87 C 900.67 291.78 899.19 294.09 899.48 296.64 C 901.62 305.29 906.16 313.04 910.01 321.00 C 911.61 324.15 913.08 327.48 915.68 329.96 C 917.40 325.05 917.30 319.56 915.25 314.77 C 912.60 308.80 910.04 302.79 907.02 296.99 C 905.65 294.47 904.65 291.55 902.18 289.87 M 896.32 304.02 C 897.25 310.15 900.39 315.53 902.89 321.10 C 905.54 326.68 907.62 333.16 912.89 336.87 C 912.51 331.91 909.67 327.71 907.74 323.27 C 905.75 318.62 903.53 314.07 901.42 309.49 C 900.20 307.31 898.98 304.63 896.32 304.02 Z" />
<path fill="#fede00" opacity="1.00" d=" M 507.73 312.81 C 516.53 303.49 524.42 293.26 534.11 284.80 C 538.97 288.74 542.22 294.85 543.18 301.02 C 542.58 308.01 536.05 312.02 531.83 316.87 C 528.75 320.74 525.22 324.20 521.85 327.81 C 516.21 334.76 509.68 340.93 503.35 347.24 C 500.72 350.02 496.89 347.87 494.00 346.78 C 490.68 344.99 487.11 343.07 484.92 339.91 C 486.43 335.09 490.92 331.86 493.84 327.85 C 498.81 323.15 502.87 317.62 507.73 312.81 Z" />
<path fill="#ffffff" opacity="1.00" d=" M 552.09 287.97 C 571.56 288.71 591.02 290.63 610.15 294.37 C 648.71 301.88 686.55 316.13 718.20 339.77 C 719.30 340.41 720.40 341.87 721.86 341.12 C 713.06 345.23 704.16 349.73 697.30 356.75 L 697.96 355.66 C 655.16 331.37 605.47 322.29 556.76 320.81 C 558.09 309.71 556.88 298.16 552.09 287.97 Z" />
<path fill="#fede01" opacity="1.00" d=" M 902.18 289.87 C 904.65 291.55 905.65 294.47 907.02 296.99 C 910.04 302.79 912.60 308.80 915.25 314.77 C 917.30 319.56 917.40 325.05 915.68 329.96 C 913.08 327.48 911.61 324.15 910.01 321.00 C 906.16 313.04 901.62 305.29 899.48 296.64 C 899.19 294.09 900.67 291.78 902.18 289.87 Z" />
<path fill="#ffffff" opacity="1.00" d=" M 338.96 360.75 C 372.11 326.48 417.16 306.09 463.21 295.88 C 460.34 306.45 460.27 317.75 463.24 328.30 C 422.84 336.83 382.68 353.15 352.95 382.61 C 350.21 374.09 344.97 366.51 338.28 360.61 L 338.96 360.75 Z" />
<path fill="#fedd03" opacity="1.00" d=" M 896.32 304.02 C 898.98 304.63 900.20 307.31 901.42 309.49 C 903.53 314.07 905.75 318.62 907.74 323.27 C 909.67 327.71 912.51 331.91 912.89 336.87 C 907.62 333.16 905.54 326.68 902.89 321.10 C 900.39 315.53 897.25 310.15 896.32 304.02 Z" />
<path fill="#2959a3" opacity="1.00" d=" M 553.28 333.29 C 554.89 329.27 556.05 325.08 556.76 320.81 C 605.47 322.29 655.16 331.37 697.96 355.66 L 697.30 356.75 C 694.58 360.35 695.35 365.20 696.92 369.11 C 682.16 361.34 667.02 354.17 651.09 349.12 C 619.56 338.72 586.36 334.42 553.28 333.29 Z" />
<path fill="#c5c5c5" opacity="1.00" d=" M 69.45 325.85 C 70.32 329.19 70.22 332.67 70.40 336.10 C 70.70 348.72 70.12 361.35 70.34 373.97 C 70.29 376.56 70.54 379.22 69.84 381.75 C 69.39 381.87 68.49 382.11 68.05 382.23 C 68.37 364.80 66.98 347.34 68.25 329.93 C 68.28 328.48 68.90 327.15 69.45 325.85 Z" />
<path fill="#2959a3" opacity="1.00" d=" M 352.95 382.61 C 382.68 353.15 422.84 336.83 463.24 328.30 C 464.50 332.44 466.26 336.42 468.46 340.15 C 451.71 344.15 434.98 348.50 419.04 355.10 C 400.10 362.79 382.09 373.16 366.88 386.90 C 361.58 391.36 357.55 397.16 352.07 401.40 C 353.71 395.31 354.29 388.81 352.95 382.61 Z" />
<path fill="#fdc00f" opacity="1.00" d=" M 734.17 336.22 C 742.46 333.51 751.14 331.64 759.91 331.72 C 762.33 331.68 764.74 333.05 765.85 335.23 C 767.90 339.06 769.06 343.28 770.42 347.38 C 765.61 347.60 760.78 347.21 755.99 347.68 C 750.58 348.24 745.16 349.15 740.05 351.07 C 725.11 356.59 709.94 363.32 698.97 375.27 C 698.37 373.19 697.68 371.13 696.92 369.11 C 695.35 365.20 694.58 360.35 697.30 356.75 C 704.16 349.73 713.06 345.23 721.86 341.12 C 725.88 339.29 729.98 337.63 734.17 336.22 Z" />
<path fill="#a8a6ce" opacity="1.00" d=" M 546.16 345.66 C 549.03 341.85 551.37 337.65 553.28 333.29 C 586.36 334.42 619.56 338.72 651.09 349.12 C 667.02 354.17 682.16 361.34 696.92 369.11 C 697.68 371.13 698.37 373.19 698.97 375.27 C 700.06 382.09 708.27 383.00 713.82 381.92 C 724.69 391.15 734.63 401.62 742.28 413.72 C 752.79 430.08 758.95 448.92 761.94 468.05 C 762.77 472.65 762.97 477.35 762.45 482.00 C 759.40 476.13 759.29 469.38 757.59 463.11 C 749.46 430.88 727.91 402.83 700.23 384.78 C 670.75 365.82 636.70 354.90 602.19 349.71 C 583.66 346.97 564.90 345.50 546.16 345.66 Z" />
<path fill="#a8a6ce" opacity="1.00" d=" M 419.04 355.10 C 434.98 348.50 451.71 344.15 468.46 340.15 C 470.90 344.13 473.87 347.78 477.18 351.09 C 455.38 354.52 434.06 360.90 413.88 369.83 C 389.13 380.33 366.70 396.85 350.61 418.51 C 339.29 433.74 330.92 451.34 327.46 470.06 C 326.76 473.87 325.97 477.70 324.33 481.24 C 323.22 462.66 329.33 444.70 336.24 427.74 C 340.28 424.66 344.60 421.55 347.07 416.97 C 349.34 412.91 350.29 408.33 351.38 403.86 C 351.60 403.03 351.83 402.21 352.07 401.40 C 357.55 397.16 361.58 391.36 366.88 386.90 C 382.09 373.16 400.10 362.79 419.04 355.10 Z" />
<path fill="#fedf00" opacity="1.00" d=" M 268.12 356.12 C 274.70 350.37 283.30 347.27 291.95 346.48 C 304.42 345.20 317.15 347.98 328.21 353.79 C 331.83 355.65 335.16 358.01 338.28 360.61 C 344.97 366.51 350.21 374.09 352.95 382.61 C 354.29 388.81 353.71 395.31 352.07 401.40 C 351.83 402.21 351.60 403.03 351.38 403.86 C 345.98 407.17 341.99 412.38 336.22 415.15 C 327.25 419.51 316.87 420.91 307.05 419.19 C 292.80 417.04 278.37 411.29 268.80 400.15 C 263.66 394.44 261.42 386.93 257.36 380.54 C 257.87 371.53 261.11 362.14 268.12 356.12 M 291.44 350.43 C 283.74 351.78 276.34 355.19 270.80 360.77 C 266.57 365.41 263.48 371.51 263.88 377.94 C 263.82 387.53 269.10 396.64 276.71 402.27 C 285.50 409.28 296.12 414.29 307.36 415.57 C 317.42 416.97 328.28 415.67 336.84 409.86 C 343.50 405.63 348.60 398.18 348.17 390.05 C 348.67 382.73 345.41 375.72 340.90 370.13 C 330.06 354.68 309.68 348.03 291.44 350.43 Z" />
<path fill="#2959a3" opacity="1.00" d=" M 546.16 345.66 C 564.90 345.50 583.66 346.97 602.19 349.71 C 636.70 354.90 670.75 365.82 700.23 384.78 C 727.91 402.83 749.46 430.88 757.59 463.11 C 759.29 469.38 759.40 476.13 762.45 482.00 C 762.97 477.35 762.77 472.65 761.94 468.05 C 758.95 448.92 752.79 430.08 742.28 413.72 C 734.63 401.62 724.69 391.15 713.82 381.92 C 718.99 381.10 724.18 380.20 729.14 378.50 C 755.44 402.09 770.91 436.20 775.01 470.99 C 776.74 487.15 777.08 503.84 772.43 519.57 C 767.50 536.76 757.89 552.61 744.77 564.78 C 738.13 571.01 730.37 575.85 722.79 580.83 C 709.41 589.49 694.97 596.49 679.86 601.57 C 659.76 608.46 638.80 612.25 617.96 616.10 C 572.26 624.13 525.26 624.52 479.42 617.36 C 456.72 613.85 433.99 609.96 412.02 603.12 C 391.24 596.70 371.65 586.66 353.92 574.11 C 334.15 561.23 319.91 540.67 313.79 517.97 C 308.84 500.43 309.83 481.86 312.46 464.03 C 314.18 453.40 316.86 442.90 320.68 432.83 C 326.11 432.08 331.41 430.35 336.24 427.74 C 329.33 444.70 323.22 462.66 324.33 481.24 C 325.97 477.70 326.76 473.87 327.46 470.06 C 330.92 451.34 339.29 433.74 350.61 418.51 C 366.70 396.85 389.13 380.33 413.88 369.83 C 434.06 360.90 455.38 354.52 477.18 351.09 C 487.05 360.59 501.38 364.96 514.91 363.28 C 527.14 361.96 538.60 355.32 546.16 345.66 M 438.52 371.69 C 424.92 373.98 411.06 379.19 401.55 389.56 C 395.27 396.32 392.04 406.54 395.52 415.40 C 399.08 425.40 407.97 432.34 417.25 436.78 C 434.26 444.74 453.92 445.98 472.17 442.17 C 483.69 439.33 495.33 434.45 503.39 425.43 C 508.81 419.46 512.08 411.15 510.45 403.05 C 508.44 393.49 501.15 385.97 493.02 381.06 C 476.75 371.41 457.03 369.01 438.52 371.69 M 627.56 373.74 C 613.48 375.67 599.17 380.64 588.98 390.92 C 582.34 397.65 578.58 407.95 581.82 417.17 C 585.13 427.21 593.87 434.24 603.02 438.83 C 619.33 446.83 638.28 448.15 656.00 445.11 C 668.30 442.62 680.64 437.63 689.42 428.39 C 695.19 422.23 698.82 413.39 696.82 404.93 C 694.72 395.57 687.53 388.27 679.54 383.43 C 664.01 374.28 645.30 371.61 627.56 373.74 M 469.67 465.26 C 477.42 478.16 490.33 487.16 503.92 493.10 C 523.34 501.59 545.25 503.62 566.09 500.24 C 587.23 496.61 606.86 486.08 622.32 471.31 C 624.72 468.82 627.76 466.66 628.99 463.30 C 621.39 461.90 613.63 462.82 605.97 462.57 C 561.67 462.62 517.37 462.56 473.07 462.58 C 471.62 462.44 468.13 463.27 469.67 465.26 Z" />
<path fill="#eb9a22" opacity="1.00" d=" M 740.05 351.07 C 745.16 349.15 750.58 348.24 755.99 347.68 C 761.12 347.52 766.27 347.46 771.40 347.69 C 771.85 354.60 766.82 360.28 761.20 363.55 C 757.62 365.81 754.04 368.07 750.26 369.97 C 743.49 373.44 736.34 376.07 729.14 378.50 C 724.18 380.20 718.99 381.10 713.82 381.92 C 708.27 383.00 700.06 382.09 698.97 375.27 C 709.94 363.32 725.11 356.59 740.05 351.07 Z" />
<path fill="#fdc00f" opacity="1.00" d=" M 291.44 350.43 C 309.68 348.03 330.06 354.68 340.90 370.13 C 345.41 375.72 348.67 382.73 348.17 390.05 C 348.60 398.18 343.50 405.63 336.84 409.86 C 328.28 415.67 317.42 416.97 307.36 415.57 C 296.12 414.29 285.50 409.28 276.71 402.27 C 269.10 396.64 263.82 387.53 263.88 377.94 C 263.48 371.51 266.57 365.41 270.80 360.77 C 276.34 355.19 283.74 351.78 291.44 350.43 M 314.32 366.38 C 300.52 372.14 286.62 377.72 273.04 383.99 C 270.79 385.23 272.81 388.16 273.23 389.97 C 278.57 388.83 283.55 386.55 288.67 384.75 C 302.34 379.03 316.18 373.53 329.11 366.27 C 327.39 364.88 325.53 362.98 323.11 363.33 C 320.03 363.84 317.17 365.16 314.32 366.38 M 330.04 373.15 C 313.09 381.36 294.88 386.66 278.17 395.39 C 280.49 398.80 284.04 401.12 287.36 403.49 C 290.36 405.59 294.31 406.17 297.68 404.57 C 309.67 399.61 322.09 395.61 333.72 389.81 C 336.28 388.77 338.70 387.43 340.86 385.69 C 340.81 380.74 338.34 376.34 335.48 372.47 C 333.90 370.95 331.73 372.71 330.04 373.15 Z" />
<path fill="#c7c7c7" opacity="1.00" d=" M 78.57 381.12 C 76.81 372.53 76.92 363.56 78.52 354.95 C 81.35 363.37 80.63 372.61 78.57 381.12 Z" />
<path fill="#fdde00" opacity="1.00" d=" M 314.32 366.38 C 317.17 365.16 320.03 363.84 323.11 363.33 C 325.53 362.98 327.39 364.88 329.11 366.27 C 316.18 373.53 302.34 379.03 288.67 384.75 C 283.55 386.55 278.57 388.83 273.23 389.97 C 272.81 388.16 270.79 385.23 273.04 383.99 C 286.62 377.72 300.52 372.14 314.32 366.38 Z" />
<path fill="#010173" opacity="1.00" d=" M 750.26 369.97 C 754.04 368.07 757.62 365.81 761.20 363.55 C 771.55 376.37 780.96 390.17 787.33 405.44 C 792.24 417.41 797.32 429.41 800.08 442.09 C 801.73 442.24 803.38 442.39 805.05 442.55 C 805.22 428.58 801.79 413.86 807.56 400.54 C 810.15 395.42 813.31 389.64 819.12 387.72 C 820.93 386.78 822.65 388.07 824.28 388.81 C 834.75 394.20 842.26 404.27 845.84 415.35 C 851.22 414.09 856.56 412.65 862.01 411.72 C 863.71 416.97 864.34 422.50 864.26 428.01 C 863.84 473.60 858.29 518.93 852.43 564.08 C 851.17 572.80 850.38 581.76 846.82 589.93 C 840.88 604.35 829.00 616.64 814.01 621.53 C 803.28 625.04 791.90 623.08 780.87 622.92 C 767.49 642.57 750.43 659.54 731.34 673.65 C 732.03 676.39 732.67 679.14 733.30 681.91 C 746.47 673.04 758.70 662.88 771.67 653.73 C 784.19 645.04 796.86 636.47 810.38 629.39 C 822.84 623.07 835.95 616.92 850.10 615.95 C 856.66 615.43 862.90 618.14 868.24 621.72 C 882.12 630.78 891.44 646.52 892.50 663.09 C 893.43 673.81 890.33 684.38 886.32 694.20 C 876.75 718.11 861.07 739.03 843.56 757.69 C 807.12 796.71 762.85 827.12 718.54 856.41 C 715.90 858.10 713.17 860.00 711.76 862.91 C 701.42 883.21 688.55 902.10 678.44 922.52 C 667.81 942.82 659.39 964.20 648.55 984.39 C 641.21 997.38 634.19 1010.70 624.73 1022.32 C 619.58 1022.21 614.55 1020.90 609.40 1020.95 C 609.23 1019.45 609.06 1017.91 608.98 1016.44 C 608.85 1014.55 608.74 1012.67 608.62 1010.80 C 598.26 1015.01 588.32 1020.39 578.55 1025.86 C 570.87 1032.66 560.00 1032.88 550.39 1034.54 C 538.13 1035.68 525.72 1034.92 513.65 1032.47 C 509.70 1031.71 506.02 1030.07 502.40 1028.41 C 502.09 1028.81 501.47 1029.62 501.16 1030.02 C 501.22 1029.21 501.35 1027.58 501.41 1026.76 C 492.59 1021.29 483.07 1017.08 474.05 1011.97 C 472.57 1011.11 470.97 1010.51 469.39 1009.90 C 469.19 1011.62 469.02 1013.34 468.94 1015.09 C 462.47 1013.52 455.60 1014.86 449.25 1016.41 C 431.23 991.66 420.27 962.83 407.80 935.11 C 402.57 922.51 395.53 910.82 388.98 898.90 C 383.17 886.99 375.82 875.92 369.94 864.05 C 368.75 861.67 367.25 859.35 364.98 857.88 C 334.48 837.41 303.68 817.17 275.63 793.37 C 253.21 774.44 231.87 753.88 214.69 729.98 C 204.17 715.40 195.59 699.29 190.42 682.03 C 186.38 668.15 188.01 652.69 195.19 640.11 C 201.28 629.32 211.11 620.32 222.99 616.43 C 235.76 613.70 248.41 619.01 259.95 623.96 C 276.67 631.45 292.13 641.44 307.08 651.95 C 320.80 661.48 333.74 672.09 347.48 681.58 C 348.30 678.76 348.90 675.88 349.44 673.00 C 330.24 659.26 313.40 642.20 300.15 622.65 C 288.44 622.68 276.19 624.93 264.95 620.52 C 246.02 613.40 232.82 594.78 230.05 575.04 C 223.47 526.92 217.40 478.61 216.61 429.99 C 216.50 423.75 216.93 417.45 218.76 411.45 C 224.28 412.22 229.64 413.78 235.07 415.04 C 238.55 404.43 245.39 394.52 255.42 389.20 C 255.39 391.67 255.51 394.14 255.81 396.60 C 249.35 404.83 245.41 414.81 242.92 424.90 C 240.50 424.27 238.08 423.62 235.73 422.78 C 233.07 421.72 230.43 420.62 227.74 419.64 C 228.04 437.13 228.67 454.60 229.53 472.07 C 230.13 482.29 230.39 492.58 232.34 502.65 C 234.62 499.93 235.55 496.45 236.45 493.10 C 239.38 481.34 242.15 469.39 247.42 458.40 C 249.40 455.33 251.66 452.42 254.21 449.80 C 257.03 448.30 260.03 447.20 263.00 446.05 C 264.16 445.60 265.33 445.15 266.50 444.70 C 267.08 435.14 267.40 425.55 267.45 415.97 C 269.70 418.33 272.34 420.26 274.95 422.21 C 275.29 422.50 275.98 423.07 276.33 423.36 C 276.36 429.68 275.67 435.99 275.83 442.32 C 277.49 442.16 279.16 442.00 280.82 441.84 C 282.01 437.04 283.32 432.27 284.80 427.55 C 288.37 429.29 292.16 430.56 296.04 431.44 C 289.53 450.68 285.23 470.72 283.90 491.01 C 282.95 506.93 281.86 522.97 284.00 538.85 C 284.45 556.70 289.71 574.05 296.81 590.30 C 309.95 620.12 331.81 646.01 358.99 663.99 C 392.65 686.57 432.26 698.78 472.12 704.48 C 498.57 708.27 525.31 709.45 552.01 709.01 C 591.38 708.12 631.07 703.36 668.45 690.51 C 696.91 680.65 724.17 666.04 745.95 644.99 C 766.34 625.68 781.49 601.10 790.35 574.51 C 794.13 562.86 796.69 550.74 797.06 538.48 C 798.91 524.70 798.06 510.77 797.29 496.95 C 795.24 451.18 779.65 405.45 750.26 369.97 M 815.77 401.88 C 812.51 411.22 813.50 421.26 813.78 430.95 C 814.11 435.76 813.64 440.62 814.48 445.38 C 815.65 445.59 816.84 445.79 818.03 445.99 C 820.22 448.13 823.80 448.49 826.59 449.82 C 829.01 452.86 831.58 455.79 833.81 458.99 C 838.70 470.54 841.90 482.70 844.81 494.87 C 845.63 497.68 846.27 500.97 848.75 502.84 C 850.36 492.65 850.78 482.33 851.39 472.04 C 852.05 454.65 853.08 437.25 852.99 419.84 C 850.36 420.87 847.76 421.98 845.20 423.17 L 845.11 423.49 C 842.66 423.87 840.29 424.62 837.90 425.21 C 836.60 418.78 834.08 412.64 831.28 406.73 C 828.79 402.04 826.26 397.09 821.91 393.86 L 822.07 392.44 C 818.73 394.55 816.95 398.24 815.77 401.88 M 259.39 460.38 C 256.27 462.42 254.74 465.98 253.24 469.24 C 249.30 478.67 247.99 488.89 245.43 498.73 C 243.25 508.76 239.93 518.66 239.53 528.99 C 239.48 535.63 239.33 542.30 240.19 548.90 C 239.68 557.60 240.06 566.39 241.55 574.99 C 244.01 588.73 252.81 601.61 265.63 607.56 C 274.13 611.52 283.77 610.99 292.89 610.50 C 290.82 604.91 288.17 599.55 286.04 593.99 C 283.06 586.54 281.11 578.74 278.35 571.22 C 276.40 563.21 274.65 555.13 273.58 546.95 C 272.27 536.69 272.48 526.34 272.50 516.03 C 272.88 503.68 273.75 491.29 276.23 479.16 C 277.92 470.92 276.68 462.42 278.06 454.14 C 271.65 455.49 264.85 456.47 259.39 460.38 M 802.71 454.51 C 804.40 462.58 802.87 470.92 804.56 479.00 C 808.64 499.02 808.73 519.59 808.02 539.93 C 807.37 550.46 805.04 560.80 802.68 571.06 C 798.45 584.58 793.74 597.97 787.93 610.91 C 793.32 610.97 798.73 611.21 804.13 610.85 C 816.36 609.78 827.13 601.70 833.31 591.34 C 840.77 578.98 841.09 563.97 840.88 549.96 C 841.29 539.94 842.14 529.79 840.26 519.86 C 838.96 512.83 836.97 505.96 835.38 498.99 C 832.84 488.60 831.36 477.83 826.94 468.00 C 825.47 464.78 823.51 461.49 820.26 459.83 C 814.80 456.98 808.76 455.42 802.71 454.51 M 209.14 643.95 C 204.20 651.32 201.04 660.86 203.24 669.61 L 202.82 670.84 C 202.70 681.05 207.77 690.28 212.08 699.22 C 215.38 698.12 218.60 696.81 221.90 695.72 L 221.84 695.62 C 229.60 692.39 236.74 687.68 242.78 681.83 C 253.83 671.13 259.48 656.31 263.64 641.82 C 252.64 636.08 240.99 629.58 228.13 630.62 C 219.84 631.06 213.78 637.75 209.14 643.95 M 817.16 642.29 C 820.32 652.40 823.76 662.58 829.50 671.57 C 836.32 682.33 846.69 690.54 858.26 695.70 L 858.07 695.89 C 861.76 697.00 865.36 698.41 869.08 699.44 C 873.56 689.66 878.67 679.60 878.36 668.53 C 879.09 657.80 875.14 647.02 867.71 639.28 C 863.75 635.26 858.95 631.28 853.04 631.09 C 840.06 629.83 828.18 636.31 817.16 642.29 M 270.28 645.75 C 265.82 657.80 261.81 670.39 253.69 680.59 C 246.54 689.53 236.73 695.88 226.58 700.92 C 222.90 702.55 219.29 704.36 215.67 706.13 C 222.23 718.13 230.51 729.13 239.41 739.49 C 261.73 764.95 287.79 786.86 315.00 806.91 C 328.39 816.55 341.64 826.61 356.34 834.23 C 348.49 810.28 340.51 786.17 336.94 761.13 C 334.30 740.40 335.13 719.11 340.81 698.93 C 332.96 691.52 324.52 684.75 316.01 678.12 C 301.31 666.59 286.34 655.33 270.28 645.75 M 777.06 669.06 C 764.45 678.76 751.72 688.37 740.07 699.25 C 745.89 719.69 746.41 741.28 743.91 762.29 L 743.71 762.21 C 742.04 774.02 739.52 785.71 736.23 797.18 C 732.34 809.66 728.92 822.30 724.44 834.59 C 738.43 827.43 751.04 817.96 763.76 808.81 C 785.40 793.06 806.15 776.03 825.19 757.19 C 840.48 741.96 854.81 725.38 865.17 706.35 C 861.36 704.67 857.70 702.67 853.87 701.06 C 843.02 695.58 832.49 688.61 825.40 678.55 C 818.35 668.78 814.79 657.14 810.50 646.04 C 798.98 653.15 787.82 660.84 777.06 669.06 M 362.24 679.69 C 360.72 682.38 359.18 685.06 357.78 687.83 C 354.60 697.00 350.10 706.08 350.05 715.99 C 346.06 728.91 346.75 742.75 348.19 756.06 C 351.75 789.14 363.24 820.79 377.33 850.73 C 382.81 862.82 389.76 874.14 396.50 885.55 C 404.12 899.50 412.90 912.81 422.66 925.36 C 427.45 931.61 433.65 936.54 440.02 941.10 C 441.15 941.93 442.57 942.09 443.90 942.47 C 445.52 945.33 448.37 947.16 450.97 949.05 C 463.64 958.20 476.36 967.45 490.35 974.49 C 501.16 979.92 512.76 984.08 524.84 985.34 C 539.98 987.02 555.36 984.52 569.66 979.47 C 590.57 972.38 609.73 961.11 628.19 949.18 C 631.16 947.20 634.40 945.42 636.62 942.56 C 640.56 941.81 643.55 938.88 646.56 936.45 C 657.25 927.37 665.76 916.03 672.86 904.01 C 681.44 890.11 690.50 876.48 698.12 862.01 C 714.62 829.34 728.19 794.56 732.52 758.00 C 734.12 744.35 734.60 730.35 731.34 716.90 L 731.10 717.51 C 730.80 707.24 726.57 697.74 723.13 688.24 C 721.70 685.46 720.15 682.74 718.67 680.00 C 698.65 691.56 677.22 700.73 654.89 706.76 C 611.70 718.49 566.59 721.53 522.01 720.02 C 466.74 718.81 410.38 707.93 362.24 679.69 M 610.81 972.79 C 591.37 983.95 570.57 993.86 548.12 996.77 C 532.58 998.86 516.63 996.72 501.96 991.27 C 486.13 985.43 471.38 976.96 457.52 967.40 C 450.53 962.81 444.01 957.43 436.68 953.38 C 442.31 963.40 449.06 972.79 456.28 981.73 C 470.63 999.24 488.45 1014.81 510.03 1022.56 C 525.92 1028.39 543.61 1028.81 559.87 1024.22 C 572.51 1020.66 584.26 1014.41 594.93 1006.81 C 608.93 996.73 621.52 984.65 632.07 970.99 C 636.42 965.00 641.12 959.06 644.09 952.24 C 633.01 959.11 622.10 966.26 610.81 972.79 Z" />
<path fill="#ffffff" opacity="1.00" d=" M 729.14 378.50 C 736.34 376.07 743.49 373.44 750.26 369.97 C 779.65 405.45 795.24 451.18 797.29 496.95 C 798.06 510.77 798.91 524.70 797.06 538.48 C 792.00 541.85 788.20 546.68 783.81 550.82 C 759.96 574.07 732.55 593.62 702.93 608.84 C 631.22 645.56 547.08 655.92 468.18 640.76 C 430.22 633.55 393.26 620.50 359.70 601.26 C 334.49 586.83 311.30 568.69 291.96 546.97 C 289.45 544.13 286.87 541.34 284.00 538.85 C 281.86 522.97 282.95 506.93 283.90 491.01 C 285.23 470.72 289.53 450.68 296.04 431.44 C 304.13 433.09 312.46 433.90 320.68 432.83 C 316.86 442.90 314.18 453.40 312.46 464.03 C 309.83 481.86 308.84 500.43 313.79 517.97 C 319.91 540.67 334.15 561.23 353.92 574.11 C 371.65 586.66 391.24 596.70 412.02 603.12 C 433.99 609.96 456.72 613.85 479.42 617.36 C 525.26 624.52 572.26 624.13 617.96 616.10 C 638.80 612.25 659.76 608.46 679.86 601.57 C 694.97 596.49 709.41 589.49 722.79 580.83 C 730.37 575.85 738.13 571.01 744.77 564.78 C 757.89 552.61 767.50 536.76 772.43 519.57 C 777.08 503.84 776.74 487.15 775.01 470.99 C 770.91 436.20 755.44 402.09 729.14 378.50 Z" />
<path fill="#01c08e" opacity="1.00" d=" M 438.52 371.69 C 457.03 369.01 476.75 371.41 493.02 381.06 C 501.15 385.97 508.44 393.49 510.45 403.05 C 512.08 411.15 508.81 419.46 503.39 425.43 C 495.33 434.45 483.69 439.33 472.17 442.17 C 453.92 445.98 434.26 444.74 417.25 436.78 C 407.97 432.34 399.08 425.40 395.52 415.40 C 392.04 406.54 395.27 396.32 401.55 389.56 C 411.06 379.19 424.92 373.98 438.52 371.69 Z" />
<path fill="#fede00" opacity="1.00" d=" M 330.04 373.15 C 331.73 372.71 333.90 370.95 335.48 372.47 C 338.34 376.34 340.81 380.74 340.86 385.69 C 338.70 387.43 336.28 388.77 333.72 389.81 C 322.09 395.61 309.67 399.61 297.68 404.57 C 294.31 406.17 290.36 405.59 287.36 403.49 C 284.04 401.12 280.49 398.80 278.17 395.39 C 294.88 386.66 313.09 381.36 330.04 373.15 Z" />
<path fill="#01c08e" opacity="1.00" d=" M 627.56 373.74 C 645.30 371.61 664.01 374.28 679.54 383.43 C 687.53 388.27 694.72 395.57 696.82 404.93 C 698.82 413.39 695.19 422.23 689.42 428.39 C 680.64 437.63 668.30 442.62 656.00 445.11 C 638.28 448.15 619.33 446.83 603.02 438.83 C 593.87 434.24 585.13 427.21 581.82 417.17 C 578.58 407.95 582.34 397.65 588.98 390.92 C 599.17 380.64 613.48 375.67 627.56 373.74 Z" />
<path fill="#f7b821" opacity="1.00" d=" M 255.42 389.20 C 255.69 386.25 256.11 383.25 257.36 380.54 C 261.42 386.93 263.66 394.44 268.80 400.15 C 278.37 411.29 292.80 417.04 307.05 419.19 C 316.87 420.91 327.25 419.51 336.22 415.15 C 341.99 412.38 345.98 407.17 351.38 403.86 C 350.29 408.33 349.34 412.91 347.07 416.97 C 344.60 421.55 340.28 424.66 336.24 427.74 C 331.41 430.35 326.11 432.08 320.68 432.83 C 312.46 433.90 304.13 433.09 296.04 431.44 C 292.16 430.56 288.37 429.29 284.80 427.55 C 281.49 425.81 278.24 423.96 274.95 422.21 C 272.34 420.26 269.70 418.33 267.45 415.97 C 265.20 413.43 262.96 410.85 261.03 408.06 C 259.02 404.37 257.18 400.57 255.81 396.60 C 255.51 394.14 255.39 391.67 255.42 389.20 Z" />
<path fill="#01c08e" opacity="1.00" d=" M 815.77 401.88 C 816.95 398.24 818.73 394.55 822.07 392.44 L 821.91 393.86 C 821.07 399.57 819.53 405.19 819.12 410.97 C 817.84 422.61 819.29 434.35 818.03 445.99 C 816.84 445.79 815.65 445.59 814.48 445.38 C 813.64 440.62 814.11 435.76 813.78 430.95 C 813.50 421.26 812.51 411.22 815.77 401.88 Z" />
<path fill="#00795b" opacity="1.00" d=" M 821.91 393.86 C 826.26 397.09 828.79 402.04 831.28 406.73 C 834.08 412.64 836.60 418.78 837.90 425.21 C 833.00 432.85 830.37 441.63 826.59 449.82 C 823.80 448.49 820.22 448.13 818.03 445.99 C 819.29 434.35 817.84 422.61 819.12 410.97 C 819.53 405.19 821.07 399.57 821.91 393.86 Z" />
<path fill="#00795b" opacity="1.00" d=" M 242.92 424.90 C 245.41 414.81 249.35 404.83 255.81 396.60 C 257.18 400.57 259.02 404.37 261.03 408.06 C 263.35 420.59 261.01 433.46 263.00 446.05 C 260.03 447.20 257.03 448.30 254.21 449.80 C 250.57 441.46 247.99 432.54 242.92 424.90 Z" />
<path fill="#01c08e" opacity="1.00" d=" M 261.03 408.06 C 262.96 410.85 265.20 413.43 267.45 415.97 C 267.40 425.55 267.08 435.14 266.50 444.70 C 265.33 445.15 264.16 445.60 263.00 446.05 C 261.01 433.46 263.35 420.59 261.03 408.06 Z" />
<path fill="#fedf00" opacity="1.00" d=" M 57.87 420.97 C 60.84 416.31 66.38 413.67 71.79 413.27 C 73.79 418.14 76.62 422.62 78.39 427.58 C 83.30 440.76 84.15 455.33 81.23 469.06 C 79.86 475.34 75.89 480.53 72.90 486.09 C 65.45 487.05 59.48 480.18 57.93 473.51 C 62.07 475.72 64.36 480.64 68.99 481.93 C 75.06 481.61 77.43 474.89 79.21 470.05 C 82.70 457.65 81.98 444.17 78.20 431.91 C 76.35 427.44 74.77 422.30 70.79 419.24 C 66.47 418.30 62.09 420.12 57.87 420.97 Z" />
<path fill="#f7b822" opacity="1.00" d=" M 71.79 413.27 C 75.08 413.50 78.49 413.30 81.63 414.48 C 84.67 415.63 86.17 418.72 87.72 421.35 C 93.44 431.86 94.38 444.17 94.11 455.91 C 93.67 465.11 92.49 475.09 86.39 482.43 C 82.92 486.07 77.45 485.43 72.90 486.09 C 75.89 480.53 79.86 475.34 81.23 469.06 C 84.15 455.33 83.30 440.76 78.39 427.58 C 76.62 422.62 73.79 418.14 71.79 413.27 Z" />
<path fill="#fdc00f" opacity="1.00" d=" M 57.87 420.97 C 62.09 420.12 66.47 418.30 70.79 419.24 C 74.77 422.30 76.35 427.44 78.20 431.91 C 81.98 444.17 82.70 457.65 79.21 470.05 C 77.43 474.89 75.06 481.61 68.99 481.93 C 64.36 480.64 62.07 475.72 57.93 473.51 C 50.70 457.04 51.93 437.91 57.42 421.08 L 57.87 420.97 M 63.38 425.09 C 62.21 427.52 60.32 430.09 61.23 432.94 C 63.44 441.50 68.19 449.07 71.90 457.03 C 73.39 459.82 74.40 463.03 76.92 465.11 C 78.91 461.42 78.37 456.94 77.74 452.96 C 74.40 444.39 70.20 436.19 66.04 428.00 C 65.46 426.77 64.55 425.76 63.38 425.09 M 58.16 439.06 C 58.00 443.92 60.60 448.23 62.37 452.61 C 65.48 458.47 67.84 464.80 71.80 470.17 C 72.18 470.71 74.11 472.86 74.03 471.00 C 72.85 464.18 68.74 458.29 66.04 452.00 C 64.08 447.35 62.29 442.25 58.16 439.06 Z" />
<path fill="#01c08e" opacity="1.00" d=" M 227.74 419.64 C 230.43 420.62 233.07 421.72 235.73 422.78 C 239.33 434.75 244.46 446.23 247.42 458.40 C 242.15 469.39 239.38 481.34 236.45 493.10 C 235.55 496.45 234.62 499.93 232.34 502.65 C 230.39 492.58 230.13 482.29 229.53 472.07 C 228.67 454.60 228.04 437.13 227.74 419.64 Z" />
<path fill="#01c08e" opacity="1.00" d=" M 845.20 423.17 C 847.76 421.98 850.36 420.87 852.99 419.84 C 853.08 437.25 852.05 454.65 851.39 472.04 C 850.78 482.33 850.36 492.65 848.75 502.84 C 846.27 500.97 845.63 497.68 844.81 494.87 C 841.90 482.70 838.70 470.54 833.81 458.99 C 833.76 454.27 836.39 450.14 837.58 445.68 C 839.83 438.19 842.91 430.98 845.11 423.49 L 845.20 423.17 Z" />
<path fill="#0f9e85" opacity="1.00" d=" M 235.73 422.78 C 238.08 423.62 240.50 424.27 242.92 424.90 C 247.99 432.54 250.57 441.46 254.21 449.80 C 251.66 452.42 249.40 455.33 247.42 458.40 C 244.46 446.23 239.33 434.75 235.73 422.78 Z" />
<path fill="#0f9e85" opacity="1.00" d=" M 837.90 425.21 C 840.29 424.62 842.66 423.87 845.11 423.49 C 842.91 430.98 839.83 438.19 837.58 445.68 C 836.39 450.14 833.76 454.27 833.81 458.99 C 831.58 455.79 829.01 452.86 826.59 449.82 C 830.37 441.63 833.00 432.85 837.90 425.21 Z" />
<path fill="#fede01" opacity="1.00" d=" M 63.38 425.09 C 64.55 425.76 65.46 426.77 66.04 428.00 C 70.20 436.19 74.40 444.39 77.74 452.96 C 78.37 456.94 78.91 461.42 76.92 465.11 C 74.40 463.03 73.39 459.82 71.90 457.03 C 68.19 449.07 63.44 441.50 61.23 432.94 C 60.32 430.09 62.21 427.52 63.38 425.09 Z" />
<path fill="#fedd03" opacity="1.00" d=" M 58.16 439.06 C 62.29 442.25 64.08 447.35 66.04 452.00 C 68.74 458.29 72.85 464.18 74.03 471.00 C 74.11 472.86 72.18 470.71 71.80 470.17 C 67.84 464.80 65.48 458.47 62.37 452.61 C 60.60 448.23 58.00 443.92 58.16 439.06 Z" />
<path fill="#ffffff" opacity="1.00" d=" M 259.39 460.38 C 264.85 456.47 271.65 455.49 278.06 454.14 C 276.68 462.42 277.92 470.92 276.23 479.16 C 273.75 491.29 272.88 503.68 272.50 516.03 C 272.48 526.34 272.27 536.69 273.58 546.95 C 274.65 555.13 276.40 563.21 278.35 571.22 C 269.66 569.87 260.63 567.92 253.51 562.44 C 248.56 558.49 243.59 554.33 240.19 548.90 C 239.33 542.30 239.48 535.63 239.53 528.99 C 239.93 518.66 243.25 508.76 245.43 498.73 C 247.99 488.89 249.30 478.67 253.24 469.24 C 254.74 465.98 256.27 462.42 259.39 460.38 Z" />
<path fill="#ffffff" opacity="1.00" d=" M 802.71 454.51 C 808.76 455.42 814.80 456.98 820.26 459.83 C 823.51 461.49 825.47 464.78 826.94 468.00 C 831.36 477.83 832.84 488.60 835.38 498.99 C 836.97 505.96 838.96 512.83 840.26 519.86 C 842.14 529.79 841.29 539.94 840.88 549.96 C 836.44 554.50 832.25 559.37 827.01 563.02 C 819.93 568.07 811.33 570.72 802.68 571.06 C 805.04 560.80 807.37 550.46 808.02 539.93 C 808.73 519.59 808.64 499.02 804.56 479.00 C 802.87 470.92 804.40 462.58 802.71 454.51 Z" />
<path fill="#fedf00" opacity="1.00" d=" M 955.44 474.76 C 954.97 462.49 970.05 455.92 980.42 459.34 C 974.36 460.63 967.56 460.51 962.41 464.39 C 958.64 467.80 957.82 473.71 959.55 478.35 C 965.32 491.14 982.82 497.16 995.04 490.00 C 999.38 486.76 999.01 480.59 1001.32 476.08 C 1002.85 480.36 1002.41 485.02 1001.51 489.39 L 1001.00 489.57 C 995.70 491.36 990.76 494.49 985.07 494.85 C 977.56 495.29 969.91 492.67 964.20 487.80 C 960.12 484.35 957.73 479.47 955.44 474.76 Z" />
<path fill="#fdbf0e" opacity="1.00" d=" M 980.42 459.34 C 987.73 459.63 993.53 464.70 998.64 469.41 C 1000.58 471.03 1001.36 473.63 1001.32 476.08 C 999.01 480.59 999.38 486.76 995.04 490.00 C 982.82 497.16 965.32 491.14 959.55 478.35 C 957.82 473.71 958.64 467.80 962.41 464.39 C 967.56 460.51 974.36 460.63 980.42 459.34 M 963.73 468.83 C 968.20 476.27 973.63 483.16 979.36 489.66 C 983.99 491.20 988.91 489.07 993.18 487.26 C 989.62 480.33 985.29 473.72 980.04 467.96 C 978.07 466.22 976.03 463.37 973.03 464.27 C 969.65 465.01 966.08 466.17 963.73 468.83 Z" />
<path fill="#01c08e" opacity="1.00" d=" M 469.67 465.26 C 468.13 463.27 471.62 462.44 473.07 462.58 C 517.37 462.56 561.67 462.62 605.97 462.57 C 613.63 462.82 621.39 461.90 628.99 463.30 C 627.76 466.66 624.72 468.82 622.32 471.31 C 606.86 486.08 587.23 496.61 566.09 500.24 C 545.25 503.62 523.34 501.59 503.92 493.10 C 490.33 487.16 477.42 478.16 469.67 465.26 Z" />
<path fill="#fddc04" opacity="1.00" d=" M 963.73 468.83 C 966.08 466.17 969.65 465.01 973.03 464.27 C 976.03 463.37 978.07 466.22 980.04 467.96 C 985.29 473.72 989.62 480.33 993.18 487.26 C 988.91 489.07 983.99 491.20 979.36 489.66 C 973.63 483.16 968.20 476.27 963.73 468.83 Z" />
<path fill="#f7b61f" opacity="1.00" d=" M 957.18 488.88 C 954.18 484.88 953.87 479.38 955.44 474.76 C 957.73 479.47 960.12 484.35 964.20 487.80 C 969.91 492.67 977.56 495.29 985.07 494.85 C 990.76 494.49 995.70 491.36 1001.00 489.57 C 999.24 494.96 994.80 499.84 989.08 500.93 C 977.33 503.67 964.10 498.81 957.18 488.88 Z" />
<path fill="#a8a6ce" opacity="1.00" d=" M 284.00 538.85 C 286.87 541.34 289.45 544.13 291.96 546.97 C 311.30 568.69 334.49 586.83 359.70 601.26 C 393.26 620.50 430.22 633.55 468.18 640.76 C 547.08 655.92 631.22 645.56 702.93 608.84 C 732.55 593.62 759.96 574.07 783.81 550.82 C 788.20 546.68 792.00 541.85 797.06 538.48 C 796.69 550.74 794.13 562.86 790.35 574.51 C 781.49 601.10 766.34 625.68 745.95 644.99 C 724.17 666.04 696.91 680.65 668.45 690.51 C 631.07 703.36 591.38 708.12 552.01 709.01 C 525.31 709.45 498.57 708.27 472.12 704.48 C 432.26 698.78 392.65 686.57 358.99 663.99 C 331.81 646.01 309.95 620.12 296.81 590.30 C 289.71 574.05 284.45 556.70 284.00 538.85 Z" />
<path fill="#a8a6ce" opacity="1.00" d=" M 240.19 548.90 C 243.59 554.33 248.56 558.49 253.51 562.44 C 260.63 567.92 269.66 569.87 278.35 571.22 C 281.11 578.74 283.06 586.54 286.04 593.99 C 288.17 599.55 290.82 604.91 292.89 610.50 C 283.77 610.99 274.13 611.52 265.63 607.56 C 252.81 601.61 244.01 588.73 241.55 574.99 C 240.06 566.39 239.68 557.60 240.19 548.90 Z" />
<path fill="#a8a6ce" opacity="1.00" d=" M 827.01 563.02 C 832.25 559.37 836.44 554.50 840.88 549.96 C 841.09 563.97 840.77 578.98 833.31 591.34 C 827.13 601.70 816.36 609.78 804.13 610.85 C 798.73 611.21 793.32 610.97 787.93 610.91 C 793.74 597.97 798.45 584.58 802.68 571.06 C 811.33 570.72 819.93 568.07 827.01 563.02 Z" />
<path fill="#ffffff" opacity="1.00" d=" M 209.14 643.95 C 213.78 637.75 219.84 631.06 228.13 630.62 C 240.99 629.58 252.64 636.08 263.64 641.82 C 259.48 656.31 253.83 671.13 242.78 681.83 C 236.74 687.68 229.60 692.39 221.84 695.62 C 215.73 686.89 209.59 678.17 203.24 669.61 C 201.04 660.86 204.20 651.32 209.14 643.95 Z" />
<path fill="#ffffff" opacity="1.00" d=" M 817.16 642.29 C 828.18 636.31 840.06 629.83 853.04 631.09 C 858.95 631.28 863.75 635.26 867.71 639.28 C 875.14 647.02 879.09 657.80 878.36 668.53 C 871.66 677.58 866.04 687.50 858.26 695.70 C 846.69 690.54 836.32 682.33 829.50 671.57 C 823.76 662.58 820.32 652.40 817.16 642.29 Z" />
<path fill="#ffffff" opacity="1.00" d=" M 270.28 645.75 C 286.34 655.33 301.31 666.59 316.01 678.12 C 324.52 684.75 332.96 691.52 340.81 698.93 C 335.13 719.11 334.30 740.40 336.94 761.13 C 326.61 767.92 313.05 768.93 301.35 765.51 C 292.54 763.07 285.78 756.67 278.77 751.19 C 259.92 736.04 242.28 719.33 226.58 700.92 C 236.73 695.88 246.54 689.53 253.69 680.59 C 261.81 670.39 265.82 657.80 270.28 645.75 Z" />
<path fill="#ffffff" opacity="1.00" d=" M 777.06 669.06 C 787.82 660.84 798.98 653.15 810.50 646.04 C 814.79 657.14 818.35 668.78 825.40 678.55 C 832.49 688.61 843.02 695.58 853.87 701.06 C 851.65 704.67 848.69 707.71 845.85 710.83 C 829.72 728.45 811.73 744.29 792.81 758.85 C 787.84 762.70 782.10 765.59 775.91 766.83 C 765.10 769.19 753.81 766.89 743.91 762.29 C 746.41 741.28 745.89 719.69 740.07 699.25 C 751.72 688.37 764.45 678.76 777.06 669.06 Z" />
<path fill="#a8a6ce" opacity="1.00" d=" M 858.26 695.70 C 866.04 687.50 871.66 677.58 878.36 668.53 C 878.67 679.60 873.56 689.66 869.08 699.44 C 865.36 698.41 861.76 697.00 858.07 695.89 L 858.26 695.70 Z" />
<path fill="#a8a6ce" opacity="1.00" d=" M 203.24 669.61 C 209.59 678.17 215.73 686.89 221.84 695.62 L 221.90 695.72 C 218.60 696.81 215.38 698.12 212.08 699.22 C 207.77 690.28 202.70 681.05 202.82 670.84 L 203.24 669.61 Z" />
<path fill="#a8a6ce" opacity="1.00" d=" M 362.24 679.69 C 410.38 707.93 466.74 718.81 522.01 720.02 C 566.59 721.53 611.70 718.49 654.89 706.76 C 677.22 700.73 698.65 691.56 718.67 680.00 C 720.15 682.74 721.70 685.46 723.13 688.24 C 706.83 696.84 690.81 706.21 673.33 712.30 C 640.10 723.78 605.09 729.52 570.05 731.48 C 525.50 733.67 480.37 731.45 436.92 720.80 C 419.00 716.25 401.30 710.45 384.73 702.16 C 375.63 697.60 366.73 692.67 357.78 687.83 C 359.18 685.06 360.72 682.38 362.24 679.69 Z" />
<path fill="#ffffff" opacity="1.00" d=" M 357.78 687.83 C 366.73 692.67 375.63 697.60 384.73 702.16 C 401.30 710.45 419.00 716.25 436.92 720.80 C 480.37 731.45 525.50 733.67 570.05 731.48 C 605.09 729.52 640.10 723.78 673.33 712.30 C 690.81 706.21 706.83 696.84 723.13 688.24 C 726.57 697.74 730.80 707.24 731.10 717.51 C 729.23 722.50 729.37 727.93 728.55 733.15 C 725.22 761.46 716.19 788.79 704.88 814.85 C 699.09 828.28 691.45 840.77 684.65 853.69 C 672.00 876.86 660.79 900.79 647.64 923.69 C 644.04 930.02 639.49 935.82 636.62 942.56 C 634.40 945.42 631.16 947.20 628.19 949.18 C 609.73 961.11 590.57 972.38 569.66 979.47 C 555.36 984.52 539.98 987.02 524.84 985.34 C 512.76 984.08 501.16 979.92 490.35 974.49 C 476.36 967.45 463.64 958.20 450.97 949.05 C 448.37 947.16 445.52 945.33 443.90 942.47 C 441.22 935.98 437.14 930.23 433.86 924.06 C 424.52 906.77 414.75 889.72 405.85 872.20 C 397.94 856.57 389.58 841.17 381.33 825.71 C 369.36 801.36 360.15 775.59 354.84 748.95 C 352.60 738.06 351.97 726.93 350.05 715.99 C 350.10 706.08 354.60 697.00 357.78 687.83 M 527.61 742.76 C 488.08 746.77 451.46 773.45 436.49 810.39 C 428.23 830.70 426.98 853.64 432.30 874.86 C 437.21 893.93 447.90 911.31 462.08 924.89 C 486.55 948.75 522.32 959.49 556.01 955.06 C 587.58 951.30 617.05 933.25 634.73 906.84 C 650.67 883.83 655.77 854.16 650.14 826.91 C 645.83 806.97 635.15 788.65 620.67 774.37 C 596.61 750.37 561.25 738.75 527.61 742.76 Z" />
<path fill="#a8a6ce" opacity="1.00" d=" M 215.67 706.13 C 219.29 704.36 222.90 702.55 226.58 700.92 C 242.28 719.33 259.92 736.04 278.77 751.19 C 285.78 756.67 292.54 763.07 301.35 765.51 C 313.05 768.93 326.61 767.92 336.94 761.13 C 340.51 786.17 348.49 810.28 356.34 834.23 C 341.64 826.61 328.39 816.55 315.00 806.91 C 287.79 786.86 261.73 764.95 239.41 739.49 C 230.51 729.13 222.23 718.13 215.67 706.13 Z" />
<path fill="#a8a6ce" opacity="1.00" d=" M 853.87 701.06 C 857.70 702.67 861.36 704.67 865.17 706.35 C 854.81 725.38 840.48 741.96 825.19 757.19 C 806.15 776.03 785.40 793.06 763.76 808.81 C 751.04 817.96 738.43 827.43 724.44 834.59 C 728.92 822.30 732.34 809.66 736.23 797.18 C 739.52 785.71 742.04 774.02 743.71 762.21 L 743.91 762.29 C 753.81 766.89 765.10 769.19 775.91 766.83 C 782.10 765.59 787.84 762.70 792.81 758.85 C 811.73 744.29 829.72 728.45 845.85 710.83 C 848.69 707.71 851.65 704.67 853.87 701.06 Z" />
<path fill="#a8a6ce" opacity="1.00" d=" M 348.19 756.06 C 346.75 742.75 346.06 728.91 350.05 715.99 C 351.97 726.93 352.60 738.06 354.84 748.95 C 360.15 775.59 369.36 801.36 381.33 825.71 C 389.58 841.17 397.94 856.57 405.85 872.20 C 414.75 889.72 424.52 906.77 433.86 924.06 C 437.14 930.23 441.22 935.98 443.90 942.47 C 442.57 942.09 441.15 941.93 440.02 941.10 C 433.65 936.54 427.45 931.61 422.66 925.36 C 412.90 912.81 404.12 899.50 396.50 885.55 C 389.76 874.14 382.81 862.82 377.33 850.73 C 363.24 820.79 351.75 789.14 348.19 756.06 Z" />
<path fill="#a8a6ce" opacity="1.00" d=" M 731.10 717.51 L 731.34 716.90 C 734.60 730.35 734.12 744.35 732.52 758.00 C 728.19 794.56 714.62 829.34 698.12 862.01 C 690.50 876.48 681.44 890.11 672.86 904.01 C 665.76 916.03 657.25 927.37 646.56 936.45 C 643.55 938.88 640.56 941.81 636.62 942.56 C 639.49 935.82 644.04 930.02 647.64 923.69 C 660.79 900.79 672.00 876.86 684.65 853.69 C 691.45 840.77 699.09 828.28 704.88 814.85 C 716.19 788.79 725.22 761.46 728.55 733.15 C 729.37 727.93 729.23 722.50 731.10 717.51 Z" />
<path fill="#010173" opacity="1.00" d=" M 527.61 742.76 C 561.25 738.75 596.61 750.37 620.67 774.37 C 635.15 788.65 645.83 806.97 650.14 826.91 C 655.77 854.16 650.67 883.83 634.73 906.84 C 617.05 933.25 587.58 951.30 556.01 955.06 C 522.32 959.49 486.55 948.75 462.08 924.89 C 447.90 911.31 437.21 893.93 432.30 874.86 C 426.98 853.64 428.23 830.70 436.49 810.39 C 451.46 773.45 488.08 746.77 527.61 742.76 M 523.52 751.69 C 496.21 755.75 470.95 771.37 454.76 793.69 C 433.74 821.94 431.17 862.34 447.74 893.30 C 456.77 910.11 470.63 924.26 487.18 933.75 C 512.57 948.34 543.99 951.53 571.96 943.13 C 599.73 934.93 623.75 914.45 635.73 888.02 C 649.45 857.87 645.85 820.52 626.30 793.73 C 614.74 777.66 598.40 765.18 580.05 757.81 C 562.22 750.67 542.46 748.98 523.52 751.69 Z" />
<path fill="#ffffff" opacity="1.00" d=" M 523.52 751.69 C 542.46 748.98 562.22 750.67 580.05 757.81 C 598.40 765.18 614.74 777.66 626.30 793.73 C 645.85 820.52 649.45 857.87 635.73 888.02 C 623.75 914.45 599.73 934.93 571.96 943.13 C 543.99 951.53 512.57 948.34 487.18 933.75 C 470.63 924.26 456.77 910.11 447.74 893.30 C 431.17 862.34 433.74 821.94 454.76 793.69 C 470.95 771.37 496.21 755.75 523.52 751.69 M 536.29 758.02 C 539.36 768.23 544.32 777.77 547.13 788.07 C 550.95 801.73 550.15 816.07 552.12 830.01 C 555.93 853.08 571.17 873.73 591.59 884.87 C 587.17 871.80 580.55 859.46 577.59 845.91 C 575.25 834.38 575.77 822.49 573.47 810.95 C 569.14 789.31 556.38 768.25 536.29 758.02 M 504.33 827.25 C 493.03 835.41 481.97 844.26 473.66 855.58 C 463.75 868.72 459.47 885.52 459.96 901.83 C 468.01 893.44 473.58 883.01 481.77 874.74 C 489.89 866.28 500.55 860.98 509.31 853.28 C 519.88 844.12 528.54 832.51 533.25 819.27 C 536.83 809.05 537.77 798.13 537.94 787.38 C 526.85 800.72 518.67 816.92 504.33 827.25 M 488.77 878.78 C 500.29 881.62 511.98 883.77 523.49 886.69 C 531.32 888.65 537.93 893.47 545.01 897.12 C 556.54 903.22 568.86 908.49 581.98 909.70 C 595.63 911.06 609.98 909.04 621.97 902.08 C 612.99 898.58 603.26 897.89 594.07 895.14 C 585.02 892.72 576.91 887.90 568.98 883.07 C 554.54 874.51 537.98 868.30 520.95 869.42 C 509.77 870.07 498.18 872.48 488.77 878.78 Z" />
<path fill="#2959a3" opacity="1.00" d=" M 536.29 758.02 C 556.38 768.25 569.14 789.31 573.47 810.95 C 575.77 822.49 575.25 834.38 577.59 845.91 C 580.55 859.46 587.17 871.80 591.59 884.87 C 571.17 873.73 555.93 853.08 552.12 830.01 C 550.15 816.07 550.95 801.73 547.13 788.07 C 544.32 777.77 539.36 768.23 536.29 758.02 Z" />
<path fill="#2959a3" opacity="1.00" d=" M 504.33 827.25 C 518.67 816.92 526.85 800.72 537.94 787.38 C 537.77 798.13 536.83 809.05 533.25 819.27 C 528.54 832.51 519.88 844.12 509.31 853.28 C 500.55 860.98 489.89 866.28 481.77 874.74 C 473.58 883.01 468.01 893.44 459.96 901.83 C 459.47 885.52 463.75 868.72 473.66 855.58 C 481.97 844.26 493.03 835.41 504.33 827.25 Z" />
<path fill="#2959a3" opacity="1.00" d=" M 488.77 878.78 C 498.18 872.48 509.77 870.07 520.95 869.42 C 537.98 868.30 554.54 874.51 568.98 883.07 C 576.91 887.90 585.02 892.72 594.07 895.14 C 603.26 897.89 612.99 898.58 621.97 902.08 C 609.98 909.04 595.63 911.06 581.98 909.70 C 568.86 908.49 556.54 903.22 545.01 897.12 C 537.93 893.47 531.32 888.65 523.49 886.69 C 511.98 883.77 500.29 881.62 488.77 878.78 Z" />
<path fill="#a8a6ce" opacity="1.00" d=" M 610.81 972.79 C 622.10 966.26 633.01 959.11 644.09 952.24 C 641.12 959.06 636.42 965.00 632.07 970.99 C 621.52 984.65 608.93 996.73 594.93 1006.81 C 584.26 1014.41 572.51 1020.66 559.87 1024.22 C 543.61 1028.81 525.92 1028.39 510.03 1022.56 C 488.45 1014.81 470.63 999.24 456.28 981.73 C 449.06 972.79 442.31 963.40 436.68 953.38 C 444.01 957.43 450.53 962.81 457.52 967.40 C 471.38 976.96 486.13 985.43 501.96 991.27 C 516.63 996.72 532.58 998.86 548.12 996.77 C 570.57 993.86 591.37 983.95 610.81 972.79 Z" />
<path fill="#2959a3" opacity="1.00" d=" M 469.39 1009.90 C 470.97 1010.51 472.57 1011.11 474.05 1011.97 C 483.07 1017.08 492.59 1021.29 501.41 1026.76 C 501.35 1027.58 501.22 1029.21 501.16 1030.02 C 501.04 1031.86 500.95 1033.70 500.95 1035.57 C 489.13 1031.27 478.92 1023.58 469.02 1016.01 L 468.94 1015.09 C 469.02 1013.34 469.19 1011.62 469.39 1009.90 Z" />
<path fill="#2959a3" opacity="1.00" d=" M 578.55 1025.86 C 588.32 1020.39 598.26 1015.01 608.62 1010.80 C 608.74 1012.67 608.85 1014.55 608.98 1016.44 C 599.27 1022.98 590.26 1031.33 578.72 1034.49 C 578.68 1031.61 578.58 1028.73 578.55 1025.86 Z" />
<path fill="#010165" opacity="1.00" d=" M 449.25 1016.41 C 455.60 1014.86 462.47 1013.52 468.94 1015.09 L 469.02 1016.01 C 469.02 1023.47 467.87 1030.89 466.62 1038.23 C 459.53 1032.17 454.70 1023.90 449.25 1016.41 Z" />
<path fill="#010165" opacity="1.00" d=" M 609.40 1020.95 C 614.55 1020.90 619.58 1022.21 624.73 1022.32 C 620.79 1028.14 616.73 1033.97 611.60 1038.81 C 610.75 1032.87 610.16 1026.89 609.40 1020.95 Z" />
<path fill="#010165" opacity="1.00" d=" M 550.39 1034.54 C 560.00 1032.88 570.87 1032.66 578.55 1025.86 C 578.58 1028.73 578.68 1031.61 578.72 1034.49 C 578.65 1037.97 577.96 1041.40 577.66 1044.87 C 574.21 1045.04 570.73 1045.22 567.31 1044.65 C 559.24 1043.42 551.02 1043.92 542.97 1045.05 C 529.53 1044.99 516.08 1045.09 502.64 1044.94 C 502.07 1041.81 501.23 1038.73 500.95 1035.57 C 500.95 1033.70 501.04 1031.86 501.16 1030.02 C 501.47 1029.62 502.09 1028.81 502.40 1028.41 C 506.02 1030.07 509.70 1031.71 513.65 1032.47 C 525.72 1034.92 538.13 1035.68 550.39 1034.54 Z" />
<path fill="#010156" opacity="1.00" d=" M 542.97 1045.05 C 551.02 1043.92 559.24 1043.42 567.31 1044.65 C 570.73 1045.22 574.21 1045.04 577.66 1044.87 C 577.36 1048.89 576.97 1052.92 576.07 1056.87 C 553.35 1067.45 526.25 1066.55 503.54 1056.44 C 503.15 1052.61 502.67 1048.78 502.64 1044.94 C 516.08 1045.09 529.53 1044.99 542.97 1045.05 Z" />
</svg>
