<?xml version="1.0" encoding="UTF-8" ?>
<!DOCTYPE svg PUBLIC "-//W3C//DTD SVG 1.1//EN" "http://www.w3.org/Graphics/SVG/1.1/DTD/svg11.dtd">
<svg width="764pt" height="329pt" viewBox="0 0 764 329" version="1.1" xmlns="http://www.w3.org/2000/svg">
<path fill="#464957" opacity="1.00" d=" M 377.93 11.99 C 392.75 8.25 409.43 14.08 418.59 26.36 C 416.68 27.96 414.89 29.70 413.23 31.56 C 407.53 24.05 398.61 18.70 389.07 18.38 C 379.86 17.71 370.54 21.58 364.17 28.19 C 355.60 37.03 352.84 51.02 357.87 62.33 C 355.33 62.59 352.82 62.99 350.34 63.58 L 350.15 63.62 C 347.89 55.33 347.08 46.39 349.85 38.11 C 353.74 25.27 364.87 14.98 377.93 11.99 Z" />
<path fill="#040404" opacity="1.00" d=" M 413.23 31.56 C 414.89 29.70 416.68 27.96 418.59 26.36 C 423.61 33.15 426.66 41.50 426.30 50.00 C 426.72 63.49 418.87 76.38 407.58 83.40 C 405.51 83.17 403.44 82.95 401.38 82.75 C 401.16 81.46 400.96 80.17 400.77 78.87 C 408.81 74.34 415.67 67.14 418.07 58.05 C 420.73 49.09 418.45 39.15 413.23 31.56 Z" />
<path fill="#030404" opacity="1.00" d=" M 373.16 51.56 C 380.35 50.12 387.73 50.31 394.97 49.21 C 399.09 48.86 404.54 47.84 406.84 52.35 C 394.95 57.60 380.99 59.63 368.46 55.49 C 369.61 53.78 370.96 51.89 373.16 51.56 Z" />
<path fill="#464957" opacity="1.00" d=" M 406.84 52.35 C 407.82 55.68 408.63 59.54 406.77 62.72 C 405.05 65.08 401.83 65.15 399.21 65.62 C 393.45 66.10 387.67 66.43 381.94 67.22 C 380.60 67.33 379.39 67.93 378.24 68.57 C 378.12 68.44 377.88 68.17 377.76 68.03 C 375.20 67.57 372.01 68.05 370.14 65.84 C 368.17 62.80 368.01 58.98 368.46 55.49 C 380.99 59.63 394.95 57.60 406.84 52.35 Z" />
<path fill="#01c08e" opacity="1.00" d=" M 476.61 59.61 C 477.90 57.86 480.37 57.77 482.08 58.94 C 484.32 60.08 482.91 63.01 483.12 64.97 C 481.14 65.55 479.10 65.87 477.05 66.02 C 476.32 64.05 474.77 61.42 476.61 59.61 Z" />
<path fill="#00bf8d" opacity="1.00" d=" M 292.39 62.46 C 299.77 60.37 308.59 64.55 311.00 71.99 C 314.73 80.93 307.84 92.22 298.12 92.77 C 289.88 93.95 281.48 87.36 280.93 79.01 C 280.13 71.75 285.01 63.91 292.39 62.46 M 293.45 65.58 C 288.40 67.02 284.38 71.73 284.10 77.02 C 284.19 83.41 289.64 89.21 296.01 89.71 C 302.30 89.54 308.09 84.38 308.71 78.08 C 309.02 70.46 301.00 63.32 293.45 65.58 Z" />
<path fill="#040404" opacity="1.00" d=" M 350.34 63.58 C 352.82 62.99 355.33 62.59 357.87 62.33 C 361.76 70.86 369.39 77.48 378.28 80.39 C 378.80 81.94 379.15 83.54 379.54 85.14 C 377.48 85.70 375.42 86.26 373.38 86.87 C 363.11 82.35 354.28 74.23 350.34 63.58 Z" />
<path fill="#040404" opacity="1.00" d=" M 381.94 67.22 C 387.67 66.43 393.45 66.10 399.21 65.62 C 399.67 68.77 399.98 71.93 400.29 75.09 C 393.62 71.46 385.96 70.12 378.45 69.76 L 378.24 68.57 C 379.39 67.93 380.60 67.33 381.94 67.22 Z" />
<path fill="#373a46" opacity="1.00" d=" M 378.45 69.76 C 385.96 70.12 393.62 71.46 400.29 75.09 C 400.42 76.35 400.58 77.61 400.77 78.87 C 400.96 80.17 401.16 81.46 401.38 82.75 C 403.44 82.95 405.51 83.17 407.58 83.40 C 420.72 84.88 433.60 88.34 445.64 93.85 C 448.18 90.11 450.40 85.95 453.98 83.09 C 457.83 81.61 461.48 84.17 464.50 86.28 C 466.69 87.90 469.65 89.77 469.35 92.93 C 469.24 97.67 465.51 101.05 463.04 104.74 C 472.76 113.57 482.49 123.06 488.23 135.06 C 485.41 138.66 482.49 142.27 480.52 146.42 C 479.21 149.34 480.78 152.48 481.66 155.29 C 492.74 184.56 485.59 219.54 464.49 242.54 C 438.34 273.86 388.23 280.42 354.34 258.13 C 355.23 256.68 356.13 255.24 357.03 253.80 C 382.69 270.56 417.94 270.15 443.62 253.61 C 460.74 242.82 473.54 225.46 478.87 205.94 C 483.54 189.32 482.64 171.15 476.23 155.11 C 475.11 152.53 474.00 149.94 472.93 147.34 C 474.35 146.51 475.78 145.68 477.21 144.85 C 474.58 137.47 469.70 131.18 464.38 125.54 C 452.30 112.51 436.24 103.15 418.89 99.28 C 397.92 94.86 375.28 97.99 356.66 108.77 C 330.97 123.23 313.34 151.41 312.68 181.03 C 312.45 186.24 313.58 191.46 312.94 196.67 C 308.75 195.90 304.80 194.03 301.19 191.82 C 298.99 190.73 299.17 188.05 299.07 185.98 C 298.66 168.74 303.25 151.51 311.43 136.38 C 314.53 130.38 319.06 125.25 321.98 119.15 L 322.66 117.82 C 319.35 114.12 313.39 110.76 314.82 104.94 C 316.12 101.21 319.55 98.76 322.47 96.32 C 324.71 94.36 328.29 94.72 330.52 96.54 C 333.42 98.78 335.77 101.65 338.49 104.11 C 348.77 96.04 360.82 90.38 373.38 86.87 C 375.42 86.26 377.48 85.70 379.54 85.14 C 379.15 83.54 378.80 81.94 378.28 80.39 L 379.30 80.77 C 379.15 77.09 379.02 73.40 378.45 69.76 M 377.31 91.46 C 368.23 93.27 359.82 97.47 351.58 101.55 C 331.52 114.42 314.42 133.52 308.03 156.88 C 307.01 158.88 309.20 161.49 311.29 160.39 C 313.95 157.14 314.59 152.82 316.32 149.08 C 319.92 141.19 324.16 133.48 329.88 126.91 C 342.05 111.84 359.48 101.42 378.11 96.46 C 380.17 95.78 382.54 95.48 384.16 93.91 C 384.42 92.66 384.09 91.62 383.17 90.79 C 381.19 90.77 379.24 91.10 377.31 91.46 Z" />
<path fill="#2757a2" opacity="1.00" d=" M 536.54 73.55 C 545.50 71.99 555.00 79.70 554.41 89.00 C 554.66 97.59 546.73 105.27 538.11 104.49 C 530.89 104.07 524.24 98.42 523.37 91.12 C 522.06 82.96 528.28 74.51 536.54 73.55 M 535.29 77.40 C 530.36 78.93 526.65 83.80 526.81 89.01 C 526.67 94.44 530.81 99.39 535.98 100.76 C 543.16 102.84 551.25 96.45 551.01 89.01 C 551.26 81.28 542.63 74.75 535.29 77.40 Z" />
<path fill="#2959a3" opacity="1.00" d=" M 100.36 86.44 C 104.00 85.48 108.32 86.26 110.77 89.29 C 113.64 92.89 113.38 98.69 109.85 101.76 C 106.99 104.55 102.32 104.95 98.82 103.20 C 92.34 99.87 93.10 88.35 100.36 86.44 Z" />
<path fill="#01c08e" opacity="1.00" d=" M 209.77 90.98 C 210.11 88.02 214.01 87.19 216.05 88.96 C 217.61 90.12 217.15 92.38 216.96 94.05 C 215.96 96.27 213.04 95.61 211.09 95.93 C 210.39 94.37 209.04 92.79 209.77 90.98 Z" />
<path fill="#2959a3" opacity="1.00" d=" M 641.07 90.05 C 643.02 90.21 645.23 89.84 646.88 91.18 C 647.97 93.31 647.82 97.03 645.04 97.68 C 643.05 98.33 641.22 97.39 639.84 96.05 C 639.85 93.98 640.20 91.94 641.07 90.05 Z" />
<path fill="#454856" opacity="1.00" d=" M 377.31 91.46 C 379.24 91.10 381.19 90.77 383.17 90.79 C 384.09 91.62 384.42 92.66 384.16 93.91 C 382.54 95.48 380.17 95.78 378.11 96.46 C 359.48 101.42 342.05 111.84 329.88 126.91 C 324.16 133.48 319.92 141.19 316.32 149.08 C 314.59 152.82 313.95 157.14 311.29 160.39 C 309.20 161.49 307.01 158.88 308.03 156.88 C 314.42 133.52 331.52 114.42 351.58 101.55 C 359.82 97.47 368.23 93.27 377.31 91.46 Z" />
<path fill="#2959a3" opacity="1.00" d=" M 356.66 108.77 C 375.28 97.99 397.92 94.86 418.89 99.28 C 436.24 103.15 452.30 112.51 464.38 125.54 C 469.70 131.18 474.58 137.47 477.21 144.85 C 475.78 145.68 474.35 146.51 472.93 147.34 C 474.00 149.94 475.11 152.53 476.23 155.11 C 471.90 156.68 467.59 158.29 463.31 159.98 L 463.17 158.62 C 459.59 158.73 455.99 159.23 452.69 160.69 C 441.03 165.56 429.04 169.58 417.41 174.51 C 415.18 175.27 412.71 176.63 410.37 175.53 C 406.45 173.92 402.63 172.08 398.57 170.86 C 397.38 153.97 395.77 137.10 393.81 120.28 C 394.96 115.57 394.71 110.68 393.74 105.96 L 393.59 105.72 C 393.13 104.99 392.67 104.25 392.22 103.52 C 389.50 103.80 386.79 104.13 384.14 104.80 C 367.79 107.74 352.67 116.24 341.19 128.18 C 327.41 142.18 319.26 161.45 318.43 181.05 C 316.91 209.62 332.17 238.06 356.28 253.29 C 356.47 253.42 356.84 253.67 357.03 253.80 C 356.13 255.24 355.23 256.68 354.34 258.13 C 388.23 280.42 438.34 273.86 464.49 242.54 C 485.59 219.54 492.74 184.56 481.66 155.29 C 480.78 152.48 479.21 149.34 480.52 146.42 C 482.49 142.27 485.41 138.66 488.23 135.06 C 489.62 136.69 490.29 140.03 492.99 139.63 C 501.80 139.40 510.61 138.47 519.44 138.59 C 519.23 140.27 519.02 141.96 518.81 143.64 C 510.43 144.20 502.04 144.53 493.67 145.22 C 496.16 152.16 498.81 159.14 499.76 166.50 C 502.13 183.80 501.35 201.80 495.27 218.29 C 490.62 230.90 483.83 242.85 474.50 252.61 C 472.37 254.79 470.32 257.06 468.27 259.31 C 465.36 261.98 462.19 264.34 459.16 266.87 C 438.38 282.06 411.53 288.73 386.05 284.93 C 356.00 281.13 328.51 262.59 312.99 236.71 C 312.72 236.19 312.18 235.15 311.91 234.63 C 311.08 233.02 310.23 231.41 309.41 229.79 C 307.79 226.47 306.39 223.04 304.87 219.67 C 235.52 222.56 166.25 226.93 96.92 230.19 C 88.62 230.86 80.29 230.89 71.99 231.64 C 63.54 232.29 54.76 231.01 47.33 226.73 C 36.73 220.86 28.85 210.09 27.06 198.05 C 25.70 188.74 26.19 179.31 25.89 169.95 C 25.34 160.18 25.22 150.39 24.70 140.63 C 24.43 138.42 24.41 136.18 24.84 133.99 C 33.58 134.25 42.28 133.14 51.01 132.89 C 136.35 128.13 221.72 124.04 307.07 119.40 C 312.02 118.85 317.01 119.02 321.98 119.15 C 319.06 125.25 314.53 130.38 311.43 136.38 C 303.25 151.51 298.66 168.74 299.07 185.98 C 299.17 188.05 298.99 190.73 301.19 191.82 C 304.80 194.03 308.75 195.90 312.94 196.67 C 313.58 191.46 312.45 186.24 312.68 181.03 C 313.34 151.41 330.97 123.23 356.66 108.77 M 444.50 128.40 C 443.17 130.11 441.75 131.99 441.96 134.30 C 445.82 132.29 449.17 128.85 450.29 124.56 C 447.70 124.52 445.99 126.59 444.50 128.40 M 201.68 152.69 C 201.49 166.81 203.13 180.86 203.15 194.97 C 209.34 195.00 215.54 194.65 221.70 194.10 C 221.66 192.10 221.63 190.11 221.63 188.11 C 217.73 187.90 213.83 188.13 209.94 188.45 C 209.70 184.40 209.55 180.35 209.60 176.29 C 212.54 176.20 215.47 176.04 218.41 175.94 C 218.28 173.94 218.15 171.94 218.02 169.94 C 215.03 170.02 212.03 170.01 209.04 170.00 C 208.99 166.25 208.72 162.51 208.59 158.76 C 212.31 158.49 216.04 158.42 219.78 158.45 C 219.79 156.32 219.77 154.19 219.76 152.06 C 213.72 151.86 207.72 152.87 201.68 152.69 M 222.04 152.07 C 222.15 166.20 223.54 180.30 223.75 194.43 C 228.34 194.60 232.96 194.29 237.50 193.66 C 241.44 192.82 243.98 188.92 243.92 185.02 C 243.94 176.98 243.12 168.97 242.90 160.94 C 242.74 156.98 240.18 152.83 236.07 152.12 C 231.40 151.82 226.71 152.07 222.04 152.07 M 179.67 153.97 C 179.70 155.97 179.73 157.98 179.75 160.00 C 182.12 159.99 184.49 160.00 186.85 160.00 C 186.81 171.94 188.09 183.83 188.18 195.77 C 190.43 195.73 192.68 195.68 194.93 195.66 C 195.18 183.59 193.76 171.56 193.58 159.49 C 195.74 159.42 197.95 159.69 200.09 159.20 C 200.19 157.13 200.07 155.06 199.99 153.00 C 193.21 153.04 186.45 153.70 179.67 153.97 M 171.66 154.01 C 171.50 168.19 173.04 182.32 173.20 196.50 C 175.44 196.52 177.67 196.54 179.91 196.59 C 180.25 189.08 179.58 181.57 179.11 174.08 C 178.87 167.39 178.76 160.67 178.07 154.00 C 175.93 154.00 173.79 154.01 171.66 154.01 M 155.45 183.23 C 153.80 173.98 151.61 164.84 149.80 155.63 C 146.70 155.56 143.60 155.60 140.50 155.66 C 140.50 169.79 142.00 183.86 142.03 197.99 C 144.02 197.99 146.01 197.99 148.00 198.00 C 148.50 189.20 146.89 180.42 147.44 171.66 C 149.47 180.29 150.87 189.08 153.18 197.65 C 155.26 197.56 157.34 197.49 159.42 197.42 C 160.59 188.21 161.03 178.92 162.51 169.76 C 162.90 178.79 163.37 187.83 163.62 196.86 C 165.75 196.95 167.88 197.00 170.02 197.02 C 170.07 182.85 168.66 168.72 168.37 154.55 C 165.19 154.60 162.01 154.78 158.83 155.05 C 157.49 164.42 157.49 173.98 155.45 183.23 M 130.63 156.00 C 130.33 170.14 132.34 184.22 131.84 198.35 C 134.22 198.49 136.61 198.54 139.00 198.55 C 139.14 192.68 138.68 186.84 138.43 180.99 C 137.75 172.67 137.99 164.30 137.04 156.01 C 134.90 156.00 132.76 156.00 130.63 156.00 M 112.00 157.01 C 112.07 171.20 113.41 185.36 113.74 199.55 C 119.61 199.56 125.45 198.73 131.32 199.00 C 131.29 196.87 131.28 194.75 131.26 192.64 C 127.59 192.60 123.92 192.79 120.26 192.97 C 119.95 180.97 119.29 168.99 118.64 157.00 C 116.42 157.00 114.21 157.00 112.00 157.01 Z" />
<path fill="#2757a2" opacity="1.00" d=" M 506.45 101.56 C 510.43 99.96 515.60 101.86 517.05 106.03 C 517.59 108.87 517.78 112.29 515.70 114.58 C 512.31 118.49 505.20 117.92 502.52 113.46 C 499.81 109.40 502.03 103.34 506.45 101.56 M 507.29 103.39 C 504.11 104.92 501.86 109.48 504.48 112.48 C 506.87 116.64 513.85 115.70 515.26 111.21 C 517.37 106.65 511.70 101.52 507.29 103.39 Z" />
<path fill="#ffffff" opacity="1.00" d=" M 384.14 104.80 C 386.79 104.13 389.50 103.80 392.22 103.52 C 392.67 104.25 393.13 104.99 393.59 105.72 C 393.19 105.69 392.38 105.61 391.98 105.58 C 391.27 110.55 390.94 115.88 393.81 120.28 C 395.77 137.10 397.38 153.97 398.57 170.86 C 395.46 172.11 391.94 173.18 389.85 175.98 C 388.05 178.66 387.44 181.92 385.71 184.64 C 384.23 186.94 382.79 189.29 381.68 191.80 C 383.75 192.22 385.85 192.56 387.90 193.10 C 391.80 194.11 394.92 197.19 399.01 197.61 C 404.06 198.06 409.55 195.40 411.60 190.61 C 412.69 187.93 413.18 185.06 414.02 182.29 C 428.63 176.77 443.16 171.05 457.80 165.61 C 460.52 164.79 462.83 162.91 463.31 159.98 C 467.59 158.29 471.90 156.68 476.23 155.11 C 482.64 171.15 483.54 189.32 478.87 205.94 C 473.54 225.46 460.74 242.82 443.62 253.61 C 417.94 270.15 382.69 270.56 357.03 253.80 C 356.84 253.67 356.47 253.42 356.28 253.29 C 355.59 250.39 354.36 247.66 352.66 245.21 C 355.29 241.77 358.05 238.32 359.35 234.12 C 355.52 235.25 352.81 238.22 350.13 240.98 C 347.73 234.57 343.76 228.87 341.57 222.37 C 337.68 212.75 337.17 202.32 335.30 192.23 C 335.19 191.25 335.13 190.26 335.07 189.28 C 332.51 189.25 329.95 189.25 327.40 189.34 C 330.07 188.45 332.86 188.03 335.67 187.85 C 336.73 172.73 339.71 157.32 347.67 144.19 C 348.40 142.94 349.16 141.70 349.91 140.46 C 355.47 131.18 361.76 122.02 370.59 115.55 C 375.29 112.19 379.82 108.62 384.14 104.80 M 465.61 176.44 C 465.54 177.58 465.48 178.72 465.44 179.86 C 469.60 179.89 473.79 179.63 477.85 178.63 C 478.49 177.38 477.57 175.39 476.02 175.57 C 472.53 175.46 469.06 176.06 465.61 176.44 M 449.72 227.72 C 452.95 230.94 456.31 234.76 461.19 235.08 C 459.83 230.15 455.29 227.42 451.13 225.06 C 450.65 225.94 450.17 226.82 449.72 227.72 M 405.00 249.24 C 404.68 253.15 404.67 257.12 405.42 261.00 C 405.52 262.79 407.83 261.86 408.97 262.23 C 408.84 258.23 408.80 254.19 407.94 250.27 C 407.21 250.01 405.74 249.49 405.00 249.24 Z" />
<path fill="#01c08e" opacity="1.00" d=" M 194.30 109.42 C 219.50 108.23 244.69 106.80 269.89 105.51 C 274.86 104.92 279.87 105.09 284.87 105.10 C 285.25 106.15 285.64 107.20 286.03 108.25 C 283.49 109.38 280.89 110.59 278.06 110.63 C 259.69 111.14 241.35 112.39 223.00 113.22 C 214.36 113.96 205.67 113.85 197.07 114.90 C 196.49 114.96 195.33 115.09 194.75 115.15 C 194.61 113.24 194.45 111.33 194.30 109.42 Z" />
<path fill="#e5e5e5" opacity="1.00" d=" M 341.19 128.18 C 352.67 116.24 367.79 107.74 384.14 104.80 C 379.82 108.62 375.29 112.19 370.59 115.55 C 361.76 122.02 355.47 131.18 349.91 140.46 C 346.58 137.65 343.04 134.94 338.75 133.80 C 340.56 138.15 344.18 141.22 347.67 144.19 C 339.71 157.32 336.73 172.73 335.67 187.85 C 332.86 188.03 330.07 188.45 327.40 189.34 C 325.61 189.68 323.81 189.96 322.02 190.23 C 322.27 191.34 322.54 192.45 322.80 193.57 C 326.97 193.20 331.16 192.88 335.30 192.23 C 337.17 202.32 337.68 212.75 341.57 222.37 C 343.76 228.87 347.73 234.57 350.13 240.98 C 350.10 241.76 350.05 243.33 350.03 244.12 C 350.90 244.49 351.78 244.85 352.66 245.21 C 354.36 247.66 355.59 250.39 356.28 253.29 C 332.17 238.06 316.91 209.62 318.43 181.05 C 319.26 161.45 327.41 142.18 341.19 128.18 Z" />
<path fill="#000000" opacity="1.00" d=" M 391.98 105.58 C 392.38 105.61 393.19 105.69 393.59 105.72 L 393.74 105.96 C 394.71 110.68 394.96 115.57 393.81 120.28 C 390.94 115.88 391.27 110.55 391.98 105.58 Z" />
<path fill="#efe9ea" opacity="1.00" d=" M 278.06 110.63 C 280.89 110.59 283.49 109.38 286.03 108.25 L 287.22 107.74 C 286.54 111.03 283.36 113.25 280.05 112.94 C 267.34 112.87 254.73 114.80 242.04 114.94 C 234.00 114.91 226.03 116.21 217.99 116.11 C 211.05 116.15 203.37 118.95 197.07 114.90 C 205.67 113.85 214.36 113.96 223.00 113.22 C 241.35 112.39 259.69 111.14 278.06 110.63 Z" />
<path fill="#01c08e" opacity="1.00" d=" M 735.05 112.18 C 740.71 110.82 747.08 116.13 746.05 122.05 C 746.24 130.37 733.58 133.18 729.38 126.54 C 725.79 121.39 728.78 113.33 735.05 112.18 Z" />
<path fill="#01c08e" opacity="1.00" d=" M 561.16 119.20 C 564.07 118.18 567.72 119.72 568.16 122.99 C 569.38 127.19 563.92 130.74 560.45 128.35 C 557.12 126.30 557.69 120.80 561.16 119.20 Z" />
<path fill="#0c0026" opacity="1.00" d=" M 444.50 128.40 C 445.99 126.59 447.70 124.52 450.29 124.56 C 449.17 128.85 445.82 132.29 441.96 134.30 C 441.75 131.99 443.17 130.11 444.50 128.40 Z" />
<path fill="#2959a3" opacity="1.00" d=" M 621.97 135.63 C 642.75 134.36 663.57 133.53 684.35 132.15 C 684.23 133.96 684.12 135.77 684.05 137.59 C 647.02 140.20 609.88 141.19 572.84 143.77 C 571.65 143.87 570.46 143.96 569.28 144.06 C 569.29 142.05 569.29 140.05 569.29 138.04 C 586.87 137.72 604.40 136.28 621.97 135.63 Z" />
<path fill="#030303" opacity="1.00" d=" M 338.75 133.80 C 343.04 134.94 346.58 137.65 349.91 140.46 C 349.16 141.70 348.40 142.94 347.67 144.19 C 344.18 141.22 340.56 138.15 338.75 133.80 Z" />
<path fill="#f7e8fa" opacity="1.00" d=" M 684.05 137.59 C 684.97 137.71 685.35 138.50 685.19 139.98 C 675.81 140.86 666.40 141.05 657.03 141.93 C 635.67 142.25 614.39 144.06 593.07 145.05 C 586.50 144.93 579.95 146.80 573.40 145.70 C 573.26 145.22 572.98 144.25 572.84 143.77 C 609.88 141.19 647.02 140.20 684.05 137.59 Z" />
<path fill="#e5e5e5" opacity="1.00" d=" M 24.70 140.63 C 25.22 150.39 25.34 160.18 25.89 169.95 C 26.19 179.31 25.70 188.74 27.06 198.05 C 28.85 210.09 36.73 220.86 47.33 226.73 C 54.76 231.01 63.54 232.29 71.99 231.64 C 80.29 230.89 88.62 230.86 96.92 230.19 C 166.25 226.93 235.52 222.56 304.87 219.67 C 306.39 223.04 307.79 226.47 309.41 229.79 C 293.39 230.01 277.41 231.45 261.40 231.92 C 245.23 232.10 229.12 233.76 212.96 234.28 C 169.99 236.60 127.00 238.61 84.03 241.00 C 73.68 241.53 63.32 242.31 52.96 241.94 C 33.84 240.76 17.12 223.90 16.47 204.68 C 16.36 194.11 15.11 183.59 15.35 173.02 C 15.29 163.64 14.19 154.26 14.88 144.88 C 17.93 144.47 21.01 144.26 24.09 144.15 C 24.25 143.27 24.55 141.51 24.70 140.63 Z" />
<path fill="#ffffff" opacity="1.00" d=" M 201.68 152.69 C 207.72 152.87 213.72 151.86 219.76 152.06 C 219.77 154.19 219.79 156.32 219.78 158.45 C 216.04 158.42 212.31 158.49 208.59 158.76 C 208.72 162.51 208.99 166.25 209.04 170.00 C 212.03 170.01 215.03 170.02 218.02 169.94 C 218.15 171.94 218.28 173.94 218.41 175.94 C 215.47 176.04 212.54 176.20 209.60 176.29 C 209.55 180.35 209.70 184.40 209.94 188.45 C 213.83 188.13 217.73 187.90 221.63 188.11 C 221.63 190.11 221.66 192.10 221.70 194.10 C 215.54 194.65 209.34 195.00 203.15 194.97 C 203.13 180.86 201.49 166.81 201.68 152.69 Z" />
<path fill="#ffffff" opacity="1.00" d=" M 222.04 152.07 C 226.71 152.07 231.40 151.82 236.07 152.12 C 240.18 152.83 242.74 156.98 242.90 160.94 C 243.12 168.97 243.94 176.98 243.92 185.02 C 243.98 188.92 241.44 192.82 237.50 193.66 C 232.96 194.29 228.34 194.60 223.75 194.43 C 223.54 180.30 222.15 166.20 222.04 152.07 M 229.03 157.99 C 229.28 168.01 230.16 178.00 230.21 188.03 C 232.48 187.86 235.81 188.63 236.97 186.03 C 237.19 177.67 236.49 169.28 235.97 160.94 C 235.82 157.30 231.55 157.96 229.03 157.99 Z" />
<path fill="#ffffff" opacity="1.00" d=" M 179.67 153.97 C 186.45 153.70 193.21 153.04 199.99 153.00 C 200.07 155.06 200.19 157.13 200.09 159.20 C 197.95 159.69 195.74 159.42 193.58 159.49 C 193.76 171.56 195.18 183.59 194.93 195.66 C 192.68 195.68 190.43 195.73 188.18 195.77 C 188.09 183.83 186.81 171.94 186.85 160.00 C 184.49 160.00 182.12 159.99 179.75 160.00 C 179.73 157.98 179.70 155.97 179.67 153.97 Z" />
<path fill="#ffffff" opacity="1.00" d=" M 171.66 154.01 C 173.79 154.01 175.93 154.00 178.07 154.00 C 178.76 160.67 178.87 167.39 179.11 174.08 C 179.58 181.57 180.25 189.08 179.91 196.59 C 177.67 196.54 175.44 196.52 173.20 196.50 C 173.04 182.32 171.50 168.19 171.66 154.01 Z" />
<path fill="#01c08e" opacity="1.00" d=" M 702.96 154.65 C 709.02 154.32 715.08 153.66 721.16 154.06 C 722.17 156.32 721.86 158.90 722.11 161.31 C 723.05 175.81 724.25 190.29 725.27 204.79 C 725.86 211.19 725.99 217.81 724.01 224.00 C 720.60 234.50 711.61 243.03 700.87 245.65 C 696.33 246.76 691.65 246.81 687.02 247.03 C 631.01 250.36 574.99 253.41 518.98 256.75 C 502.07 257.42 485.19 259.10 468.27 259.31 C 470.32 257.06 472.37 254.79 474.50 252.61 C 483.83 242.85 490.62 230.90 495.27 218.29 C 501.35 201.80 502.13 183.80 499.76 166.50 C 512.44 165.09 525.21 164.77 537.94 164.01 C 592.93 160.72 647.96 157.82 702.96 154.65 M 692.93 180.99 C 689.98 184.17 689.92 189.00 690.89 192.99 C 692.28 198.06 696.79 201.19 700.54 204.48 C 703.25 206.71 705.13 210.37 703.91 213.88 C 702.98 215.57 700.78 215.35 699.21 214.95 C 697.32 213.45 698.00 210.72 697.55 208.65 C 695.32 208.65 693.10 208.66 690.88 208.68 C 691.12 212.47 691.44 216.82 694.42 219.57 C 697.91 222.49 703.30 222.32 707.15 220.21 C 711.65 217.36 711.81 211.17 710.45 206.58 C 708.41 200.37 701.86 197.66 698.31 192.56 C 696.80 190.28 697.17 187.44 697.97 184.98 C 699.48 184.99 701.16 184.52 702.53 185.42 C 703.42 187.01 703.47 188.89 703.79 190.65 C 705.88 190.46 707.99 190.25 710.10 190.02 C 710.18 185.91 709.02 180.90 704.82 179.16 C 700.93 177.88 696.04 178.05 692.93 180.99 M 651.01 181.17 C 647.08 182.70 645.34 187.07 645.62 191.06 C 646.09 198.85 646.14 206.66 646.70 214.45 C 647.01 218.11 649.01 222.13 652.80 223.18 C 657.15 224.52 662.81 223.58 665.28 219.39 C 667.35 215.56 666.43 211.06 666.32 206.92 C 664.20 206.95 662.10 206.99 659.99 207.02 C 659.97 209.94 660.18 212.88 659.84 215.78 C 658.94 217.58 656.68 217.28 655.05 216.97 C 653.60 215.81 653.59 213.76 653.43 212.08 C 653.15 204.73 652.96 197.37 652.43 190.04 C 652.35 187.27 655.44 185.86 657.70 187.16 C 659.75 189.23 658.89 192.41 659.15 195.03 C 661.36 195.00 663.59 194.95 665.81 194.84 C 665.51 190.87 665.89 186.23 662.88 183.15 C 659.95 179.84 654.90 179.92 651.01 181.17 M 668.01 179.98 C 667.75 194.21 669.47 208.38 669.48 222.61 C 671.79 222.60 674.11 222.59 676.43 222.57 C 676.92 216.96 674.76 211.01 677.40 205.73 C 680.36 210.94 682.20 216.71 684.95 222.05 C 687.22 221.88 689.50 221.73 691.79 221.58 C 688.92 214.76 685.76 208.06 682.73 201.31 C 682.15 200.00 681.47 198.48 682.22 197.08 C 684.66 191.15 687.47 185.37 689.73 179.36 C 687.47 179.44 685.22 179.51 682.98 179.59 C 680.30 185.43 678.45 191.67 675.30 197.29 C 674.88 191.58 675.12 185.85 674.68 180.15 C 672.45 180.04 670.22 180.00 668.01 179.98 M 628.12 182.04 C 626.62 196.26 625.01 210.46 623.34 224.66 C 625.48 224.64 627.62 224.63 629.77 224.62 C 630.04 222.03 630.26 219.43 630.36 216.83 C 633.00 216.63 635.65 216.54 638.30 216.51 C 638.88 219.00 639.41 221.50 639.99 223.99 C 642.29 223.88 644.59 223.78 646.90 223.69 C 643.83 209.71 641.12 195.65 638.02 181.67 C 634.71 181.82 631.41 182.00 628.12 182.04 M 600.29 183.06 C 600.51 197.30 601.69 211.51 602.11 225.74 C 606.43 225.58 610.77 225.40 615.08 224.85 C 618.96 224.42 622.21 220.91 622.28 216.99 C 622.62 211.76 622.58 205.30 617.47 202.27 C 621.32 198.99 621.28 193.42 620.14 188.91 C 619.50 185.63 616.36 182.95 613.00 183.01 C 608.76 182.93 604.52 183.02 600.29 183.06 M 590.26 184.11 C 590.22 190.07 591.10 195.99 591.03 201.96 C 588.68 202.16 586.33 202.40 583.99 202.67 C 583.59 196.65 583.30 190.64 582.98 184.62 C 580.76 184.62 578.54 184.62 576.33 184.63 C 576.35 198.78 577.82 212.90 577.99 227.05 C 580.32 227.04 582.66 227.04 585.00 227.03 C 585.13 220.96 584.16 214.94 584.23 208.87 C 586.58 208.68 588.94 208.58 591.31 208.51 C 591.63 214.45 592.15 220.39 592.08 226.35 C 594.43 226.39 596.78 226.29 599.13 226.08 C 598.89 212.10 597.68 198.14 597.40 184.16 C 595.02 184.00 592.63 183.99 590.26 184.11 M 557.99 186.97 C 554.40 189.82 554.58 194.92 555.17 199.02 C 556.44 204.60 561.54 207.84 565.46 211.49 C 567.78 213.62 569.67 217.14 568.28 220.27 C 567.63 221.99 565.50 222.02 564.00 221.69 C 561.71 220.28 562.24 217.27 561.90 215.00 C 559.66 215.03 557.43 215.08 555.21 215.17 C 555.67 219.60 556.07 225.21 560.71 227.33 C 565.38 229.08 572.08 228.43 574.54 223.45 C 576.56 218.61 575.78 212.58 572.29 208.60 C 569.30 204.99 564.96 202.63 562.45 198.62 C 561.31 196.06 560.99 191.13 564.88 191.11 C 567.85 191.38 568.04 194.72 568.15 197.02 C 570.19 196.97 572.24 196.90 574.29 196.84 C 574.40 194.15 574.36 191.29 572.84 188.96 C 569.88 183.98 562.34 183.80 557.99 186.97 M 537.25 186.61 C 535.23 200.68 534.24 214.90 532.20 228.97 C 534.40 229.02 536.60 229.03 538.81 229.01 C 539.00 226.38 539.20 223.75 539.36 221.12 C 542.00 221.04 544.64 221.01 547.28 220.99 C 547.84 223.45 548.32 225.93 548.83 228.41 C 551.18 228.34 553.53 228.21 555.88 228.05 C 552.64 214.12 550.13 200.02 546.89 186.08 C 543.67 186.26 540.46 186.50 537.25 186.61 M 515.08 188.16 C 511.41 189.88 510.34 194.31 510.52 198.03 C 511.08 205.66 511.04 213.32 511.60 220.95 C 511.95 224.49 513.72 228.32 517.29 229.59 C 521.51 230.71 526.95 230.46 529.75 226.60 C 532.41 222.70 531.39 217.66 531.07 213.26 C 529.01 213.42 526.96 213.57 524.90 213.73 C 524.92 216.46 525.11 219.20 524.86 221.93 C 523.85 224.77 518.82 224.44 518.67 221.23 C 517.86 214.85 518.23 208.36 517.67 201.94 C 517.56 199.36 516.73 196.56 518.12 194.17 C 519.27 193.29 520.95 192.54 522.25 193.62 C 524.90 195.36 523.77 199.06 524.23 201.73 C 526.39 201.60 528.55 201.45 530.71 201.27 C 530.42 197.60 530.75 193.51 528.44 190.39 C 525.46 186.31 519.30 186.07 515.08 188.16 Z" />
<path fill="#ffffff" opacity="1.00" d=" M 155.45 183.23 C 157.49 173.98 157.49 164.42 158.83 155.05 C 162.01 154.78 165.19 154.60 168.37 154.55 C 168.66 168.72 170.07 182.85 170.02 197.02 C 167.88 197.00 165.75 196.95 163.62 196.86 C 163.37 187.83 162.90 178.79 162.51 169.76 C 161.03 178.92 160.59 188.21 159.42 197.42 C 157.34 197.49 155.26 197.56 153.18 197.65 C 150.87 189.08 149.47 180.29 147.44 171.66 C 146.89 180.42 148.50 189.20 148.00 198.00 C 146.01 197.99 144.02 197.99 142.03 197.99 C 142.00 183.86 140.50 169.79 140.50 155.66 C 143.60 155.60 146.70 155.56 149.80 155.63 C 151.61 164.84 153.80 173.98 155.45 183.23 Z" />
<path fill="#ffffff" opacity="1.00" d=" M 130.63 156.00 C 132.76 156.00 134.90 156.00 137.04 156.01 C 137.99 164.30 137.75 172.67 138.43 180.99 C 138.68 186.84 139.14 192.68 139.00 198.55 C 136.61 198.54 134.22 198.49 131.84 198.35 C 132.34 184.22 130.33 170.14 130.63 156.00 Z" />
<path fill="#ffffff" opacity="1.00" d=" M 112.00 157.01 C 114.21 157.00 116.42 157.00 118.64 157.00 C 119.29 168.99 119.95 180.97 120.26 192.97 C 123.92 192.79 127.59 192.60 131.26 192.64 C 131.28 194.75 131.29 196.87 131.32 199.00 C 125.45 198.73 119.61 199.56 113.74 199.55 C 113.41 185.36 112.07 171.20 112.00 157.01 Z" />
<path fill="#2959a3" opacity="1.00" d=" M 229.03 157.99 C 231.55 157.96 235.82 157.30 235.97 160.94 C 236.49 169.28 237.19 177.67 236.97 186.03 C 235.81 188.63 232.48 187.86 230.21 188.03 C 230.16 178.00 229.28 168.01 229.03 157.99 Z" />
<path fill="#040206" opacity="1.00" d=" M 452.69 160.69 C 455.99 159.23 459.59 158.73 463.17 158.62 L 463.31 159.98 C 462.83 162.91 460.52 164.79 457.80 165.61 C 443.16 171.05 428.63 176.77 414.02 182.29 C 413.18 185.06 412.69 187.93 411.60 190.61 C 409.55 195.40 404.06 198.06 399.01 197.61 C 394.92 197.19 391.80 194.11 387.90 193.10 C 385.85 192.56 383.75 192.22 381.68 191.80 C 382.79 189.29 384.23 186.94 385.71 184.64 C 387.44 181.92 388.05 178.66 389.85 175.98 C 391.94 173.18 395.46 172.11 398.57 170.86 C 402.63 172.08 406.45 173.92 410.37 175.53 C 412.71 176.63 415.18 175.27 417.41 174.51 C 429.04 169.58 441.03 165.56 452.69 160.69 M 396.23 175.18 C 392.50 176.88 389.59 180.84 390.03 185.06 C 390.28 190.43 395.48 195.02 400.87 194.44 C 406.06 194.13 410.29 189.13 409.92 183.99 C 409.89 177.43 402.26 172.41 396.23 175.18 Z" />
<path fill="#e6e5e8" opacity="1.00" d=" M 722.11 161.31 C 724.36 161.52 726.61 161.72 728.87 161.91 C 730.14 167.86 730.26 173.96 730.76 180.00 C 731.47 191.00 732.24 201.99 733.08 212.98 C 733.27 219.22 733.96 225.74 731.72 231.72 C 728.46 240.88 721.19 248.48 712.18 252.13 C 706.44 254.48 700.13 254.27 694.06 254.75 C 680.00 255.10 666.02 256.90 651.96 257.02 C 640.33 257.68 628.72 258.89 617.06 259.06 C 568.26 261.93 519.45 264.50 470.66 267.54 C 466.84 267.65 462.71 268.74 459.16 266.87 C 462.19 264.34 465.36 261.98 468.27 259.31 C 485.19 259.10 502.07 257.42 518.98 256.75 C 574.99 253.41 631.01 250.36 687.02 247.03 C 691.65 246.81 696.33 246.76 700.87 245.65 C 711.61 243.03 720.60 234.50 724.01 224.00 C 725.99 217.81 725.86 211.19 725.27 204.79 C 724.25 190.29 723.05 175.81 722.11 161.31 Z" />
<path fill="#fdfdfd" opacity="1.00" d=" M 396.23 175.18 C 402.26 172.41 409.89 177.43 409.92 183.99 C 410.29 189.13 406.06 194.13 400.87 194.44 C 395.48 195.02 390.28 190.43 390.03 185.06 C 389.59 180.84 392.50 176.88 396.23 175.18 Z" />
<path fill="#000000" opacity="1.00" d=" M 465.61 176.44 C 469.06 176.06 472.53 175.46 476.02 175.57 C 477.57 175.39 478.49 177.38 477.85 178.63 C 473.79 179.63 469.60 179.89 465.44 179.86 C 465.48 178.72 465.54 177.58 465.61 176.44 Z" />
<path fill="#ffffff" opacity="1.00" d=" M 692.93 180.99 C 696.04 178.05 700.93 177.88 704.82 179.16 C 709.02 180.90 710.18 185.91 710.10 190.02 C 707.99 190.25 705.88 190.46 703.79 190.65 C 703.47 188.89 703.42 187.01 702.53 185.42 C 701.16 184.52 699.48 184.99 697.97 184.98 C 697.17 187.44 696.80 190.28 698.31 192.56 C 701.86 197.66 708.41 200.37 710.45 206.58 C 711.81 211.17 711.65 217.36 707.15 220.21 C 703.30 222.32 697.91 222.49 694.42 219.57 C 691.44 216.82 691.12 212.47 690.88 208.68 C 693.10 208.66 695.32 208.65 697.55 208.65 C 698.00 210.72 697.32 213.45 699.21 214.95 C 700.78 215.35 702.98 215.57 703.91 213.88 C 705.13 210.37 703.25 206.71 700.54 204.48 C 696.79 201.19 692.28 198.06 690.89 192.99 C 689.92 189.00 689.98 184.17 692.93 180.99 Z" />
<path fill="#ffffff" opacity="1.00" d=" M 651.01 181.17 C 654.90 179.92 659.95 179.84 662.88 183.15 C 665.89 186.23 665.51 190.87 665.81 194.84 C 663.59 194.95 661.36 195.00 659.15 195.03 C 658.89 192.41 659.75 189.23 657.70 187.16 C 655.44 185.86 652.35 187.27 652.43 190.04 C 652.96 197.37 653.15 204.73 653.43 212.08 C 653.59 213.76 653.60 215.81 655.05 216.97 C 656.68 217.28 658.94 217.58 659.84 215.78 C 660.18 212.88 659.97 209.94 659.99 207.02 C 662.10 206.99 664.20 206.95 666.32 206.92 C 666.43 211.06 667.35 215.56 665.28 219.39 C 662.81 223.58 657.15 224.52 652.80 223.18 C 649.01 222.13 647.01 218.11 646.70 214.45 C 646.14 206.66 646.09 198.85 645.62 191.06 C 645.34 187.07 647.08 182.70 651.01 181.17 Z" />
<path fill="#ffffff" opacity="1.00" d=" M 668.01 179.98 C 670.22 180.00 672.45 180.04 674.68 180.15 C 675.12 185.85 674.88 191.58 675.30 197.29 C 678.45 191.67 680.30 185.43 682.98 179.59 C 685.22 179.51 687.47 179.44 689.73 179.36 C 687.47 185.37 684.66 191.15 682.22 197.08 C 681.47 198.48 682.15 200.00 682.73 201.31 C 685.76 208.06 688.92 214.76 691.79 221.58 C 689.50 221.73 687.22 221.88 684.95 222.05 C 682.20 216.71 680.36 210.94 677.40 205.73 C 674.76 211.01 676.92 216.96 676.43 222.57 C 674.11 222.59 671.79 222.60 669.48 222.61 C 669.47 208.38 667.75 194.21 668.01 179.98 Z" />
<path fill="#ffffff" opacity="1.00" d=" M 628.12 182.04 C 631.41 182.00 634.71 181.82 638.02 181.67 C 641.12 195.65 643.83 209.71 646.90 223.69 C 644.59 223.78 642.29 223.88 639.99 223.99 C 639.41 221.50 638.88 219.00 638.30 216.51 C 635.65 216.54 633.00 216.63 630.36 216.83 C 630.26 219.43 630.04 222.03 629.77 224.62 C 627.62 224.63 625.48 224.64 623.34 224.66 C 625.01 210.46 626.62 196.26 628.12 182.04 M 633.38 190.86 C 632.13 197.43 631.79 204.13 631.14 210.78 C 633.12 210.75 635.11 210.72 637.10 210.70 C 636.18 204.03 634.59 197.48 633.38 190.86 Z" />
<path fill="#ffffff" opacity="1.00" d=" M 600.29 183.06 C 604.52 183.02 608.76 182.93 613.00 183.01 C 616.36 182.95 619.50 185.63 620.14 188.91 C 621.28 193.42 621.32 198.99 617.47 202.27 C 622.58 205.30 622.62 211.76 622.28 216.99 C 622.21 220.91 618.96 224.42 615.08 224.85 C 610.77 225.40 606.43 225.58 602.11 225.74 C 601.69 211.51 600.51 197.30 600.29 183.06 M 607.32 188.88 C 607.29 192.68 607.61 196.47 607.91 200.26 C 609.99 200.01 612.85 200.35 613.79 197.93 C 614.18 195.35 614.36 192.42 612.93 190.10 C 611.58 188.43 609.14 189.24 607.32 188.88 M 608.03 206.10 C 608.11 210.37 608.48 214.63 608.49 218.91 C 610.64 218.87 613.22 219.54 614.97 217.90 C 616.09 214.78 615.50 211.30 614.86 208.14 C 613.57 205.57 610.35 206.25 608.03 206.10 Z" />
<path fill="#ffffff" opacity="1.00" d=" M 590.26 184.11 C 592.63 183.99 595.02 184.00 597.40 184.16 C 597.68 198.14 598.89 212.10 599.13 226.08 C 596.78 226.29 594.43 226.39 592.08 226.35 C 592.15 220.39 591.63 214.45 591.31 208.51 C 588.94 208.58 586.58 208.68 584.23 208.87 C 584.16 214.94 585.13 220.96 585.00 227.03 C 582.66 227.04 580.32 227.04 577.99 227.05 C 577.82 212.90 576.35 198.78 576.33 184.63 C 578.54 184.62 580.76 184.62 582.98 184.62 C 583.30 190.64 583.59 196.65 583.99 202.67 C 586.33 202.40 588.68 202.16 591.03 201.96 C 591.10 195.99 590.22 190.07 590.26 184.11 Z" />
<path fill="#ffffff" opacity="1.00" d=" M 557.99 186.97 C 562.34 183.80 569.88 183.98 572.84 188.96 C 574.36 191.29 574.40 194.15 574.29 196.84 C 572.24 196.90 570.19 196.97 568.15 197.02 C 568.04 194.72 567.85 191.38 564.88 191.11 C 560.99 191.13 561.31 196.06 562.45 198.62 C 564.96 202.63 569.30 204.99 572.29 208.60 C 575.78 212.58 576.56 218.61 574.54 223.45 C 572.08 228.43 565.38 229.08 560.71 227.33 C 556.07 225.21 555.67 219.60 555.21 215.17 C 557.43 215.08 559.66 215.03 561.90 215.00 C 562.24 217.27 561.71 220.28 564.00 221.69 C 565.50 222.02 567.63 221.99 568.28 220.27 C 569.67 217.14 567.78 213.62 565.46 211.49 C 561.54 207.84 556.44 204.60 555.17 199.02 C 554.58 194.92 554.40 189.82 557.99 186.97 Z" />
<path fill="#ffffff" opacity="1.00" d=" M 537.25 186.61 C 540.46 186.50 543.67 186.26 546.89 186.08 C 550.13 200.02 552.64 214.12 555.88 228.05 C 553.53 228.21 551.18 228.34 548.83 228.41 C 548.32 225.93 547.84 223.45 547.28 220.99 C 544.64 221.01 542.00 221.04 539.36 221.12 C 539.20 223.75 539.00 226.38 538.81 229.01 C 536.60 229.03 534.40 229.02 532.20 228.97 C 534.24 214.90 535.23 200.68 537.25 186.61 M 542.30 195.78 C 540.97 202.17 540.81 208.73 540.03 215.21 C 542.09 215.15 544.16 215.09 546.23 215.03 C 544.81 208.63 543.83 202.15 542.30 195.78 Z" />
<path fill="#ffffff" opacity="1.00" d=" M 515.08 188.16 C 519.30 186.07 525.46 186.31 528.44 190.39 C 530.75 193.51 530.42 197.60 530.71 201.27 C 528.55 201.45 526.39 201.60 524.23 201.73 C 523.77 199.06 524.90 195.36 522.25 193.62 C 520.95 192.54 519.27 193.29 518.12 194.17 C 516.73 196.56 517.56 199.36 517.67 201.94 C 518.23 208.36 517.86 214.85 518.67 221.23 C 518.82 224.44 523.85 224.77 524.86 221.93 C 525.11 219.20 524.92 216.46 524.90 213.73 C 526.96 213.57 529.01 213.42 531.07 213.26 C 531.39 217.66 532.41 222.70 529.75 226.60 C 526.95 230.46 521.51 230.71 517.29 229.59 C 513.72 228.32 511.95 224.49 511.60 220.95 C 511.04 213.32 511.08 205.66 510.52 198.03 C 510.34 194.31 511.41 189.88 515.08 188.16 Z" />
<path fill="#000000" opacity="1.00" d=" M 322.02 190.23 C 323.81 189.96 325.61 189.68 327.40 189.34 C 329.95 189.25 332.51 189.25 335.07 189.28 C 335.13 190.26 335.19 191.25 335.30 192.23 C 331.16 192.88 326.97 193.20 322.80 193.57 C 322.54 192.45 322.27 191.34 322.02 190.23 Z" />
<path fill="#01c08e" opacity="1.00" d=" M 607.32 188.88 C 609.14 189.24 611.58 188.43 612.93 190.10 C 614.36 192.42 614.18 195.35 613.79 197.93 C 612.85 200.35 609.99 200.01 607.91 200.26 C 607.61 196.47 607.29 192.68 607.32 188.88 Z" />
<path fill="#00bf8d" opacity="1.00" d=" M 633.38 190.86 C 634.59 197.48 636.18 204.03 637.10 210.70 C 635.11 210.72 633.12 210.75 631.14 210.78 C 631.79 204.13 632.13 197.43 633.38 190.86 Z" />
<path fill="#00bf8d" opacity="1.00" d=" M 542.30 195.78 C 543.83 202.15 544.81 208.63 546.23 215.03 C 544.16 215.09 542.09 215.15 540.03 215.21 C 540.81 208.73 540.97 202.17 542.30 195.78 Z" />
<path fill="#01c08e" opacity="1.00" d=" M 608.03 206.10 C 610.35 206.25 613.57 205.57 614.86 208.14 C 615.50 211.30 616.09 214.78 614.97 217.90 C 613.22 219.54 610.64 218.87 608.49 218.91 C 608.48 214.63 608.11 210.37 608.03 206.10 Z" />
<path fill="#050604" opacity="1.00" d=" M 449.72 227.72 C 450.17 226.82 450.65 225.94 451.13 225.06 C 455.29 227.42 459.83 230.15 461.19 235.08 C 456.31 234.76 452.95 230.94 449.72 227.72 Z" />
<path fill="#01c08e" opacity="1.00" d=" M 261.40 231.92 C 277.41 231.45 293.39 230.01 309.41 229.79 C 310.23 231.41 311.08 233.02 311.91 234.63 C 296.56 236.08 281.12 236.12 265.78 237.66 C 264.44 237.77 263.11 237.73 261.78 237.72 C 261.68 235.78 261.56 233.85 261.40 231.92 Z" />
<path fill="#f7e3fb" opacity="1.00" d=" M 265.78 237.66 C 281.12 236.12 296.56 236.08 311.91 234.63 C 312.18 235.15 312.72 236.19 312.99 236.71 C 304.12 238.62 295.00 237.82 286.03 238.91 C 279.48 238.60 273.00 240.16 266.48 239.74 C 266.30 239.22 265.95 238.18 265.78 237.66 Z" />
<path fill="#040404" opacity="1.00" d=" M 350.13 240.98 C 352.81 238.22 355.52 235.25 359.35 234.12 C 358.05 238.32 355.29 241.77 352.66 245.21 C 351.78 244.85 350.90 244.49 350.03 244.12 C 350.05 243.33 350.10 241.76 350.13 240.98 Z" />
<path fill="#01c08e" opacity="1.00" d=" M 199.99 251.74 C 220.69 250.41 241.43 249.71 262.11 248.20 L 262.06 248.83 C 261.92 250.46 261.80 252.10 261.68 253.73 C 238.80 254.91 215.93 256.29 193.04 257.34 C 171.70 258.66 150.31 259.22 129.01 260.96 L 127.52 261.14 C 127.54 259.13 127.65 257.13 127.88 255.14 C 151.94 254.58 175.94 252.64 199.99 251.74 Z" />
<path fill="#f1e9ec" opacity="1.00" d=" M 262.06 248.83 C 263.47 250.69 264.61 252.75 265.31 254.98 C 260.15 257.21 254.48 257.10 248.98 257.06 C 214.95 258.78 180.92 260.50 146.91 262.39 C 140.94 262.61 134.40 264.43 129.01 260.96 C 150.31 259.22 171.70 258.66 193.04 257.34 C 215.93 256.29 238.80 254.91 261.68 253.73 C 261.80 252.10 261.92 250.46 262.06 248.83 Z" />
<path fill="#000000" opacity="1.00" d=" M 405.00 249.24 C 405.74 249.49 407.21 250.01 407.94 250.27 C 408.80 254.19 408.84 258.23 408.97 262.23 C 407.83 261.86 405.52 262.79 405.42 261.00 C 404.67 257.12 404.68 253.15 405.00 249.24 Z" />
<path fill="#01c08e" opacity="1.00" d=" M 638.38 264.41 C 641.49 262.93 644.52 267.12 643.14 269.92 C 642.14 272.57 637.77 273.33 636.33 270.72 C 635.43 268.46 635.49 265.09 638.38 264.41 Z" />
<path fill="#01c08e" opacity="1.00" d=" M 91.05 267.08 C 93.96 265.90 97.89 267.05 98.54 270.43 C 99.80 274.56 93.96 278.07 90.81 275.31 C 88.20 273.35 88.25 268.86 91.05 267.08 Z" />
<path fill="#2959a3" opacity="1.00" d=" M 279.37 267.58 C 285.40 265.13 292.84 270.51 291.80 277.08 C 291.92 284.21 282.58 287.62 277.21 283.86 C 271.52 280.06 272.62 269.57 279.37 267.58 Z" />
<path fill="#2959a3" opacity="1.00" d=" M 167.15 280.24 C 172.43 277.74 179.07 282.92 177.55 288.65 C 176.78 294.18 169.28 296.13 165.30 292.76 C 161.49 289.45 162.37 282.17 167.15 280.24 Z" />
<path fill="#01c08e" opacity="1.00" d=" M 428.14 290.33 C 462.13 288.16 496.15 286.73 530.15 284.84 C 536.66 283.99 543.23 284.23 549.78 284.21 C 550.28 285.35 550.79 286.48 551.34 287.60 C 543.53 290.42 535.12 289.73 526.99 290.29 C 495.29 292.14 463.55 293.31 431.88 295.57 C 431.08 295.67 429.49 295.88 428.69 295.99 C 428.29 294.13 428.15 292.22 428.14 290.33 Z" />
<path fill="#f1eaec" opacity="1.00" d=" M 526.99 290.29 C 535.12 289.73 543.53 290.42 551.34 287.60 C 552.51 289.80 550.38 292.16 548.08 291.95 C 509.78 293.31 471.51 296.33 433.24 297.69 C 432.90 297.16 432.22 296.10 431.88 295.57 C 463.55 293.31 495.29 292.14 526.99 290.29 Z" />
<path fill="#2959a3" opacity="1.00" d=" M 559.44 290.57 C 563.31 289.19 567.71 292.96 567.02 297.02 C 567.02 302.20 559.79 304.10 556.46 300.71 C 554.04 297.41 554.96 291.52 559.44 290.57 Z" />
<path fill="#01c08e" opacity="1.00" d=" M 379.36 292.46 C 383.24 291.14 388.08 294.82 387.21 299.03 C 386.78 303.28 381.26 305.97 377.78 303.25 C 373.77 300.65 374.65 293.69 379.36 292.46 Z" />
<path fill="#373a46" opacity="1.00" d=" M 224.49 293.55 C 227.77 292.53 231.91 295.39 231.08 299.06 C 230.80 302.89 225.57 304.96 222.75 302.34 C 219.63 300.05 220.74 294.48 224.49 293.55 M 223.29 295.27 C 220.87 297.39 221.88 301.61 225.05 302.25 C 227.70 303.07 230.36 300.65 230.07 297.97 C 229.91 294.85 225.60 293.27 223.29 295.27 Z" />
</svg>
