<?xml version="1.0" encoding="UTF-8" ?>
<!DOCTYPE svg PUBLIC "-//W3C//DTD SVG 1.1//EN" "http://www.w3.org/Graphics/SVG/1.1/DTD/svg11.dtd">
<svg width="1250pt" height="1250pt" viewBox="0 0 1250 1250" version="1.1" xmlns="http://www.w3.org/2000/svg">
<path fill="#010173" opacity="1.00" d=" M 557.83 47.51 C 597.97 42.91 638.59 42.11 678.85 45.72 C 720.92 49.59 762.55 58.49 802.40 72.53 C 835.14 84.12 866.37 100.15 894.47 120.62 C 916.05 136.34 935.90 154.65 952.21 175.85 C 963.09 189.93 973.61 204.44 981.62 220.38 C 988.66 234.27 994.50 248.76 999.68 263.44 C 1004.73 264.03 1009.82 264.31 1014.89 264.85 C 1014.50 232.22 1012.83 199.45 1016.63 166.94 C 1018.66 149.57 1023.17 132.42 1030.57 116.55 C 1032.10 112.99 1035.62 111.03 1038.95 109.46 C 1056.39 127.07 1065.34 151.05 1070.49 174.86 C 1072.33 183.14 1073.75 191.51 1075.09 199.88 C 1081.93 194.84 1089.36 190.30 1097.56 187.88 C 1100.57 201.35 1100.56 215.24 1101.15 228.96 C 1101.77 258.34 1099.58 287.67 1098.51 317.02 C 1096.62 345.36 1094.19 373.66 1091.40 401.93 C 1089.41 424.31 1086.23 446.55 1083.81 468.89 C 1081.75 486.12 1078.05 503.72 1068.43 518.46 C 1058.06 534.74 1041.89 547.74 1022.98 552.44 C 1008.44 555.99 993.45 553.32 978.72 553.30 C 970.67 564.88 961.94 576.01 952.40 586.41 C 942.57 597.32 931.45 606.93 921.03 617.24 C 943.89 659.10 958.31 705.59 962.81 753.10 C 964.14 764.01 963.75 775.03 964.31 785.99 C 963.75 828.42 955.38 871.51 934.85 908.99 C 921.21 933.82 901.51 956.29 875.71 968.82 C 869.18 971.76 862.43 975.06 855.10 974.99 C 849.44 974.99 843.74 975.30 838.14 974.28 C 829.82 989.49 822.40 1005.17 814.72 1020.71 C 806.91 1036.71 800.13 1053.19 792.12 1069.10 C 784.74 1084.04 776.31 1098.44 767.83 1112.78 C 762.94 1120.84 757.82 1128.80 752.02 1136.24 C 744.87 1135.08 737.62 1134.52 730.40 1135.26 C 729.58 1135.29 727.94 1135.35 727.12 1135.38 C 726.89 1133.58 726.69 1131.83 726.46 1130.06 C 726.14 1127.65 725.80 1125.25 725.47 1122.86 C 711.16 1129.12 697.95 1137.69 683.36 1143.38 C 669.58 1148.90 655.03 1152.42 640.31 1154.26 C 629.45 1153.68 618.53 1153.52 607.68 1154.27 C 593.95 1152.48 580.16 1149.71 567.43 1144.10 C 552.12 1137.62 537.36 1129.88 523.28 1121.03 C 522.93 1122.71 522.59 1124.42 522.36 1126.15 C 512.01 1125.36 500.85 1122.72 491.21 1128.03 L 491.07 1128.09 C 471.92 1100.88 458.15 1070.44 444.78 1040.12 C 434.72 1017.59 425.71 994.48 413.09 973.20 C 407.47 974.44 401.69 973.94 395.99 973.96 C 389.13 973.96 382.82 970.95 376.69 968.24 C 351.82 956.56 332.61 935.40 318.88 912.00 C 299.11 877.72 289.71 838.22 287.65 798.92 C 286.13 765.82 289.30 732.49 297.58 700.38 C 304.95 670.33 316.81 641.56 331.19 614.23 C 319.76 606.05 309.97 595.89 300.37 585.69 C 290.83 575.33 282.09 564.24 274.04 552.68 C 261.67 553.01 249.26 554.62 236.90 553.19 C 223.39 551.61 210.77 545.23 200.51 536.46 C 184.81 522.93 174.47 503.54 171.41 483.10 C 166.10 448.56 162.74 413.76 159.26 379.00 C 157.68 355.68 154.84 332.44 154.08 309.06 C 152.45 272.72 150.04 236.24 153.27 199.91 C 153.60 195.62 154.46 191.39 155.53 187.22 C 163.53 190.03 170.86 194.38 177.82 199.16 C 181.31 176.36 186.23 153.39 196.71 132.67 C 201.10 123.85 207.19 115.98 213.98 108.89 C 217.31 110.70 221.01 112.65 222.51 116.37 C 235.70 144.58 238.39 176.25 238.63 206.98 C 238.83 226.09 238.25 245.19 238.04 264.30 C 243.05 263.87 248.07 263.44 253.08 263.05 C 260.06 243.89 267.71 224.84 278.24 207.32 C 294.03 181.33 313.95 157.88 336.83 137.85 C 359.68 117.68 385.80 101.47 413.21 88.25 C 458.58 66.41 507.91 53.43 557.83 47.51 M 537.08 69.68 C 489.63 77.67 443.09 92.56 400.92 115.92 C 370.58 132.92 342.97 154.99 320.37 181.47 C 299.99 205.31 284.00 232.77 272.58 261.94 C 258.91 297.00 251.21 334.39 250.00 372.00 C 249.41 390.87 246.84 410.12 251.26 428.72 C 250.09 433.81 250.54 439.08 251.43 444.18 C 258.72 488.67 278.37 531.05 307.48 565.46 C 326.69 588.15 350.01 607.21 375.49 622.47 C 401.49 638.08 429.84 649.49 458.91 657.99 C 500.59 670.13 543.88 675.96 587.17 678.13 C 631.79 680.24 676.65 679.16 720.95 673.22 C 752.18 668.94 783.23 662.49 813.09 652.27 C 841.49 642.69 868.73 629.49 893.30 612.26 C 900.83 607.65 908.03 602.50 914.69 596.70 C 958.05 560.44 988.52 509.22 999.85 453.87 C 1001.15 446.24 1002.88 438.47 1001.65 430.71 C 1002.56 429.00 1002.46 426.96 1002.80 425.11 C 1004.97 408.15 1003.83 391.04 1002.97 374.04 C 1001.01 312.19 982.39 250.28 946.49 199.56 C 927.66 172.78 903.67 149.79 876.72 131.27 C 852.57 114.57 826.01 101.58 798.51 91.40 C 758.19 76.51 715.70 67.91 672.91 64.38 C 627.65 60.74 581.89 62.16 537.08 69.68 M 209.70 136.45 C 199.14 165.31 194.18 195.80 190.16 226.15 C 190.03 228.40 188.30 229.97 186.98 231.61 C 184.34 228.19 180.81 225.49 176.97 223.56 C 175.31 219.52 171.52 216.89 168.37 214.05 C 168.68 259.38 170.50 304.69 172.52 349.97 C 172.73 355.44 173.31 360.90 174.40 366.27 C 175.24 365.61 176.32 365.07 176.55 363.92 C 177.74 360.51 178.36 356.95 179.18 353.45 C 183.92 332.18 188.19 310.67 196.22 290.33 C 199.40 286.18 202.19 281.75 204.99 277.34 C 210.47 274.66 215.59 270.97 221.70 269.89 C 225.08 268.19 224.15 264.07 224.39 261.00 C 224.40 233.32 225.58 205.60 223.77 177.95 C 222.59 161.09 220.21 144.12 214.46 128.16 C 214.37 127.83 214.21 127.17 214.12 126.84 C 211.73 129.57 210.86 133.11 209.70 136.45 M 1038.17 129.55 C 1034.09 139.75 1032.48 150.76 1030.78 161.57 C 1026.39 197.21 1028.56 233.18 1028.60 268.98 C 1030.16 269.39 1031.75 269.82 1033.33 270.26 C 1038.18 272.88 1043.17 275.23 1048.00 277.90 C 1050.88 282.60 1053.97 287.16 1057.02 291.75 C 1065.39 313.26 1069.68 336.02 1074.63 358.49 C 1075.30 361.84 1076.37 365.19 1078.69 367.79 C 1080.52 353.28 1080.98 338.65 1081.52 324.05 C 1082.87 287.71 1084.47 251.36 1084.42 214.99 C 1081.31 217.50 1077.46 219.90 1076.15 223.86 C 1072.08 226.03 1068.12 228.76 1065.47 232.60 C 1062.33 227.68 1061.90 221.72 1061.14 216.09 C 1057.63 190.59 1053.37 164.96 1044.32 140.75 C 1042.89 136.45 1040.12 132.42 1040.67 127.69 C 1039.73 128.19 1038.91 128.83 1038.17 129.55 M 217.99 292.93 C 213.41 295.18 209.92 299.27 207.91 303.91 C 202.70 316.09 199.69 329.07 197.54 342.11 C 193.93 361.78 189.21 381.23 185.97 400.96 C 184.42 413.84 185.07 426.86 186.10 439.75 C 186.24 443.50 186.69 447.24 186.53 451.00 C 186.15 461.75 187.00 472.53 188.80 483.13 C 192.37 503.83 206.36 522.87 225.86 531.14 C 237.64 535.94 250.67 535.36 263.11 534.55 C 259.98 525.78 255.21 517.70 252.14 508.91 C 247.97 498.18 245.16 487.00 241.25 476.20 C 238.86 464.79 236.39 453.40 234.75 441.86 C 232.24 423.36 232.58 404.63 232.97 386.01 C 233.25 351.49 239.16 317.31 246.54 283.68 C 236.71 285.61 226.96 288.40 217.99 292.93 M 1006.38 284.18 C 1009.30 298.03 1012.15 311.90 1014.49 325.86 C 1020.00 359.24 1020.89 393.22 1019.70 426.99 C 1018.58 443.75 1015.16 460.25 1011.66 476.65 L 1011.05 476.51 C 1006.25 496.75 998.40 516.11 989.65 534.94 C 998.36 535.64 1007.19 536.10 1015.87 534.70 C 1025.17 533.34 1033.87 529.08 1041.09 523.14 C 1053.86 512.67 1062.34 497.21 1064.57 480.87 C 1066.29 469.44 1066.99 457.81 1066.13 446.27 C 1067.70 439.29 1067.31 432.06 1067.47 424.96 C 1067.42 419.62 1068.30 414.29 1067.89 408.95 C 1067.32 399.46 1064.85 390.24 1063.02 380.95 C 1061.23 371.92 1059.45 362.90 1057.54 353.90 C 1054.24 337.11 1051.88 319.88 1044.85 304.12 C 1042.87 299.98 1039.92 296.12 1035.81 293.94 C 1026.64 289.03 1016.53 286.19 1006.38 284.18 M 301.13 784.07 C 302.95 824.55 312.05 865.14 330.91 901.19 C 334.08 898.26 337.02 895.08 340.34 892.30 C 346.62 886.72 354.28 883.10 361.49 878.93 C 354.83 863.46 348.87 847.65 344.36 831.41 C 340.85 819.49 336.88 807.72 333.23 795.85 C 331.38 786.36 329.76 776.83 327.76 767.37 C 321.90 732.40 322.24 695.84 332.85 661.78 C 336.23 649.90 343.22 639.13 345.00 626.81 C 312.69 672.12 298.95 728.89 301.13 784.07 M 906.65 627.95 C 907.09 633.62 909.51 639.07 911.50 644.40 C 927.60 679.43 930.06 719.27 925.41 757.12 C 924.26 768.59 921.04 779.70 919.43 791.10 C 918.26 799.15 914.92 806.64 912.66 814.41 C 908.16 827.81 904.96 841.63 899.90 854.84 C 896.84 863.30 893.64 871.71 889.98 879.93 C 894.91 882.70 899.91 885.35 904.68 888.41 C 910.65 892.23 915.53 897.44 920.72 902.22 C 942.49 859.46 951.98 810.88 950.37 763.06 C 948.68 715.20 934.44 667.23 906.65 627.95 M 357.77 648.74 L 357.33 648.49 C 353.58 658.86 348.87 669.02 346.95 679.96 C 337.60 718.44 342.73 758.75 352.54 796.61 C 361.08 829.71 374.10 861.46 388.74 892.29 C 397.31 909.57 407.37 926.07 417.59 942.42 C 424.77 953.55 431.31 965.11 439.18 975.78 C 447.21 987.25 455.00 999.14 465.52 1008.53 C 469.48 1011.61 473.47 1014.64 477.38 1017.78 C 480.22 1019.80 482.97 1022.24 486.46 1023.05 C 488.68 1026.97 492.92 1029.08 496.40 1031.73 C 520.93 1049.67 546.15 1067.64 575.10 1077.74 C 599.37 1086.33 626.17 1087.19 651.09 1080.85 C 685.47 1072.56 716.77 1055.24 746.53 1036.62 C 752.72 1032.40 759.37 1028.79 765.07 1023.90 C 768.29 1021.72 771.83 1020.04 774.98 1017.77 C 782.48 1012.47 788.89 1005.83 795.26 999.25 C 808.00 985.79 817.15 969.54 827.01 953.98 C 844.08 927.94 860.23 901.14 872.35 872.38 C 886.91 839.36 898.81 804.97 905.18 769.38 C 910.14 741.25 911.65 712.04 905.12 684.03 C 903.38 672.03 898.36 660.86 894.16 649.58 C 892.20 645.50 890.01 641.54 887.80 637.60 C 861.83 652.69 834.12 664.77 805.39 673.55 C 773.65 682.86 741.03 689.09 708.15 692.70 C 668.26 697.05 628.05 697.09 587.99 695.87 C 545.16 694.16 502.40 688.35 461.02 677.06 C 427.10 667.72 394.15 654.46 363.80 636.59 C 361.71 640.54 358.66 644.42 357.77 648.74 M 349.96 894.02 C 344.01 897.78 339.40 903.26 335.47 909.02 C 342.81 922.80 353.00 935.09 365.02 945.03 C 375.51 953.72 389.42 958.97 403.11 956.47 C 390.04 933.47 376.35 910.77 365.12 886.80 C 359.99 889.03 354.74 891.07 349.96 894.02 M 886.35 887.82 C 875.07 911.74 861.58 934.53 848.29 957.37 C 859.43 959.54 870.97 956.45 880.39 950.37 C 895.59 940.54 906.66 925.75 916.20 910.64 C 914.43 906.98 911.48 904.13 908.86 901.11 C 902.91 894.47 894.35 891.23 886.35 887.82 M 679.83 1090.89 C 661.66 1097.78 642.53 1102.65 623.01 1102.93 C 600.11 1103.63 577.41 1097.80 556.62 1088.46 C 526.86 1075.26 500.27 1056.18 474.03 1037.16 C 488.48 1060.58 504.83 1083.09 524.80 1102.15 C 547.39 1123.57 575.56 1140.68 606.88 1144.69 C 629.17 1147.51 652.14 1143.78 672.63 1134.65 C 701.33 1122.16 725.82 1101.75 747.04 1079.04 C 759.48 1066.15 769.01 1050.89 778.75 1035.96 C 747.15 1056.54 715.27 1077.44 679.83 1090.89 Z" />
<path fill="#ffffff" opacity="1.00" d=" M 537.08 69.68 C 581.89 62.16 627.65 60.74 672.91 64.38 C 715.70 67.91 758.19 76.51 798.51 91.40 C 826.01 101.58 852.57 114.57 876.72 131.27 C 903.67 149.79 927.66 172.78 946.49 199.56 C 982.39 250.28 1001.01 312.19 1002.97 374.04 C 1003.83 391.04 1004.97 408.15 1002.80 425.11 C 1002.46 426.96 1002.56 429.00 1001.65 430.71 C 995.97 441.00 992.14 452.21 986.84 462.70 C 974.49 488.24 957.96 511.81 937.80 531.80 C 917.64 552.35 893.72 568.94 868.35 582.39 C 838.85 597.97 807.11 609.04 774.70 616.73 C 736.50 625.75 697.33 630.30 658.14 631.58 C 656.56 631.69 655.00 631.88 653.45 632.08 C 648.16 631.95 642.86 631.94 637.58 632.19 C 629.85 632.33 622.12 632.35 614.40 632.20 C 609.11 631.94 603.82 631.95 598.53 632.08 C 593.41 631.26 588.22 631.40 583.06 631.16 C 542.17 628.92 501.34 623.32 461.83 612.36 C 427.00 602.74 393.23 588.72 362.70 569.27 C 333.52 550.67 307.39 526.94 287.53 498.51 C 272.19 477.09 261.15 453.03 251.26 428.72 C 246.84 410.12 249.41 390.87 250.00 372.00 C 251.21 334.39 258.91 297.00 272.58 261.94 C 284.00 232.77 299.99 205.31 320.37 181.47 C 342.97 154.99 370.58 132.92 400.92 115.92 C 443.09 92.56 489.63 77.67 537.08 69.68 M 580.50 173.75 C 556.50 175.40 532.58 178.50 509.02 183.44 C 466.69 192.47 425.02 206.97 388.40 230.38 C 359.25 249.12 333.28 273.64 315.72 303.72 C 297.96 333.47 288.35 367.63 285.50 402.04 C 283.62 421.73 284.50 441.81 289.59 461.00 C 297.81 491.81 316.20 519.95 341.59 539.33 C 357.03 551.12 373.51 561.60 391.05 569.97 C 425.15 586.11 462.01 595.48 499.04 601.96 C 519.37 605.29 539.65 609.01 560.15 611.16 C 625.78 618.49 692.56 615.30 757.17 601.56 C 803.88 593.52 850.73 580.07 890.44 553.40 C 899.82 547.64 909.07 541.58 917.42 534.39 C 941.43 514.19 958.42 485.85 964.83 455.13 C 968.81 437.22 968.93 418.68 967.24 400.48 C 964.63 371.50 957.14 342.85 944.23 316.73 C 932.30 292.19 915.02 270.43 894.37 252.64 C 866.49 228.37 833.27 210.80 798.51 198.60 C 728.79 174.21 653.77 169.08 580.50 173.75 Z" />
<path fill="#00795b" opacity="1.00" d=" M 209.70 136.45 C 210.86 133.11 211.73 129.57 214.12 126.84 C 214.21 127.17 214.37 127.83 214.46 128.16 C 212.12 136.69 214.79 145.45 215.54 154.01 C 217.41 175.63 218.00 197.34 218.11 219.03 C 219.05 234.03 218.11 249.07 219.08 264.06 C 219.00 266.34 220.14 268.30 221.70 269.89 C 215.59 270.97 210.47 274.66 204.99 277.34 C 202.29 270.49 199.88 263.53 197.25 256.65 C 194.05 248.22 191.88 239.28 186.98 231.61 C 188.30 229.97 190.03 228.40 190.16 226.15 C 194.18 195.80 199.14 165.31 209.70 136.45 Z" />
<path fill="#00795b" opacity="1.00" d=" M 1038.17 129.55 C 1038.91 128.83 1039.73 128.19 1040.67 127.69 C 1040.12 132.42 1042.89 136.45 1044.32 140.75 C 1053.37 164.96 1057.63 190.59 1061.14 216.09 C 1061.90 221.72 1062.33 227.68 1065.47 232.60 C 1058.16 247.09 1053.99 262.87 1048.00 277.90 C 1043.17 275.23 1038.18 272.88 1033.33 270.26 C 1034.31 261.20 1033.86 252.07 1034.42 242.98 C 1034.12 230.65 1034.74 218.33 1035.00 206.02 C 1035.06 180.33 1036.89 154.65 1040.35 129.20 C 1039.81 129.29 1038.72 129.46 1038.17 129.55 Z" />
<path fill="#01c08e" opacity="1.00" d=" M 215.54 154.01 C 214.79 145.45 212.12 136.69 214.46 128.16 C 220.21 144.12 222.59 161.09 223.77 177.95 C 225.58 205.60 224.40 233.32 224.39 261.00 C 224.15 264.07 225.08 268.19 221.70 269.89 C 220.14 268.30 219.00 266.34 219.08 264.06 C 218.11 249.07 219.05 234.03 218.11 219.03 C 218.00 197.34 217.41 175.63 215.54 154.01 Z" />
<path fill="#01c08e" opacity="1.00" d=" M 1038.17 129.55 C 1038.72 129.46 1039.81 129.29 1040.35 129.20 C 1036.89 154.65 1035.06 180.33 1035.00 206.02 C 1034.74 218.33 1034.12 230.65 1034.42 242.98 C 1033.86 252.07 1034.31 261.20 1033.33 270.26 C 1031.75 269.82 1030.16 269.39 1028.60 268.98 C 1028.56 233.18 1026.39 197.21 1030.78 161.57 C 1032.48 150.76 1034.09 139.75 1038.17 129.55 Z" />
<path fill="#2959a3" opacity="1.00" d=" M 580.50 173.75 C 653.77 169.08 728.79 174.21 798.51 198.60 C 833.27 210.80 866.49 228.37 894.37 252.64 C 915.02 270.43 932.30 292.19 944.23 316.73 C 957.14 342.85 964.63 371.50 967.24 400.48 C 968.93 418.68 968.81 437.22 964.83 455.13 C 958.42 485.85 941.43 514.19 917.42 534.39 C 909.07 541.58 899.82 547.64 890.44 553.40 C 850.73 580.07 803.88 593.52 757.17 601.56 C 692.56 615.30 625.78 618.49 560.15 611.16 C 539.65 609.01 519.37 605.29 499.04 601.96 C 462.01 595.48 425.15 586.11 391.05 569.97 C 373.51 561.60 357.03 551.12 341.59 539.33 C 316.20 519.95 297.81 491.81 289.59 461.00 C 284.50 441.81 283.62 421.73 285.50 402.04 C 288.35 367.63 297.96 333.47 315.72 303.72 C 333.28 273.64 359.25 249.12 388.40 230.38 C 425.02 206.97 466.69 192.47 509.02 183.44 C 532.58 178.50 556.50 175.40 580.50 173.75 M 568.93 194.29 C 528.72 198.10 488.76 206.36 451.01 220.91 C 427.69 229.85 405.14 241.19 385.10 256.19 C 361.83 273.46 341.64 295.31 328.02 321.00 C 314.39 347.23 305.83 376.46 305.27 406.11 L 306.55 405.48 C 307.71 401.74 308.30 397.87 309.10 394.05 C 314.02 365.35 326.61 338.23 344.05 315.02 C 363.75 288.89 389.56 267.48 418.67 252.58 C 470.28 225.81 528.22 213.19 585.96 209.63 C 633.75 207.15 682.04 208.12 729.14 217.23 C 763.65 223.77 797.62 234.11 829.02 249.99 C 854.63 262.90 878.76 279.50 897.85 301.09 C 919.88 325.54 935.96 355.59 942.68 387.89 C 944.22 394.95 944.66 402.31 947.45 409.06 C 949.12 399.64 946.66 390.26 945.21 380.99 C 939.04 344.55 922.78 309.58 897.40 282.54 C 874.81 258.10 846.35 239.59 815.90 226.45 C 780.42 211.37 742.73 201.81 704.58 196.61 C 659.65 190.57 614.05 190.13 568.93 194.29 M 419.07 406.06 C 415.73 408.96 411.94 411.49 409.22 415.02 C 410.56 429.15 414.50 443.16 421.17 455.72 C 425.73 464.08 431.64 471.89 439.23 477.71 C 447.99 484.04 459.79 486.86 470.19 483.17 C 481.44 479.22 490.18 470.23 496.20 460.19 C 507.83 440.64 512.33 417.51 511.83 394.96 C 511.43 375.74 507.96 356.19 498.80 339.12 C 472.13 361.31 445.68 383.79 419.07 406.06 M 749.43 380.09 C 746.60 402.69 748.09 426.22 756.43 447.58 C 760.85 458.85 767.01 469.80 776.30 477.77 C 782.87 483.38 791.22 487.49 800.02 487.34 C 811.19 487.15 821.72 481.22 828.78 472.75 C 842.20 457.37 848.64 437.15 850.99 417.17 C 833.28 402.14 815.51 387.17 797.72 372.23 C 785.48 362.11 773.53 351.61 761.03 341.81 C 754.85 353.72 751.04 366.78 749.43 380.09 M 859.48 467.57 C 854.04 476.21 849.16 485.22 843.91 493.98 C 840.35 500.24 836.65 507.49 838.55 514.89 C 841.03 527.83 855.84 536.57 868.39 532.47 C 879.52 529.56 887.65 517.29 884.91 505.91 C 883.99 500.97 880.61 497.09 878.07 492.94 C 873.16 484.72 868.45 476.39 863.83 468.02 C 863.03 466.32 860.62 466.21 859.48 467.57 M 573.36 540.45 C 560.97 546.54 549.49 555.58 542.88 567.92 C 597.46 568.04 652.04 568.01 706.63 567.94 C 702.80 560.33 696.86 553.96 690.10 548.86 C 675.89 538.26 658.54 532.55 641.08 530.44 C 618.19 527.81 594.27 530.39 573.36 540.45 Z" />
<path fill="#a8a6ce" opacity="1.00" d=" M 568.93 194.29 C 614.05 190.13 659.65 190.57 704.58 196.61 C 742.73 201.81 780.42 211.37 815.90 226.45 C 846.35 239.59 874.81 258.10 897.40 282.54 C 922.78 309.58 939.04 344.55 945.21 380.99 C 946.66 390.26 949.12 399.64 947.45 409.06 C 944.66 402.31 944.22 394.95 942.68 387.89 C 935.96 355.59 919.88 325.54 897.85 301.09 C 878.76 279.50 854.63 262.90 829.02 249.99 C 797.62 234.11 763.65 223.77 729.14 217.23 C 682.04 208.12 633.75 207.15 585.96 209.63 C 528.22 213.19 470.28 225.81 418.67 252.58 C 389.56 267.48 363.75 288.89 344.05 315.02 C 326.61 338.23 314.02 365.35 309.10 394.05 C 308.30 397.87 307.71 401.74 306.55 405.48 L 305.27 406.11 C 305.83 376.46 314.39 347.23 328.02 321.00 C 341.64 295.31 361.83 273.46 385.10 256.19 C 405.14 241.19 427.69 229.85 451.01 220.91 C 488.76 206.36 528.72 198.10 568.93 194.29 Z" />
<path fill="#01c08e" opacity="1.00" d=" M 168.37 214.05 C 171.52 216.89 175.31 219.52 176.97 223.56 C 178.02 232.05 181.46 239.94 183.87 248.09 C 187.86 262.20 191.81 276.33 196.22 290.33 C 188.19 310.67 183.92 332.18 179.18 353.45 C 178.36 356.95 177.74 360.51 176.55 363.92 C 176.32 365.07 175.24 365.61 174.40 366.27 C 173.31 360.90 172.73 355.44 172.52 349.97 C 170.50 304.69 168.68 259.38 168.37 214.05 Z" />
<path fill="#01c08e" opacity="1.00" d=" M 1076.15 223.86 C 1077.46 219.90 1081.31 217.50 1084.42 214.99 C 1084.47 251.36 1082.87 287.71 1081.52 324.05 C 1080.98 338.65 1080.52 353.28 1078.69 367.79 C 1076.37 365.19 1075.30 361.84 1074.63 358.49 C 1069.68 336.02 1065.39 313.26 1057.02 291.75 C 1059.54 279.87 1063.61 268.38 1066.60 256.61 C 1069.37 245.58 1074.34 235.15 1076.15 223.86 Z" />
<path fill="#0f9e85" opacity="1.00" d=" M 176.97 223.56 C 180.81 225.49 184.34 228.19 186.98 231.61 C 191.88 239.28 194.05 248.22 197.25 256.65 C 199.88 263.53 202.29 270.49 204.99 277.34 C 202.19 281.75 199.40 286.18 196.22 290.33 C 191.81 276.33 187.86 262.20 183.87 248.09 C 181.46 239.94 178.02 232.05 176.97 223.56 Z" />
<path fill="#0f9e85" opacity="1.00" d=" M 1065.47 232.60 C 1068.12 228.76 1072.08 226.03 1076.15 223.86 C 1074.34 235.15 1069.37 245.58 1066.60 256.61 C 1063.61 268.38 1059.54 279.87 1057.02 291.75 C 1053.97 287.16 1050.88 282.60 1048.00 277.90 C 1053.99 262.87 1058.16 247.09 1065.47 232.60 Z" />
<path fill="#ffffff" opacity="1.00" d=" M 217.99 292.93 C 226.96 288.40 236.71 285.61 246.54 283.68 C 239.16 317.31 233.25 351.49 232.97 386.01 C 232.58 404.63 232.24 423.36 234.75 441.86 C 236.39 453.40 238.86 464.79 241.25 476.20 L 240.81 477.15 C 231.28 475.58 221.62 473.55 212.99 469.06 C 203.43 464.05 196.17 455.89 188.49 448.52 C 186.04 446.33 186.65 442.69 186.10 439.75 C 185.07 426.86 184.42 413.84 185.97 400.96 C 189.21 381.23 193.93 361.78 197.54 342.11 C 199.69 329.07 202.70 316.09 207.91 303.91 C 209.92 299.27 213.41 295.18 217.99 292.93 Z" />
<path fill="#ffffff" opacity="1.00" d=" M 1006.38 284.18 C 1016.53 286.19 1026.64 289.03 1035.81 293.94 C 1039.92 296.12 1042.87 299.98 1044.85 304.12 C 1051.88 319.88 1054.24 337.11 1057.54 353.90 C 1059.45 362.90 1061.23 371.92 1063.02 380.95 C 1064.85 390.24 1067.32 399.46 1067.89 408.95 C 1068.30 414.29 1067.42 419.62 1067.47 424.96 C 1067.31 432.06 1067.70 439.29 1066.13 446.27 C 1061.23 452.92 1055.02 458.48 1048.68 463.71 C 1039.42 471.39 1027.62 475.06 1015.91 476.95 C 1014.47 477.27 1013.04 477.03 1011.66 476.65 C 1015.16 460.25 1018.58 443.75 1019.70 426.99 C 1020.89 393.22 1020.00 359.24 1014.49 325.86 C 1012.15 311.90 1009.30 298.03 1006.38 284.18 Z" />
<path fill="#01c08e" opacity="1.00" d=" M 419.07 406.06 C 445.68 383.79 472.13 361.31 498.80 339.12 C 507.96 356.19 511.43 375.74 511.83 394.96 C 512.33 417.51 507.83 440.64 496.20 460.19 C 490.18 470.23 481.44 479.22 470.19 483.17 C 459.79 486.86 447.99 484.04 439.23 477.71 C 431.64 471.89 425.73 464.08 421.17 455.72 C 414.50 443.16 410.56 429.15 409.22 415.02 C 411.94 411.49 415.73 408.96 419.07 406.06 Z" />
<path fill="#01c08e" opacity="1.00" d=" M 749.43 380.09 C 751.04 366.78 754.85 353.72 761.03 341.81 C 773.53 351.61 785.48 362.11 797.72 372.23 C 815.51 387.17 833.28 402.14 850.99 417.17 C 848.64 437.15 842.20 457.37 828.78 472.75 C 821.72 481.22 811.19 487.15 800.02 487.34 C 791.22 487.49 782.87 483.38 776.30 477.77 C 767.01 469.80 760.85 458.85 756.43 447.58 C 748.09 426.22 746.60 402.69 749.43 380.09 Z" />
<path fill="#a8a6ce" opacity="1.00" d=" M 251.26 428.72 C 261.15 453.03 272.19 477.09 287.53 498.51 C 307.39 526.94 333.52 550.67 362.70 569.27 C 393.23 588.72 427.00 602.74 461.83 612.36 C 501.34 623.32 542.17 628.92 583.06 631.16 C 588.22 631.40 593.41 631.26 598.53 632.08 C 603.72 633.53 609.16 633.22 614.40 632.20 C 622.12 632.35 629.85 632.33 637.58 632.19 C 642.82 633.24 648.24 633.48 653.45 632.08 C 655.00 631.88 656.56 631.69 658.14 631.58 C 697.33 630.30 736.50 625.75 774.70 616.73 C 807.11 609.04 838.85 597.97 868.35 582.39 C 893.72 568.94 917.64 552.35 937.80 531.80 C 957.96 511.81 974.49 488.24 986.84 462.70 C 992.14 452.21 995.97 441.00 1001.65 430.71 C 1002.88 438.47 1001.15 446.24 999.85 453.87 C 988.52 509.22 958.05 560.44 914.69 596.70 C 908.03 602.50 900.83 607.65 893.30 612.26 C 868.73 629.49 841.49 642.69 813.09 652.27 C 783.23 662.49 752.18 668.94 720.95 673.22 C 676.65 679.16 631.79 680.24 587.17 678.13 C 543.88 675.96 500.59 670.13 458.91 657.99 C 429.84 649.49 401.49 638.08 375.49 622.47 C 350.01 607.21 326.69 588.15 307.48 565.46 C 278.37 531.05 258.72 488.67 251.43 444.18 C 250.54 439.08 250.09 433.81 251.26 428.72 Z" />
<path fill="#a8a6ce" opacity="1.00" d=" M 186.10 439.75 C 186.65 442.69 186.04 446.33 188.49 448.52 C 196.17 455.89 203.43 464.05 212.99 469.06 C 221.62 473.55 231.28 475.58 240.81 477.15 L 241.25 476.20 C 245.16 487.00 247.97 498.18 252.14 508.91 C 255.21 517.70 259.98 525.78 263.11 534.55 C 250.67 535.36 237.64 535.94 225.86 531.14 C 206.36 522.87 192.37 503.83 188.80 483.13 C 187.00 472.53 186.15 461.75 186.53 451.00 C 186.69 447.24 186.24 443.50 186.10 439.75 Z" />
<path fill="#a8a6ce" opacity="1.00" d=" M 1048.68 463.71 C 1055.02 458.48 1061.23 452.92 1066.13 446.27 C 1066.99 457.81 1066.29 469.44 1064.57 480.87 C 1062.34 497.21 1053.86 512.67 1041.09 523.14 C 1033.87 529.08 1025.17 533.34 1015.87 534.70 C 1007.19 536.10 998.36 535.64 989.65 534.94 C 998.40 516.11 1006.25 496.75 1011.05 476.51 L 1011.66 476.65 C 1013.04 477.03 1014.47 477.27 1015.91 476.95 C 1027.62 475.06 1039.42 471.39 1048.68 463.71 Z" />
<path fill="#00a2e8" opacity="1.00" d=" M 859.48 467.57 C 860.62 466.21 863.03 466.32 863.83 468.02 C 868.45 476.39 873.16 484.72 878.07 492.94 C 880.61 497.09 883.99 500.97 884.91 505.91 C 887.65 517.29 879.52 529.56 868.39 532.47 C 855.84 536.57 841.03 527.83 838.55 514.89 C 836.65 507.49 840.35 500.24 843.91 493.98 C 849.16 485.22 854.04 476.21 859.48 467.57 Z" />
<path fill="#01c08e" opacity="1.00" d=" M 573.36 540.45 C 594.27 530.39 618.19 527.81 641.08 530.44 C 658.54 532.55 675.89 538.26 690.10 548.86 C 696.86 553.96 702.80 560.33 706.63 567.94 C 652.04 568.01 597.46 568.04 542.88 567.92 C 549.49 555.58 560.97 546.54 573.36 540.45 Z" />
<path fill="#ffffff" opacity="1.00" d=" M 301.13 784.07 C 298.95 728.89 312.69 672.12 345.00 626.81 C 343.22 639.13 336.23 649.90 332.85 661.78 C 322.24 695.84 321.90 732.40 327.76 767.37 C 329.76 776.83 331.38 786.36 333.23 795.85 C 336.88 807.72 340.85 819.49 344.36 831.41 C 348.87 847.65 354.83 863.46 361.49 878.93 C 354.28 883.10 346.62 886.72 340.34 892.30 C 337.02 895.08 334.08 898.26 330.91 901.19 C 312.05 865.14 302.95 824.55 301.13 784.07 Z" />
<path fill="#ffffff" opacity="1.00" d=" M 906.65 627.95 C 934.44 667.23 948.68 715.20 950.37 763.06 C 951.98 810.88 942.49 859.46 920.72 902.22 C 915.53 897.44 910.65 892.23 904.68 888.41 C 899.91 885.35 894.91 882.70 889.98 879.93 C 893.64 871.71 896.84 863.30 899.90 854.84 C 904.96 841.63 908.16 827.81 912.66 814.41 C 914.92 806.64 918.26 799.15 919.43 791.10 C 921.04 779.70 924.26 768.59 925.41 757.12 C 930.06 719.27 927.60 679.43 911.50 644.40 C 909.51 639.07 907.09 633.62 906.65 627.95 Z" />
<path fill="#a1a0bf" opacity="0.90" d=" M 598.53 632.08 C 603.82 631.95 609.11 631.94 614.40 632.20 C 609.16 633.22 603.72 633.53 598.53 632.08 Z" />
<path fill="#a1a0be" opacity="0.89" d=" M 637.58 632.19 C 642.86 631.94 648.16 631.95 653.45 632.08 C 648.24 633.48 642.82 633.24 637.58 632.19 Z" />
<path fill="#a8a6ce" opacity="1.00" d=" M 357.77 648.74 C 358.66 644.42 361.71 640.54 363.80 636.59 C 394.15 654.46 427.10 667.72 461.02 677.06 C 502.40 688.35 545.16 694.16 587.99 695.87 C 628.05 697.09 668.26 697.05 708.15 692.70 C 741.03 689.09 773.65 682.86 805.39 673.55 C 834.12 664.77 861.83 652.69 887.80 637.60 C 890.01 641.54 892.20 645.50 894.16 649.58 C 879.92 656.70 866.57 665.51 852.02 672.03 C 827.47 683.71 801.44 692.00 775.02 698.22 C 736.66 707.30 697.34 711.89 657.99 713.54 C 613.25 715.06 568.30 713.53 523.98 706.97 C 474.98 699.66 426.36 686.18 382.63 662.47 C 374.40 657.79 366.14 653.15 357.77 648.74 Z" />
<path fill="#ffffff" opacity="1.00" d=" M 357.33 648.49 L 357.77 648.74 C 366.14 653.15 374.40 657.79 382.63 662.47 C 426.36 686.18 474.98 699.66 523.98 706.97 C 568.30 713.53 613.25 715.06 657.99 713.54 C 697.34 711.89 736.66 707.30 775.02 698.22 C 801.44 692.00 827.47 683.71 852.02 672.03 C 866.57 665.51 879.92 656.70 894.16 649.58 C 898.36 660.86 903.38 672.03 905.12 684.03 C 904.19 705.14 901.00 726.13 896.85 746.84 C 893.02 765.79 886.98 784.20 880.47 802.37 C 873.47 821.66 865.43 840.60 855.76 858.71 C 846.66 875.36 837.87 892.19 828.50 908.69 C 812.23 938.81 797.88 969.97 780.20 999.32 C 775.39 1007.66 769.50 1015.33 765.07 1023.90 C 759.37 1028.79 752.72 1032.40 746.53 1036.62 C 716.77 1055.24 685.47 1072.56 651.09 1080.85 C 626.17 1087.19 599.37 1086.33 575.10 1077.74 C 546.15 1067.64 520.93 1049.67 496.40 1031.73 C 492.92 1029.08 488.68 1026.97 486.46 1023.05 C 483.83 1016.32 479.11 1010.73 475.70 1004.42 C 448.42 954.87 421.34 905.21 394.52 855.41 C 383.31 833.91 374.15 811.38 366.46 788.40 C 361.89 774.43 357.56 760.36 354.64 745.95 C 351.92 732.98 349.93 719.87 348.34 706.72 C 347.36 697.84 345.91 688.90 346.95 679.96 C 348.87 669.02 353.58 658.86 357.33 648.49 M 609.54 728.76 C 574.03 732.20 539.68 747.33 513.46 771.58 C 489.26 794.16 471.33 824.13 465.44 856.91 C 462.83 872.59 462.58 888.66 464.34 904.45 C 468.43 938.98 485.91 971.22 510.72 995.30 C 540.21 1024.10 580.94 1040.78 622.09 1041.56 C 657.44 1042.62 693.28 1032.63 722.34 1012.30 C 752.13 991.68 775.10 960.89 784.95 925.90 C 791.39 902.24 791.99 877.08 787.52 853.01 C 778.68 812.49 752.44 776.53 717.72 754.16 C 685.97 733.63 647.07 724.86 609.54 728.76 Z" />
<path fill="#a8a6ce" opacity="1.00" d=" M 352.54 796.61 C 342.73 758.75 337.60 718.44 346.95 679.96 C 345.91 688.90 347.36 697.84 348.34 706.72 C 349.93 719.87 351.92 732.98 354.64 745.95 C 357.56 760.36 361.89 774.43 366.46 788.40 C 374.15 811.38 383.31 833.91 394.52 855.41 C 421.34 905.21 448.42 954.87 475.70 1004.42 C 479.11 1010.73 483.83 1016.32 486.46 1023.05 C 482.97 1022.24 480.22 1019.80 477.38 1017.78 C 473.47 1014.64 469.48 1011.61 465.52 1008.53 C 455.00 999.14 447.21 987.25 439.18 975.78 C 431.31 965.11 424.77 953.55 417.59 942.42 C 407.37 926.07 397.31 909.57 388.74 892.29 C 374.10 861.46 361.08 829.71 352.54 796.61 Z" />
<path fill="#a8a6ce" opacity="1.00" d=" M 905.12 684.03 C 911.65 712.04 910.14 741.25 905.18 769.38 C 898.81 804.97 886.91 839.36 872.35 872.38 C 860.23 901.14 844.08 927.94 827.01 953.98 C 817.15 969.54 808.00 985.79 795.26 999.25 C 788.89 1005.83 782.48 1012.47 774.98 1017.77 C 771.83 1020.04 768.29 1021.72 765.07 1023.90 C 769.50 1015.33 775.39 1007.66 780.20 999.32 C 797.88 969.97 812.23 938.81 828.50 908.69 C 837.87 892.19 846.66 875.36 855.76 858.71 C 865.43 840.60 873.47 821.66 880.47 802.37 C 886.98 784.20 893.02 765.79 896.85 746.84 C 901.00 726.13 904.19 705.14 905.12 684.03 Z" />
<path fill="#010173" opacity="1.00" d=" M 609.54 728.76 C 647.07 724.86 685.97 733.63 717.72 754.16 C 752.44 776.53 778.68 812.49 787.52 853.01 C 791.99 877.08 791.39 902.24 784.95 925.90 C 775.10 960.89 752.13 991.68 722.34 1012.30 C 693.28 1032.63 657.44 1042.62 622.09 1041.56 C 580.94 1040.78 540.21 1024.10 510.72 995.30 C 485.91 971.22 468.43 938.98 464.34 904.45 C 462.58 888.66 462.83 872.59 465.44 856.91 C 471.33 824.13 489.26 794.16 513.46 771.58 C 539.68 747.33 574.03 732.20 609.54 728.76 M 605.57 741.85 C 560.72 747.22 519.06 774.01 495.31 812.40 C 476.32 842.54 470.43 880.21 478.15 914.88 C 489.01 966.23 531.18 1008.06 581.04 1022.60 C 619.03 1033.80 661.21 1030.37 696.73 1012.76 C 726.70 997.92 751.38 972.67 765.49 942.34 C 786.77 896.29 780.06 838.53 748.21 798.94 C 728.75 774.15 701.35 755.81 671.17 746.82 C 649.96 740.61 627.48 739.26 605.57 741.85 Z" />
<path fill="#ffffff" opacity="1.00" d=" M 605.57 741.85 C 627.48 739.26 649.96 740.61 671.17 746.82 C 701.35 755.81 728.75 774.15 748.21 798.94 C 780.06 838.53 786.77 896.29 765.49 942.34 C 751.38 972.67 726.70 997.92 696.73 1012.76 C 661.21 1030.37 619.03 1033.80 581.04 1022.60 C 531.18 1008.06 489.01 966.23 478.15 914.88 C 470.43 880.21 476.32 842.54 495.31 812.40 C 519.06 774.01 560.72 747.22 605.57 741.85 M 620.24 751.11 C 624.81 767.41 633.23 782.39 636.99 798.94 C 640.94 815.69 641.03 832.99 642.46 850.06 C 643.83 863.08 647.64 875.82 653.43 887.55 C 663.77 908.85 681.39 925.98 701.58 938.01 C 694.93 917.45 684.10 898.25 680.23 876.82 C 678.10 863.93 678.01 850.81 676.26 837.87 C 673.59 816.93 665.88 796.52 653.25 779.55 C 644.52 767.82 633.35 757.72 620.24 751.11 M 602.82 820.98 C 594.81 831.41 587.20 842.47 576.50 850.38 C 565.68 858.54 554.56 866.36 544.83 875.85 C 533.43 886.78 523.23 899.35 517.03 913.99 C 510.48 929.25 507.84 946.01 508.30 962.56 C 521.83 947.90 531.23 929.65 546.58 916.62 C 557.88 907.07 570.99 899.90 582.00 889.98 C 595.80 877.66 607.37 862.55 614.30 845.31 C 621.08 828.97 622.34 811.08 622.96 793.60 C 615.90 802.46 609.70 811.98 602.82 820.98 M 549.59 928.13 C 562.26 931.54 575.24 933.77 588.00 936.85 C 597.58 939.06 607.45 940.83 616.04 945.88 C 635.62 956.99 655.73 968.27 678.11 972.46 C 701.03 976.61 725.98 974.35 746.29 962.27 C 730.08 956.72 712.66 955.67 696.64 949.49 C 686.83 945.92 677.93 940.39 669.01 935.07 C 658.70 928.80 647.72 923.61 636.25 919.85 C 607.94 910.17 575.62 913.55 549.59 928.13 Z" />
<path fill="#2959a3" opacity="1.00" d=" M 620.24 751.11 C 633.35 757.72 644.52 767.82 653.25 779.55 C 665.88 796.52 673.59 816.93 676.26 837.87 C 678.01 850.81 678.10 863.93 680.23 876.82 C 684.10 898.25 694.93 917.45 701.58 938.01 C 681.39 925.98 663.77 908.85 653.43 887.55 C 647.64 875.82 643.83 863.08 642.46 850.06 C 641.03 832.99 640.94 815.69 636.99 798.94 C 633.23 782.39 624.81 767.41 620.24 751.11 Z" />
<path fill="#2959a3" opacity="1.00" d=" M 602.82 820.98 C 609.70 811.98 615.90 802.46 622.96 793.60 C 622.34 811.08 621.08 828.97 614.30 845.31 C 607.37 862.55 595.80 877.66 582.00 889.98 C 570.99 899.90 557.88 907.07 546.58 916.62 C 531.23 929.65 521.83 947.90 508.30 962.56 C 507.84 946.01 510.48 929.25 517.03 913.99 C 523.23 899.35 533.43 886.78 544.83 875.85 C 554.56 866.36 565.68 858.54 576.50 850.38 C 587.20 842.47 594.81 831.41 602.82 820.98 Z" />
<path fill="#ffffff" opacity="1.00" d=" M 349.96 894.02 C 354.74 891.07 359.99 889.03 365.12 886.80 C 376.35 910.77 390.04 933.47 403.11 956.47 C 389.42 958.97 375.51 953.72 365.02 945.03 C 353.00 935.09 342.81 922.80 335.47 909.02 C 339.40 903.26 344.01 897.78 349.96 894.02 Z" />
<path fill="#ffffff" opacity="1.00" d=" M 886.35 887.82 C 894.35 891.23 902.91 894.47 908.86 901.11 C 911.48 904.13 914.43 906.98 916.20 910.64 C 906.66 925.75 895.59 940.54 880.39 950.37 C 870.97 956.45 859.43 959.54 848.29 957.37 C 861.58 934.53 875.07 911.74 886.35 887.82 Z" />
<path fill="#2959a3" opacity="1.00" d=" M 549.59 928.13 C 575.62 913.55 607.94 910.17 636.25 919.85 C 647.72 923.61 658.70 928.80 669.01 935.07 C 677.93 940.39 686.83 945.92 696.64 949.49 C 712.66 955.67 730.08 956.72 746.29 962.27 C 725.98 974.35 701.03 976.61 678.11 972.46 C 655.73 968.27 635.62 956.99 616.04 945.88 C 607.45 940.83 597.58 939.06 588.00 936.85 C 575.24 933.77 562.26 931.54 549.59 928.13 Z" />
<path fill="#a8a6ce" opacity="1.00" d=" M 679.83 1090.89 C 715.27 1077.44 747.15 1056.54 778.75 1035.96 C 769.01 1050.89 759.48 1066.15 747.04 1079.04 C 725.82 1101.75 701.33 1122.16 672.63 1134.65 C 652.14 1143.78 629.17 1147.51 606.88 1144.69 C 575.56 1140.68 547.39 1123.57 524.80 1102.15 C 504.83 1083.09 488.48 1060.58 474.03 1037.16 C 500.27 1056.18 526.86 1075.26 556.62 1088.46 C 577.41 1097.80 600.11 1103.63 623.01 1102.93 C 642.53 1102.65 661.66 1097.78 679.83 1090.89 Z" />
<path fill="#2959a3" opacity="1.00" d=" M 522.36 1126.15 C 522.59 1124.42 522.93 1122.71 523.28 1121.03 C 537.36 1129.88 552.12 1137.62 567.43 1144.10 C 567.79 1148.76 568.15 1153.43 568.61 1158.09 C 551.27 1152.15 536.47 1140.70 522.02 1129.71 C 522.11 1128.51 522.22 1127.32 522.36 1126.15 Z" />
<path fill="#2959a3" opacity="1.00" d=" M 683.36 1143.38 C 697.95 1137.69 711.16 1129.12 725.47 1122.86 C 725.80 1125.25 726.14 1127.65 726.46 1130.06 C 712.77 1140.65 698.53 1150.92 682.48 1157.63 C 682.99 1152.89 683.51 1148.15 683.36 1143.38 Z" />
<path fill="#010165" opacity="1.00" d=" M 491.21 1128.03 C 500.85 1122.72 512.01 1125.36 522.36 1126.15 C 522.22 1127.32 522.11 1128.51 522.02 1129.71 C 521.09 1140.86 520.18 1152.06 517.84 1163.02 C 508.15 1152.01 499.46 1140.14 491.21 1128.03 Z" />
<path fill="#010165" opacity="1.00" d=" M 730.40 1135.26 C 737.62 1134.52 744.87 1135.08 752.02 1136.24 C 745.12 1145.03 739.39 1154.81 731.16 1162.49 C 728.54 1153.90 729.23 1144.61 727.18 1135.84 C 727.98 1135.70 729.60 1135.40 730.40 1135.26 Z" />
<path fill="#010165" opacity="1.00" d=" M 567.43 1144.10 C 580.16 1149.71 593.95 1152.48 607.68 1154.27 C 618.48 1155.89 629.50 1155.60 640.31 1154.26 C 655.03 1152.42 669.58 1148.90 683.36 1143.38 C 683.51 1148.15 682.99 1152.89 682.48 1157.63 C 682.22 1161.47 681.12 1165.29 681.59 1169.16 C 675.37 1168.89 669.11 1169.83 662.94 1169.08 C 657.09 1167.42 651.00 1168.05 645.01 1167.91 C 632.96 1167.77 620.97 1171.28 608.95 1169.26 C 602.97 1168.42 597.05 1170.13 591.08 1170.02 C 584.22 1169.97 577.36 1169.90 570.51 1169.99 C 569.81 1166.03 569.13 1162.07 568.61 1158.09 C 568.15 1153.43 567.79 1148.76 567.43 1144.10 Z" />
<path fill="#0e0e6f" opacity="0.93" d=" M 607.68 1154.27 C 618.53 1153.52 629.45 1153.68 640.31 1154.26 C 629.50 1155.60 618.48 1155.89 607.68 1154.27 Z" />
<path fill="#010156" opacity="1.00" d=" M 608.95 1169.26 C 620.97 1171.28 632.96 1167.77 645.01 1167.91 C 651.00 1168.05 657.09 1167.42 662.94 1169.08 C 669.10 1170.16 675.42 1169.69 681.66 1169.79 C 680.02 1175.96 680.33 1182.59 678.74 1188.86 C 645.77 1205.50 605.70 1203.36 572.39 1188.80 C 571.68 1182.54 571.05 1176.27 570.51 1169.99 C 577.36 1169.90 584.22 1169.97 591.08 1170.02 C 597.05 1170.13 602.97 1168.42 608.95 1169.26 Z" />
</svg>
