<?xml version="1.0" encoding="UTF-8" ?>
<!DOCTYPE svg PUBLIC "-//W3C//DTD SVG 1.1//EN" "http://www.w3.org/Graphics/SVG/1.1/DTD/svg11.dtd">
<svg width="1250pt" height="1250pt" viewBox="0 0 1250 1250" version="1.1" xmlns="http://www.w3.org/2000/svg">
<path fill="#010173" opacity="1.00" d=" M 559.91 47.25 C 639.96 38.16 722.36 44.87 798.71 71.29 C 832.28 82.88 864.34 99.05 893.15 119.86 C 914.81 135.50 934.69 153.74 951.12 174.86 C 961.14 187.75 970.92 200.94 978.63 215.38 C 986.95 230.74 993.46 246.99 999.37 263.40 C 1004.41 263.83 1009.45 264.28 1014.50 264.70 C 1014.09 229.43 1012.07 193.89 1017.35 158.86 C 1019.75 144.18 1023.91 129.74 1030.29 116.29 C 1031.85 112.74 1035.48 110.85 1038.86 109.40 C 1056.68 128.14 1065.72 153.25 1070.84 178.16 C 1072.33 185.30 1073.55 192.50 1074.65 199.72 C 1081.51 194.74 1088.93 190.46 1096.94 187.64 C 1100.34 201.48 1100.13 215.83 1100.72 229.97 C 1101.30 260.00 1099.06 289.98 1097.89 319.96 C 1094.67 366.44 1090.28 412.83 1084.51 459.06 C 1082.68 472.79 1081.64 486.80 1076.80 499.90 C 1070.78 517.58 1058.96 533.34 1043.11 543.33 C 1034.09 549.04 1023.79 552.93 1013.10 553.73 C 1001.52 554.77 989.95 553.09 978.37 553.06 C 967.41 568.27 956.17 583.56 941.85 595.81 C 930.50 607.22 917.92 617.41 904.29 625.96 C 911.48 642.94 919.43 659.83 922.93 678.06 C 923.62 682.37 926.44 685.81 928.59 689.47 C 943.07 713.40 953.60 740.14 956.32 768.12 C 957.66 779.38 959.42 790.96 956.66 802.15 C 952.68 818.25 944.70 833.99 931.46 844.40 C 922.05 852.44 910.09 856.72 898.09 859.04 C 886.22 892.61 867.71 923.20 849.96 953.87 C 841.27 969.27 831.68 984.21 824.43 1000.38 C 822.51 1004.97 820.03 1009.28 817.75 1013.70 C 807.80 1033.07 799.69 1053.32 789.82 1072.74 C 783.52 1084.94 776.60 1096.82 769.73 1108.70 C 764.07 1118.23 758.11 1127.61 751.25 1136.33 C 744.07 1134.64 736.66 1134.67 729.37 1135.45 C 728.72 1135.44 727.43 1135.41 726.79 1135.39 C 726.60 1133.59 726.43 1131.79 726.29 1130.01 C 726.07 1127.37 725.78 1124.74 725.42 1122.13 C 714.58 1126.69 704.49 1132.80 693.91 1137.89 C 690.23 1139.70 686.33 1141.02 682.81 1143.14 C 674.71 1147.00 665.91 1149.21 657.20 1151.22 C 651.06 1152.43 644.88 1153.82 638.60 1153.72 C 631.40 1152.88 624.14 1152.86 616.92 1153.06 C 614.63 1153.07 612.42 1153.68 610.25 1154.32 C 601.98 1153.81 593.87 1151.98 585.79 1150.26 C 579.68 1148.78 573.49 1147.19 567.86 1144.33 C 559.82 1139.76 551.15 1136.41 543.11 1131.83 C 536.12 1128.43 529.73 1123.89 522.60 1120.81 C 522.34 1122.56 522.10 1124.33 521.92 1126.12 C 511.73 1124.97 500.77 1123.37 491.14 1127.88 C 462.88 1088.09 446.54 1041.71 425.98 997.84 C 421.54 987.92 415.97 978.58 410.65 969.13 C 391.03 934.88 369.82 901.24 355.39 864.34 C 336.50 863.58 317.13 857.06 303.74 843.28 C 288.85 827.03 280.23 804.19 283.57 782.09 C 284.85 771.04 285.79 759.89 288.63 749.10 C 296.19 718.51 312.47 690.96 330.86 665.71 C 336.29 652.43 340.94 638.79 347.13 625.82 C 342.01 621.54 336.12 618.33 330.89 614.19 C 308.85 596.71 289.99 575.47 273.92 552.45 C 261.60 552.78 249.24 554.42 236.93 552.97 C 223.92 551.52 211.72 545.52 201.67 537.28 C 185.34 523.78 174.52 504.00 171.35 483.10 C 164.90 439.59 160.56 395.79 157.00 351.96 C 155.73 337.67 154.49 323.37 154.00 309.03 C 152.39 272.37 149.90 235.56 153.29 198.91 C 153.61 194.89 154.51 190.94 155.57 187.05 C 163.45 190.05 170.73 194.37 177.79 198.94 C 181.01 177.59 185.58 156.17 194.73 136.49 C 199.44 126.13 206.06 116.65 214.21 108.70 C 217.16 110.72 220.60 112.54 222.21 115.91 C 230.84 134.08 235.06 154.03 236.99 173.96 C 239.72 203.96 238.18 234.11 237.95 264.18 C 242.95 263.76 247.95 263.34 252.95 262.95 C 259.89 244.00 267.45 225.16 277.80 207.78 C 293.89 181.14 314.33 157.17 337.84 136.80 C 357.99 119.23 380.56 104.59 404.38 92.50 C 452.77 67.77 506.02 53.31 559.91 47.25 M 530.19 70.75 C 480.34 79.84 431.49 96.61 388.20 123.21 C 359.79 140.88 334.22 163.24 313.48 189.52 C 294.67 213.32 280.19 240.40 269.73 268.84 C 256.92 303.74 250.39 340.83 249.56 377.97 C 248.84 394.66 246.98 411.72 251.08 428.14 C 249.26 436.77 251.45 445.56 253.07 454.05 C 261.01 492.44 278.15 528.86 302.52 559.56 C 320.84 582.61 343.40 602.14 368.19 617.96 C 369.54 619.41 370.79 617.56 371.70 616.68 C 380.34 606.96 390.04 598.26 399.75 589.63 C 403.75 586.43 407.71 583.19 411.61 579.87 L 411.36 579.64 C 414.53 577.81 417.11 575.16 419.99 572.93 C 438.85 558.42 460.00 546.21 483.26 540.44 C 500.59 536.15 519.62 536.24 535.96 544.07 C 549.97 550.70 560.10 563.28 567.20 576.74 C 574.03 587.29 575.05 600.21 575.53 612.43 C 575.16 618.39 574.64 624.35 573.97 630.29 C 571.26 646.07 566.39 661.37 560.67 676.30 C 601.05 679.49 641.67 679.95 682.08 677.12 C 676.12 662.28 670.82 646.98 668.88 631.03 L 668.49 631.05 C 667.76 625.18 666.79 619.33 666.39 613.42 C 668.15 600.71 669.60 587.72 674.82 575.84 C 681.10 560.32 693.60 547.12 709.53 541.46 C 719.83 537.38 731.07 537.20 741.96 537.90 C 760.37 539.69 777.89 546.38 794.34 554.57 C 808.93 562.20 822.94 571.00 835.98 581.06 C 840.17 584.32 844.14 587.86 847.97 591.54 L 848.35 591.34 C 848.45 592.38 849.78 592.88 850.44 593.70 C 860.05 602.63 868.55 612.66 877.88 621.88 C 889.90 614.48 901.46 606.33 912.32 597.31 C 922.36 589.84 931.67 581.37 939.89 571.92 C 966.06 542.77 985.29 507.49 995.74 469.75 C 999.51 456.10 1002.47 441.98 1001.81 427.75 C 1004.42 414.31 1003.90 400.52 1003.29 386.91 C 1002.56 374.63 1002.41 362.30 1001.07 350.06 C 995.88 298.83 979.10 248.45 950.39 205.55 C 934.94 182.27 915.73 161.56 893.90 144.14 C 868.64 123.91 840.13 107.89 810.11 95.89 C 768.12 78.91 723.47 68.96 678.43 64.76 C 629.05 60.39 579.01 61.86 530.19 70.75 M 213.43 126.87 C 213.29 127.37 213.00 128.38 212.86 128.88 C 211.17 132.02 209.97 135.38 208.73 138.71 C 198.38 166.75 194.08 196.51 189.93 225.96 C 189.53 228.02 188.13 229.68 187.00 231.38 C 183.96 227.58 179.82 224.92 175.93 222.07 C 174.61 218.43 171.02 216.37 168.23 213.96 C 168.43 255.06 169.99 296.13 171.79 337.18 C 172.24 346.98 172.27 356.87 174.29 366.52 C 177.14 364.20 177.61 360.40 178.42 357.05 C 183.44 334.57 187.74 311.77 196.25 290.28 C 199.53 286.04 202.31 281.46 205.29 277.01 C 210.10 274.68 214.85 272.23 219.64 269.89 C 221.03 269.45 222.41 269.03 223.81 268.61 C 225.13 256.79 224.23 244.87 224.55 233.00 C 225.04 217.69 224.82 202.37 224.34 187.06 C 223.48 169.91 221.77 152.68 217.13 136.10 C 216.24 132.90 215.08 129.76 213.43 126.87 M 1038.60 127.69 L 1038.68 128.09 C 1034.16 136.17 1033.17 145.54 1031.36 154.46 C 1025.37 192.36 1028.09 230.83 1028.11 269.00 C 1029.70 269.43 1031.29 269.86 1032.90 270.31 C 1037.69 272.78 1042.44 275.32 1047.29 277.69 C 1050.39 282.48 1053.49 287.27 1056.66 292.01 C 1063.69 310.47 1067.98 329.80 1072.07 349.09 C 1073.56 355.41 1074.27 362.10 1077.70 367.76 C 1079.42 363.04 1079.36 357.94 1079.82 353.00 C 1081.11 333.71 1081.43 314.38 1082.29 295.08 C 1083.22 268.29 1084.33 241.50 1083.98 214.69 C 1080.75 217.32 1076.96 219.84 1075.43 223.90 C 1071.36 226.00 1067.46 228.70 1064.76 232.46 C 1060.86 223.46 1060.85 213.52 1059.17 204.01 C 1055.51 180.55 1050.99 156.99 1041.76 135.00 C 1040.48 132.68 1041.59 128.67 1038.60 127.69 M 217.03 293.20 C 212.60 295.60 209.38 299.78 207.46 304.37 C 203.10 314.88 200.20 325.94 198.25 337.13 C 194.80 356.67 190.24 375.99 186.67 395.50 C 183.65 411.81 185.17 428.48 186.27 444.90 C 186.29 464.35 185.95 484.99 195.39 502.64 C 202.36 515.78 213.91 526.73 227.96 531.89 C 239.25 535.73 251.42 535.35 263.15 534.43 C 260.50 526.84 256.51 519.82 253.58 512.35 C 248.99 500.69 245.38 488.69 241.79 476.70 L 241.35 476.66 C 239.15 465.82 236.70 455.02 235.10 444.07 C 231.75 422.21 232.81 400.04 233.09 378.02 C 234.07 346.08 239.96 314.57 246.36 283.35 C 236.30 285.66 226.15 288.26 217.03 293.20 M 1005.90 283.93 C 1007.14 290.12 1008.47 296.30 1009.70 302.51 C 1015.82 331.56 1019.30 361.18 1019.55 390.89 C 1019.65 402.22 1019.71 413.57 1019.35 424.91 C 1018.46 441.78 1014.85 458.33 1011.67 474.88 C 1009.29 479.23 1008.66 484.24 1007.14 488.91 C 1002.42 504.71 995.91 519.89 989.12 534.90 C 1001.85 535.91 1015.23 536.37 1027.23 531.30 C 1045.38 523.42 1058.56 506.11 1063.08 487.04 C 1066.03 473.56 1066.50 459.66 1065.88 445.92 C 1067.72 436.71 1066.61 427.27 1067.41 417.97 C 1068.07 409.75 1067.08 401.52 1065.35 393.49 C 1062.57 380.68 1060.18 367.79 1057.46 354.97 C 1054.11 338.39 1051.90 321.38 1045.29 305.67 C 1043.23 300.84 1040.08 296.17 1035.31 293.69 C 1026.16 288.76 1016.02 286.03 1005.90 283.93 M 700.35 568.37 C 689.71 579.26 683.74 594.73 684.90 609.97 C 686.15 627.74 690.93 645.05 697.02 661.73 C 714.71 655.87 732.18 648.52 747.14 637.21 C 769.66 622.48 787.80 601.69 801.16 578.45 C 785.27 568.70 768.79 559.32 750.63 554.57 C 733.01 550.12 713.21 555.50 700.35 568.37 M 487.91 559.21 C 470.73 564.37 454.76 572.92 439.79 582.70 C 446.99 594.65 455.15 606.08 464.61 616.37 C 474.07 627.10 485.58 635.70 497.41 643.64 C 511.42 653.86 527.73 660.24 544.05 665.74 C 549.88 649.34 554.68 632.41 556.04 614.99 C 557.83 595.66 548.22 575.59 531.74 565.23 C 518.80 557.35 502.49 554.71 487.91 559.21 M 783.81 618.73 C 771.73 631.57 757.41 642.06 742.68 651.66 C 729.82 660.15 715.29 665.67 700.67 670.29 C 709.95 690.54 720.91 710.04 733.28 728.57 C 745.49 747.06 759.55 764.23 774.18 780.84 C 787.61 795.79 802.67 809.30 819.09 820.90 C 835.12 831.93 853.36 840.04 872.62 843.27 C 887.06 845.35 901.65 840.40 913.62 832.50 C 928.36 822.13 939.24 805.26 940.17 787.00 C 940.36 756.47 929.32 727.01 913.96 701.02 C 902.40 681.21 888.30 663.03 873.39 645.65 C 853.94 623.05 832.43 602.16 808.71 584.06 C 801.59 596.40 793.65 608.37 783.81 618.73 M 359.82 658.83 C 341.27 681.20 324.74 705.52 313.23 732.30 C 305.15 751.44 300.38 772.23 301.09 793.08 C 303.90 825.54 336.95 851.63 369.17 847.17 C 385.05 844.46 400.20 838.25 413.96 829.94 C 440.63 813.71 462.50 790.89 482.19 766.94 C 505.34 738.65 525.10 707.54 540.38 674.32 C 525.27 669.56 510.29 663.75 497.08 654.87 C 485.90 647.23 474.56 639.67 464.80 630.22 C 451.62 618.22 441.04 603.62 432.37 588.10 C 405.23 608.40 381.50 632.88 359.82 658.83 M 543.72 709.74 C 523.42 744.30 500.05 777.26 472.05 806.02 C 450.72 828.26 425.43 847.50 396.11 857.77 L 396.01 857.58 C 389.48 859.84 382.87 861.90 376.11 863.37 C 382.37 880.96 390.96 897.61 400.22 913.79 C 413.56 936.49 427.35 958.97 442.39 980.60 C 450.82 992.26 459.12 1004.56 471.17 1012.83 C 476.08 1016.26 480.30 1020.93 486.20 1022.72 C 487.54 1025.31 490.08 1026.93 492.33 1028.67 C 519.04 1048.02 546.16 1068.16 577.92 1078.41 C 602.36 1086.52 629.09 1086.43 653.86 1079.79 C 690.33 1070.18 723.41 1051.18 754.78 1030.73 C 758.76 1027.82 763.68 1025.73 766.52 1021.55 C 776.05 1018.53 782.97 1010.74 790.02 1004.05 C 802.82 992.10 811.99 977.04 821.56 962.54 C 842.29 930.28 862.86 897.53 876.78 861.63 C 869.67 861.51 862.53 860.51 855.88 857.96 C 847.02 854.03 837.56 851.55 828.90 847.16 C 802.31 834.32 779.69 814.50 760.21 792.56 L 759.68 792.48 C 755.87 787.06 750.47 782.84 746.61 777.38 C 729.40 756.18 713.88 733.59 699.86 710.16 C 696.69 704.84 693.45 699.57 690.56 694.10 C 644.68 697.04 598.58 696.88 552.74 693.36 C 549.80 698.86 547.00 704.43 543.72 709.74 M 474.14 1036.93 C 485.44 1056.60 499.21 1074.82 514.42 1091.62 C 536.73 1115.57 564.78 1135.75 597.23 1142.75 C 621.36 1147.99 646.93 1145.00 669.63 1135.50 C 698.82 1123.46 723.76 1103.09 745.31 1080.32 C 758.17 1067.11 768.44 1051.68 778.06 1036.04 C 748.77 1054.20 720.07 1073.80 688.04 1086.94 C 669.22 1094.81 649.37 1100.86 628.92 1102.10 C 605.69 1103.97 582.37 1098.80 561.00 1089.90 C 529.53 1076.76 501.71 1056.67 474.14 1036.93 Z" />
<path fill="#ffffff" opacity="1.00" d=" M 530.19 70.75 C 579.01 61.86 629.05 60.39 678.43 64.76 C 723.47 68.96 768.12 78.91 810.11 95.89 C 840.13 107.89 868.64 123.91 893.90 144.14 C 915.73 161.56 934.94 182.27 950.39 205.55 C 979.10 248.45 995.88 298.83 1001.07 350.06 C 1002.41 362.30 1002.56 374.63 1003.29 386.91 C 1003.90 400.52 1004.42 414.31 1001.81 427.75 C 995.08 443.74 988.32 459.77 979.97 475.01 C 965.45 501.57 945.93 525.32 923.02 545.07 C 901.97 563.36 877.86 577.82 852.75 589.79 C 851.54 590.23 850.32 590.62 849.09 590.95 C 848.91 591.05 848.54 591.24 848.35 591.34 L 847.97 591.54 C 844.14 587.86 840.17 584.32 835.98 581.06 C 850.86 574.61 865.87 568.28 879.69 559.73 C 893.52 551.11 907.71 542.79 919.81 531.76 C 940.75 513.14 956.14 488.27 962.99 461.07 C 968.46 440.52 968.83 418.95 966.62 397.91 C 963.37 364.77 953.58 332.11 936.70 303.33 C 922.44 278.86 902.50 258.02 879.88 241.13 C 856.05 223.31 829.25 209.73 801.30 199.67 C 762.98 185.74 722.63 177.93 682.07 174.42 C 643.86 171.29 605.36 171.31 567.17 174.72 C 527.00 178.43 487.06 186.42 449.16 200.41 C 410.36 214.66 373.60 235.88 344.60 265.62 C 318.61 292.32 300.53 326.35 291.72 362.48 C 287.68 379.71 285.13 397.34 284.58 415.04 C 283.92 436.40 286.97 458.05 295.19 477.87 C 302.62 496.27 313.73 513.21 327.81 527.21 C 335.50 534.93 344.27 541.46 353.18 547.71 C 368.96 558.65 385.86 567.97 403.54 575.47 C 406.23 576.68 409.33 577.34 411.36 579.64 L 411.61 579.87 C 407.71 583.19 403.75 586.43 399.75 589.63 C 370.99 575.84 343.83 558.34 320.52 536.48 C 299.93 517.16 282.77 494.26 269.70 469.24 C 262.63 455.95 256.67 442.11 251.08 428.14 C 246.98 411.72 248.84 394.66 249.56 377.97 C 250.39 340.83 256.92 303.74 269.73 268.84 C 280.19 240.40 294.67 213.32 313.48 189.52 C 334.22 163.24 359.79 140.88 388.20 123.21 C 431.49 96.61 480.34 79.84 530.19 70.75 Z" />
<path fill="#01c08e" opacity="1.00" d=" M 213.43 126.87 C 215.08 129.76 216.24 132.90 217.13 136.10 C 221.77 152.68 223.48 169.91 224.34 187.06 C 224.82 202.37 225.04 217.69 224.55 233.00 C 224.23 244.87 225.13 256.79 223.81 268.61 C 222.41 269.03 221.03 269.45 219.64 269.89 C 218.33 261.65 218.25 253.31 218.42 245.00 C 217.89 215.92 217.83 186.82 215.61 157.80 C 214.53 148.18 213.05 138.58 212.86 128.88 C 213.00 128.38 213.29 127.37 213.43 126.87 Z" />
<path fill="#00795b" opacity="1.00" d=" M 1038.60 127.69 C 1041.59 128.67 1040.48 132.68 1041.76 135.00 C 1050.99 156.99 1055.51 180.55 1059.17 204.01 C 1060.85 213.52 1060.86 223.46 1064.76 232.46 C 1057.36 246.89 1053.29 262.69 1047.29 277.69 C 1042.44 275.32 1037.69 272.78 1032.90 270.31 C 1033.56 263.90 1033.60 257.44 1033.94 251.01 C 1033.99 237.34 1034.90 223.68 1034.54 210.01 C 1035.06 186.66 1035.58 163.24 1038.92 140.08 C 1039.49 136.10 1039.90 132.00 1038.68 128.09 L 1038.60 127.69 Z" />
<path fill="#00795b" opacity="1.00" d=" M 208.73 138.71 C 209.97 135.38 211.17 132.02 212.86 128.88 C 213.05 138.58 214.53 148.18 215.61 157.80 C 217.83 186.82 217.89 215.92 218.42 245.00 C 218.25 253.31 218.33 261.65 219.64 269.89 C 214.85 272.23 210.10 274.68 205.29 277.01 C 202.12 269.24 199.25 261.35 196.45 253.43 C 193.81 245.89 191.53 238.06 187.00 231.38 C 188.13 229.68 189.53 228.02 189.93 225.96 C 194.08 196.51 198.38 166.75 208.73 138.71 Z" />
<path fill="#01c08e" opacity="1.00" d=" M 1038.68 128.09 C 1039.90 132.00 1039.49 136.10 1038.92 140.08 C 1035.58 163.24 1035.06 186.66 1034.54 210.01 C 1034.90 223.68 1033.99 237.34 1033.94 251.01 C 1033.60 257.44 1033.56 263.90 1032.90 270.31 C 1031.29 269.86 1029.70 269.43 1028.11 269.00 C 1028.09 230.83 1025.37 192.36 1031.36 154.46 C 1033.17 145.54 1034.16 136.17 1038.68 128.09 Z" />
<path fill="#2959a3" opacity="1.00" d=" M 567.17 174.72 C 605.36 171.31 643.86 171.29 682.07 174.42 C 722.63 177.93 762.98 185.74 801.30 199.67 C 829.25 209.73 856.05 223.31 879.88 241.13 C 902.50 258.02 922.44 278.86 936.70 303.33 C 953.58 332.11 963.37 364.77 966.62 397.91 C 968.83 418.95 968.46 440.52 962.99 461.07 C 956.14 488.27 940.75 513.14 919.81 531.76 C 907.71 542.79 893.52 551.11 879.69 559.73 C 865.87 568.28 850.86 574.61 835.98 581.06 C 822.94 571.00 808.93 562.20 794.34 554.57 C 777.89 546.38 760.37 539.69 741.96 537.90 C 731.07 537.20 719.83 537.38 709.53 541.46 C 693.60 547.12 681.10 560.32 674.82 575.84 C 669.60 587.72 668.15 600.71 666.39 613.42 C 636.13 615.36 605.76 614.64 575.53 612.43 C 575.05 600.21 574.03 587.29 567.20 576.74 C 560.10 563.28 549.97 550.70 535.96 544.07 C 519.62 536.24 500.59 536.15 483.26 540.44 C 460.00 546.21 438.85 558.42 419.99 572.93 C 417.11 575.16 414.53 577.81 411.36 579.64 C 409.33 577.34 406.23 576.68 403.54 575.47 C 385.86 567.97 368.96 558.65 353.18 547.71 C 344.27 541.46 335.50 534.93 327.81 527.21 C 313.73 513.21 302.62 496.27 295.19 477.87 C 286.97 458.05 283.92 436.40 284.58 415.04 C 285.13 397.34 287.68 379.71 291.72 362.48 C 300.53 326.35 318.61 292.32 344.60 265.62 C 373.60 235.88 410.36 214.66 449.16 200.41 C 487.06 186.42 527.00 178.43 567.17 174.72 M 564.89 194.44 C 524.94 198.51 485.28 207.06 447.86 221.80 C 419.83 232.67 393.17 247.65 370.52 267.54 C 350.30 285.18 333.58 306.93 322.53 331.43 C 312.55 353.31 306.64 377.02 304.99 401.01 C 305.14 402.66 304.56 405.25 306.45 406.09 C 308.39 398.53 309.62 390.81 311.30 383.20 C 321.13 342.80 345.46 306.74 377.12 280.13 C 395.51 264.43 416.79 252.49 438.92 242.90 C 492.72 219.51 551.64 209.82 610.03 208.73 C 645.08 207.87 680.28 209.33 714.95 214.83 C 751.35 220.74 787.34 230.46 820.78 246.18 C 846.63 258.47 871.35 273.97 891.35 294.64 C 915.79 319.48 933.85 350.90 941.53 385.00 C 943.36 392.79 944.11 400.83 946.49 408.50 C 948.15 404.25 947.69 399.57 947.39 395.13 C 944.56 376.42 940.79 357.71 933.59 340.13 C 923.11 313.41 906.15 289.41 884.90 270.17 C 861.01 248.30 832.33 232.12 802.09 220.79 C 763.16 205.94 721.98 197.44 680.54 193.71 C 642.08 190.33 603.31 190.65 564.89 194.44 M 510.51 260.72 C 498.66 263.27 486.95 267.70 477.42 275.36 C 448.18 297.51 431.56 335.51 435.97 372.01 C 438.07 387.04 444.58 401.79 455.76 412.26 C 464.56 421.47 477.53 425.67 490.03 425.97 C 509.04 425.81 526.64 415.96 540.07 403.06 C 550.00 394.22 556.82 382.60 562.82 370.90 C 566.16 364.27 567.58 356.92 569.98 349.94 C 575.15 334.11 574.56 316.64 568.91 301.02 C 562.23 276.22 536.51 256.79 510.51 260.72 M 717.52 261.67 C 703.34 264.58 690.43 273.47 683.09 286.00 C 672.98 302.26 670.29 322.32 673.11 341.04 C 676.30 362.11 686.13 381.95 700.16 397.91 C 708.18 407.54 719.11 414.18 730.08 419.94 C 744.12 426.08 760.84 427.15 775.10 421.10 C 785.98 415.50 794.55 406.03 800.32 395.34 C 807.84 380.99 811.32 364.15 808.27 348.10 C 806.38 331.05 799.88 314.72 790.49 300.44 C 781.14 286.35 768.37 274.25 753.00 266.99 C 741.99 262.07 729.53 259.11 717.52 261.67 M 614.53 406.73 C 599.50 408.87 585.69 417.65 576.97 430.01 C 568.68 441.57 565.13 455.96 564.91 470.04 C 564.79 484.37 564.53 498.70 564.73 513.03 C 565.08 524.47 564.82 536.22 568.74 547.15 C 574.50 564.93 588.78 580.18 606.96 585.35 C 621.05 589.39 636.77 587.73 649.54 580.48 C 665.19 571.45 676.10 554.97 678.72 537.14 C 679.73 531.15 679.32 525.07 679.31 519.04 C 679.15 503.04 679.18 487.03 679.38 471.03 C 679.45 466.66 679.60 462.27 678.97 457.93 C 676.67 440.21 666.47 423.34 650.98 414.16 C 640.21 407.47 627.05 404.86 614.53 406.73 Z" />
<path fill="#a8a6ce" opacity="1.00" d=" M 564.89 194.44 C 603.31 190.65 642.08 190.33 680.54 193.71 C 721.98 197.44 763.16 205.94 802.09 220.79 C 832.33 232.12 861.01 248.30 884.90 270.17 C 906.15 289.41 923.11 313.41 933.59 340.13 C 940.79 357.71 944.56 376.42 947.39 395.13 C 947.69 399.57 948.15 404.25 946.49 408.50 C 944.11 400.83 943.36 392.79 941.53 385.00 C 933.85 350.90 915.79 319.48 891.35 294.64 C 871.35 273.97 846.63 258.47 820.78 246.18 C 787.34 230.46 751.35 220.74 714.95 214.83 C 680.28 209.33 645.08 207.87 610.03 208.73 C 551.64 209.82 492.72 219.51 438.92 242.90 C 416.79 252.49 395.51 264.43 377.12 280.13 C 345.46 306.74 321.13 342.80 311.30 383.20 C 309.62 390.81 308.39 398.53 306.45 406.09 C 304.56 405.25 305.14 402.66 304.99 401.01 C 306.64 377.02 312.55 353.31 322.53 331.43 C 333.58 306.93 350.30 285.18 370.52 267.54 C 393.17 247.65 419.83 232.67 447.86 221.80 C 485.28 207.06 524.94 198.51 564.89 194.44 Z" />
<path fill="#01c08e" opacity="1.00" d=" M 168.23 213.96 C 171.02 216.37 174.61 218.43 175.93 222.07 C 177.63 228.01 179.10 234.03 181.15 239.87 C 186.65 256.53 190.49 273.70 196.25 290.28 C 187.74 311.77 183.44 334.57 178.42 357.05 C 177.61 360.40 177.14 364.20 174.29 366.52 C 172.27 356.87 172.24 346.98 171.79 337.18 C 169.99 296.13 168.43 255.06 168.23 213.96 Z" />
<path fill="#01c08e" opacity="1.00" d=" M 1075.43 223.90 C 1076.96 219.84 1080.75 217.32 1083.98 214.69 C 1084.33 241.50 1083.22 268.29 1082.29 295.08 C 1081.43 314.38 1081.11 333.71 1079.82 353.00 C 1079.36 357.94 1079.42 363.04 1077.70 367.76 C 1074.27 362.10 1073.56 355.41 1072.07 349.09 C 1067.98 329.80 1063.69 310.47 1056.66 292.01 C 1059.12 280.22 1062.91 268.74 1066.06 257.12 C 1068.95 245.97 1073.87 235.38 1075.43 223.90 Z" />
<path fill="#0f9e85" opacity="1.00" d=" M 175.93 222.07 C 179.82 224.92 183.96 227.58 187.00 231.38 C 191.53 238.06 193.81 245.89 196.45 253.43 C 199.25 261.35 202.12 269.24 205.29 277.01 C 202.31 281.46 199.53 286.04 196.25 290.28 C 190.49 273.70 186.65 256.53 181.15 239.87 C 179.10 234.03 177.63 228.01 175.93 222.07 Z" />
<path fill="#0f9e85" opacity="1.00" d=" M 1064.76 232.46 C 1067.46 228.70 1071.36 226.00 1075.43 223.90 C 1073.87 235.38 1068.95 245.97 1066.06 257.12 C 1062.91 268.74 1059.12 280.22 1056.66 292.01 C 1053.49 287.27 1050.39 282.48 1047.29 277.69 C 1053.29 262.69 1057.36 246.89 1064.76 232.46 Z" />
<path fill="#01c08e" opacity="1.00" d=" M 510.51 260.72 C 536.51 256.79 562.23 276.22 568.91 301.02 C 574.56 316.64 575.15 334.11 569.98 349.94 C 567.58 356.92 566.16 364.27 562.82 370.90 C 556.82 382.60 550.00 394.22 540.07 403.06 C 526.64 415.96 509.04 425.81 490.03 425.97 C 477.53 425.67 464.56 421.47 455.76 412.26 C 444.58 401.79 438.07 387.04 435.97 372.01 C 431.56 335.51 448.18 297.51 477.42 275.36 C 486.95 267.70 498.66 263.27 510.51 260.72 Z" />
<path fill="#01c08e" opacity="1.00" d=" M 717.52 261.67 C 729.53 259.11 741.99 262.07 753.00 266.99 C 768.37 274.25 781.14 286.35 790.49 300.44 C 799.88 314.72 806.38 331.05 808.27 348.10 C 811.32 364.15 807.84 380.99 800.32 395.34 C 794.55 406.03 785.98 415.50 775.10 421.10 C 760.84 427.15 744.12 426.08 730.08 419.94 C 719.11 414.18 708.18 407.54 700.16 397.91 C 686.13 381.95 676.30 362.11 673.11 341.04 C 670.29 322.32 672.98 302.26 683.09 286.00 C 690.43 273.47 703.34 264.58 717.52 261.67 Z" />
<path fill="#ffffff" opacity="1.00" d=" M 217.03 293.20 C 226.15 288.26 236.30 285.66 246.36 283.35 C 239.96 314.57 234.07 346.08 233.09 378.02 C 232.81 400.04 231.75 422.21 235.10 444.07 C 236.70 455.02 239.15 465.82 241.35 476.66 C 231.57 475.78 221.83 473.39 213.07 468.89 C 206.03 465.29 200.14 459.90 194.56 454.39 C 191.58 451.43 188.24 448.68 186.27 444.90 C 185.17 428.48 183.65 411.81 186.67 395.50 C 190.24 375.99 194.80 356.67 198.25 337.13 C 200.20 325.94 203.10 314.88 207.46 304.37 C 209.38 299.78 212.60 295.60 217.03 293.20 Z" />
<path fill="#ffffff" opacity="1.00" d=" M 1005.90 283.93 C 1016.02 286.03 1026.16 288.76 1035.31 293.69 C 1040.08 296.17 1043.23 300.84 1045.29 305.67 C 1051.90 321.38 1054.11 338.39 1057.46 354.97 C 1060.18 367.79 1062.57 380.68 1065.35 393.49 C 1067.08 401.52 1068.07 409.75 1067.41 417.97 C 1066.61 427.27 1067.72 436.71 1065.88 445.92 C 1058.47 455.16 1049.79 463.66 1039.31 469.35 C 1030.85 473.96 1021.27 475.88 1011.84 477.31 C 1011.80 476.70 1011.71 475.48 1011.67 474.88 C 1014.85 458.33 1018.46 441.78 1019.35 424.91 C 1019.71 413.57 1019.65 402.22 1019.55 390.89 C 1019.30 361.18 1015.82 331.56 1009.70 302.51 C 1008.47 296.30 1007.14 290.12 1005.90 283.93 Z" />
<path fill="#01c08e" opacity="1.00" d=" M 614.53 406.73 C 627.05 404.86 640.21 407.47 650.98 414.16 C 666.47 423.34 676.67 440.21 678.97 457.93 C 679.60 462.27 679.45 466.66 679.38 471.03 C 679.18 487.03 679.15 503.04 679.31 519.04 C 679.32 525.07 679.73 531.15 678.72 537.14 C 676.10 554.97 665.19 571.45 649.54 580.48 C 636.77 587.73 621.05 589.39 606.96 585.35 C 588.78 580.18 574.50 564.93 568.74 547.15 C 564.82 536.22 565.08 524.47 564.73 513.03 C 564.53 498.70 564.79 484.37 564.91 470.04 C 565.13 455.96 568.68 441.57 576.97 430.01 C 585.69 417.65 599.50 408.87 614.53 406.73 Z" />
<path fill="#a8a6ce" opacity="1.00" d=" M 979.97 475.01 C 988.32 459.77 995.08 443.74 1001.81 427.75 C 1002.47 441.98 999.51 456.10 995.74 469.75 C 985.29 507.49 966.06 542.77 939.89 571.92 C 931.67 581.37 922.36 589.84 912.32 597.31 C 901.46 606.33 889.90 614.48 877.88 621.88 C 868.55 612.66 860.05 602.63 850.44 593.70 C 849.78 592.88 848.45 592.38 848.35 591.34 C 848.54 591.24 848.91 591.05 849.09 590.95 C 850.32 590.62 851.54 590.23 852.75 589.79 C 877.86 577.82 901.97 563.36 923.02 545.07 C 945.93 525.32 965.45 501.57 979.97 475.01 Z" />
<path fill="#a8a6ce" opacity="1.00" d=" M 253.07 454.05 C 251.45 445.56 249.26 436.77 251.08 428.14 C 256.67 442.11 262.63 455.95 269.70 469.24 C 282.77 494.26 299.93 517.16 320.52 536.48 C 343.83 558.34 370.99 575.84 399.75 589.63 C 390.04 598.26 380.34 606.96 371.70 616.68 C 370.79 617.56 369.54 619.41 368.19 617.96 C 343.40 602.14 320.84 582.61 302.52 559.56 C 278.15 528.86 261.01 492.44 253.07 454.05 Z" />
<path fill="#a8a6ce" opacity="1.00" d=" M 186.27 444.90 C 188.24 448.68 191.58 451.43 194.56 454.39 C 200.14 459.90 206.03 465.29 213.07 468.89 C 221.83 473.39 231.57 475.78 241.35 476.66 L 241.79 476.70 C 245.38 488.69 248.99 500.69 253.58 512.35 C 256.51 519.82 260.50 526.84 263.15 534.43 C 251.42 535.35 239.25 535.73 227.96 531.89 C 213.91 526.73 202.36 515.78 195.39 502.64 C 185.95 484.99 186.29 464.35 186.27 444.90 Z" />
<path fill="#a8a6ce" opacity="1.00" d=" M 1039.31 469.35 C 1049.79 463.66 1058.47 455.16 1065.88 445.92 C 1066.50 459.66 1066.03 473.56 1063.08 487.04 C 1058.56 506.11 1045.38 523.42 1027.23 531.30 C 1015.23 536.37 1001.85 535.91 989.12 534.90 C 995.91 519.89 1002.42 504.71 1007.14 488.91 C 1008.66 484.24 1009.29 479.23 1011.67 474.88 C 1011.71 475.48 1011.80 476.70 1011.84 477.31 C 1021.27 475.88 1030.85 473.96 1039.31 469.35 Z" />
<path fill="#ffffff" opacity="1.00" d=" M 700.35 568.37 C 713.21 555.50 733.01 550.12 750.63 554.57 C 768.79 559.32 785.27 568.70 801.16 578.45 C 787.80 601.69 769.66 622.48 747.14 637.21 C 732.18 648.52 714.71 655.87 697.02 661.73 C 690.93 645.05 686.15 627.74 684.90 609.97 C 683.74 594.73 689.71 579.26 700.35 568.37 Z" />
<path fill="#ffffff" opacity="1.00" d=" M 487.91 559.21 C 502.49 554.71 518.80 557.35 531.74 565.23 C 548.22 575.59 557.83 595.66 556.04 614.99 C 554.68 632.41 549.88 649.34 544.05 665.74 C 527.73 660.24 511.42 653.86 497.41 643.64 C 485.58 635.70 474.07 627.10 464.61 616.37 C 455.15 606.08 446.99 594.65 439.79 582.70 C 454.76 572.92 470.73 564.37 487.91 559.21 Z" />
<path fill="#ffffff" opacity="1.00" d=" M 783.81 618.73 C 793.65 608.37 801.59 596.40 808.71 584.06 C 832.43 602.16 853.94 623.05 873.39 645.65 C 888.30 663.03 902.40 681.21 913.96 701.02 C 929.32 727.01 940.36 756.47 940.17 787.00 C 939.24 805.26 928.36 822.13 913.62 832.50 C 901.65 840.40 887.06 845.35 872.62 843.27 C 853.36 840.04 835.12 831.93 819.09 820.90 C 802.67 809.30 787.61 795.79 774.18 780.84 C 759.55 764.23 745.49 747.06 733.28 728.57 C 720.91 710.04 709.95 690.54 700.67 670.29 C 715.29 665.67 729.82 660.15 742.68 651.66 C 757.41 642.06 771.73 631.57 783.81 618.73 Z" />
<path fill="#ffffff" opacity="1.00" d=" M 359.82 658.83 C 381.50 632.88 405.23 608.40 432.37 588.10 C 441.04 603.62 451.62 618.22 464.80 630.22 C 474.56 639.67 485.90 647.23 497.08 654.87 C 510.29 663.75 525.27 669.56 540.38 674.32 C 525.10 707.54 505.34 738.65 482.19 766.94 C 462.50 790.89 440.63 813.71 413.96 829.94 C 400.20 838.25 385.05 844.46 369.17 847.17 C 336.95 851.63 303.90 825.54 301.09 793.08 C 300.38 772.23 305.15 751.44 313.23 732.30 C 324.74 705.52 341.27 681.20 359.82 658.83 Z" />
<path fill="#ffffff" opacity="1.00" d=" M 575.53 612.43 C 605.76 614.64 636.13 615.36 666.39 613.42 C 666.79 619.33 667.76 625.18 668.49 631.05 C 637.00 632.14 605.42 632.50 573.97 630.29 C 574.64 624.35 575.16 618.39 575.53 612.43 Z" />
<path fill="#a8a6ce" opacity="1.00" d=" M 560.67 676.30 C 566.39 661.37 571.26 646.07 573.97 630.29 C 605.42 632.50 637.00 632.14 668.49 631.05 L 668.88 631.03 C 670.82 646.98 676.12 662.28 682.08 677.12 C 641.67 679.95 601.05 679.49 560.67 676.30 Z" />
<path fill="#a8a6ce" opacity="1.00" d=" M 543.72 709.74 C 547.00 704.43 549.80 698.86 552.74 693.36 C 598.58 696.88 644.68 697.04 690.56 694.10 C 693.45 699.57 696.69 704.84 699.86 710.16 C 682.30 712.01 664.66 713.04 647.00 713.51 C 621.63 713.79 596.21 713.78 570.91 711.71 C 561.85 711.00 552.79 710.26 543.72 709.74 Z" />
<path fill="#ffffff" opacity="1.00" d=" M 472.05 806.02 C 500.05 777.26 523.42 744.30 543.72 709.74 C 552.79 710.26 561.85 711.00 570.91 711.71 C 596.21 713.78 621.63 713.79 647.00 713.51 C 664.66 713.04 682.30 712.01 699.86 710.16 C 713.88 733.59 729.40 756.18 746.61 777.38 C 750.47 782.84 755.87 787.06 759.68 792.48 L 760.21 792.56 C 779.69 814.50 802.31 834.32 828.90 847.16 C 837.56 851.55 847.02 854.03 855.88 857.96 C 839.55 888.56 822.38 918.71 806.74 949.67 C 798.12 966.55 789.26 983.33 779.50 999.60 C 775.41 1007.05 769.52 1013.50 766.52 1021.55 C 763.68 1025.73 758.76 1027.82 754.78 1030.73 C 723.41 1051.18 690.33 1070.18 653.86 1079.79 C 629.09 1086.43 602.36 1086.52 577.92 1078.41 C 546.16 1068.16 519.04 1048.02 492.33 1028.67 C 490.08 1026.93 487.54 1025.31 486.20 1022.72 C 483.16 1015.47 478.37 1009.18 474.56 1002.35 C 448.32 954.21 421.58 906.33 396.11 857.77 C 425.43 847.50 450.72 828.26 472.05 806.02 M 533.39 755.45 C 505.92 773.74 484.24 800.58 472.26 831.33 C 464.64 851.22 461.99 872.81 463.32 894.02 C 464.54 921.79 474.61 948.82 490.53 971.48 C 505.30 992.59 525.16 1010.09 547.97 1022.07 C 586.20 1042.23 632.27 1046.66 673.76 1034.73 C 703.51 1026.34 730.68 1009.22 751.15 986.07 C 771.45 963.26 785.35 934.47 788.87 904.02 C 792.03 877.33 789.36 849.52 778.19 824.87 C 774.72 816.38 769.65 808.68 765.28 800.70 C 764.08 799.55 763.07 798.22 762.33 796.76 C 760.97 795.06 759.35 793.58 758.29 791.67 C 753.30 786.01 748.25 780.40 743.43 774.60 C 715.92 747.47 678.52 730.86 640.03 728.07 C 602.79 725.23 564.50 734.63 533.39 755.45 Z" />
<path fill="#010173" opacity="1.00" d=" M 533.39 755.45 C 564.50 734.63 602.79 725.23 640.03 728.07 C 678.52 730.86 715.92 747.47 743.43 774.60 C 748.25 780.40 753.30 786.01 758.29 791.67 C 759.35 793.58 760.97 795.06 762.33 796.76 C 763.07 798.22 764.08 799.55 765.28 800.70 C 769.65 808.68 774.72 816.38 778.19 824.87 C 789.36 849.52 792.03 877.33 788.87 904.02 C 785.35 934.47 771.45 963.26 751.15 986.07 C 730.68 1009.22 703.51 1026.34 673.76 1034.73 C 632.27 1046.66 586.20 1042.23 547.97 1022.07 C 525.16 1010.09 505.30 992.59 490.53 971.48 C 474.61 948.82 464.54 921.79 463.32 894.02 C 461.99 872.81 464.64 851.22 472.26 831.33 C 484.24 800.58 505.92 773.74 533.39 755.45 M 612.53 740.77 C 556.05 744.63 503.09 783.01 483.13 836.17 C 468.99 874.34 472.63 918.72 493.11 953.93 C 511.83 985.78 542.66 1010.28 577.91 1021.38 C 617.54 1033.92 662.12 1030.33 699.03 1011.13 C 728.06 996.05 751.86 971.13 765.54 941.41 C 786.04 896.38 779.97 840.34 749.86 801.00 C 730.71 775.57 703.32 756.57 672.97 747.07 C 653.49 741.03 632.82 739.19 612.53 740.77 Z" />
<path fill="#ffffff" opacity="1.00" d=" M 612.53 740.77 C 632.82 739.19 653.49 741.03 672.97 747.07 C 703.32 756.57 730.71 775.57 749.86 801.00 C 779.97 840.34 786.04 896.38 765.54 941.41 C 751.86 971.13 728.06 996.05 699.03 1011.13 C 662.12 1030.33 617.54 1033.92 577.91 1021.38 C 542.66 1010.28 511.83 985.78 493.11 953.93 C 472.63 918.72 468.99 874.34 483.13 836.17 C 503.09 783.01 556.05 744.63 612.53 740.77 M 619.94 750.76 C 624.85 767.86 633.76 783.63 637.31 801.15 C 641.01 818.24 640.70 835.83 642.63 853.14 C 644.36 865.89 648.49 878.28 654.42 889.69 C 664.92 909.80 681.84 926.10 701.27 937.58 C 695.08 918.33 685.17 900.35 680.78 880.52 C 676.75 861.20 678.23 841.11 673.05 821.98 C 665.67 792.60 647.35 764.83 619.94 750.76 M 582.65 844.64 C 571.87 854.35 559.23 861.75 548.69 871.75 C 537.41 881.93 527.09 893.47 519.99 906.99 C 511.16 923.88 507.55 943.18 508.08 962.14 C 517.42 952.26 524.51 940.58 533.08 930.08 C 539.64 921.94 547.41 914.83 555.96 908.85 C 567.18 900.93 578.82 893.40 588.33 883.38 C 600.80 870.74 610.88 855.51 616.40 838.56 C 621.19 823.96 622.17 808.47 622.67 793.22 C 609.40 810.40 598.01 829.16 582.65 844.64 M 602.18 896.35 C 612.36 889.99 618.40 878.45 619.75 866.72 C 608.08 871.16 600.64 884.02 602.18 896.35 M 624.74 867.80 C 625.27 874.14 625.43 880.83 628.49 886.59 C 630.88 891.08 635.09 894.17 639.23 896.92 C 640.16 891.35 641.77 885.30 639.24 879.92 C 636.39 873.98 630.27 870.79 624.74 867.80 M 605.46 898.28 C 613.02 907.38 628.58 909.05 636.86 900.03 C 627.11 895.75 615.43 893.34 605.46 898.28 M 549.60 927.86 C 560.60 930.77 571.84 932.78 582.92 935.39 C 594.23 938.13 606.09 939.75 616.28 945.76 C 635.72 956.86 655.79 967.93 678.03 972.16 C 700.85 976.15 725.50 973.82 745.84 962.16 C 730.75 956.28 714.26 955.58 699.03 950.13 C 681.47 944.24 666.98 932.11 650.04 924.89 C 635.25 918.40 619.31 913.75 603.04 914.02 C 584.50 914.26 565.60 918.19 549.60 927.86 Z" />
<path fill="#2959a3" opacity="1.00" d=" M 619.94 750.76 C 647.35 764.83 665.67 792.60 673.05 821.98 C 678.23 841.11 676.75 861.20 680.78 880.52 C 685.17 900.35 695.08 918.33 701.27 937.58 C 681.84 926.10 664.92 909.80 654.42 889.69 C 648.49 878.28 644.36 865.89 642.63 853.14 C 640.70 835.83 641.01 818.24 637.31 801.15 C 633.76 783.63 624.85 767.86 619.94 750.76 Z" />
<path fill="#2959a3" opacity="1.00" d=" M 582.65 844.64 C 598.01 829.16 609.40 810.40 622.67 793.22 C 622.17 808.47 621.19 823.96 616.40 838.56 C 610.88 855.51 600.80 870.74 588.33 883.38 C 578.82 893.40 567.18 900.93 555.96 908.85 C 547.41 914.83 539.64 921.94 533.08 930.08 C 524.51 940.58 517.42 952.26 508.08 962.14 C 507.55 943.18 511.16 923.88 519.99 906.99 C 527.09 893.47 537.41 881.93 548.69 871.75 C 559.23 861.75 571.87 854.35 582.65 844.64 Z" />
<path fill="#a8a6ce" opacity="1.00" d=" M 376.11 863.37 C 382.87 861.90 389.48 859.84 396.01 857.58 L 396.11 857.77 C 421.58 906.33 448.32 954.21 474.56 1002.35 C 478.37 1009.18 483.16 1015.47 486.20 1022.72 C 480.30 1020.93 476.08 1016.26 471.17 1012.83 C 459.12 1004.56 450.82 992.26 442.39 980.60 C 427.35 958.97 413.56 936.49 400.22 913.79 C 390.96 897.61 382.37 880.96 376.11 863.37 Z" />
<path fill="#a8a6ce" opacity="1.00" d=" M 855.88 857.96 C 862.53 860.51 869.67 861.51 876.78 861.63 C 862.86 897.53 842.29 930.28 821.56 962.54 C 811.99 977.04 802.82 992.10 790.02 1004.05 C 782.97 1010.74 776.05 1018.53 766.52 1021.55 C 769.52 1013.50 775.41 1007.05 779.50 999.60 C 789.26 983.33 798.12 966.55 806.74 949.67 C 822.38 918.71 839.55 888.56 855.88 857.96 Z" />
<path fill="#2959a3" opacity="1.00" d=" M 602.18 896.35 C 600.64 884.02 608.08 871.16 619.75 866.72 C 618.40 878.45 612.36 889.99 602.18 896.35 Z" />
<path fill="#2959a3" opacity="1.00" d=" M 624.74 867.80 C 630.27 870.79 636.39 873.98 639.24 879.92 C 641.77 885.30 640.16 891.35 639.23 896.92 C 635.09 894.17 630.88 891.08 628.49 886.59 C 625.43 880.83 625.27 874.14 624.74 867.80 Z" />
<path fill="#2959a3" opacity="1.00" d=" M 605.46 898.28 C 615.43 893.34 627.11 895.75 636.86 900.03 C 628.58 909.05 613.02 907.38 605.46 898.28 Z" />
<path fill="#2959a3" opacity="1.00" d=" M 549.60 927.86 C 565.60 918.19 584.50 914.26 603.04 914.02 C 619.31 913.75 635.25 918.40 650.04 924.89 C 666.98 932.11 681.47 944.24 699.03 950.13 C 714.26 955.58 730.75 956.28 745.84 962.16 C 725.50 973.82 700.85 976.15 678.03 972.16 C 655.79 967.93 635.72 956.86 616.28 945.76 C 606.09 939.75 594.23 938.13 582.92 935.39 C 571.84 932.78 560.60 930.77 549.60 927.86 Z" />
<path fill="#a8a6ce" opacity="1.00" d=" M 474.14 1036.93 C 501.71 1056.67 529.53 1076.76 561.00 1089.90 C 582.37 1098.80 605.69 1103.97 628.92 1102.10 C 649.37 1100.86 669.22 1094.81 688.04 1086.94 C 720.07 1073.80 748.77 1054.20 778.06 1036.04 C 768.44 1051.68 758.17 1067.11 745.31 1080.32 C 723.76 1103.09 698.82 1123.46 669.63 1135.50 C 646.93 1145.00 621.36 1147.99 597.23 1142.75 C 564.78 1135.75 536.73 1115.57 514.42 1091.62 C 499.21 1074.82 485.44 1056.60 474.14 1036.93 Z" />
<path fill="#2959a3" opacity="1.00" d=" M 522.60 1120.81 C 529.73 1123.89 536.12 1128.43 543.11 1131.83 C 551.15 1136.41 559.82 1139.76 567.86 1144.33 C 567.66 1148.33 568.38 1152.32 568.16 1156.32 C 567.96 1156.55 567.54 1157.02 567.34 1157.26 C 550.46 1151.26 536.02 1139.96 521.77 1129.33 C 521.72 1130.00 521.60 1131.33 521.54 1132.00 C 521.65 1130.03 521.74 1128.07 521.92 1126.12 C 522.10 1124.33 522.34 1122.56 522.60 1120.81 Z" />
<path fill="#2959a3" opacity="1.00" d=" M 693.91 1137.89 C 704.49 1132.80 714.58 1126.69 725.42 1122.13 C 725.78 1124.74 726.07 1127.37 726.29 1130.01 C 713.14 1139.10 700.43 1149.12 685.72 1155.67 C 683.87 1156.25 682.93 1158.01 681.87 1159.48 C 682.10 1154.02 683.13 1148.61 682.81 1143.14 C 686.33 1141.02 690.23 1139.70 693.91 1137.89 Z" />
<path fill="#010165" opacity="1.00" d=" M 491.14 1127.88 C 500.77 1123.37 511.73 1124.97 521.92 1126.12 C 521.74 1128.07 521.65 1130.03 521.54 1132.00 C 520.77 1142.22 519.77 1152.46 517.64 1162.51 C 507.92 1151.67 499.46 1139.79 491.14 1127.88 Z" />
<path fill="#010165" opacity="1.00" d=" M 729.37 1135.45 C 736.66 1134.67 744.07 1134.64 751.25 1136.33 C 744.51 1144.94 739.13 1154.79 730.60 1161.86 C 728.69 1153.25 728.53 1144.38 727.08 1135.70 L 729.37 1135.45 Z" />
<path fill="#010165" opacity="1.00" d=" M 657.20 1151.22 C 665.91 1149.21 674.71 1147.00 682.81 1143.14 C 683.13 1148.61 682.10 1154.02 681.87 1159.48 C 681.66 1162.40 681.27 1165.29 680.97 1168.21 C 678.50 1168.28 676.04 1168.44 673.59 1168.72 C 663.32 1170.33 653.22 1165.98 642.98 1167.73 C 636.06 1168.65 629.06 1168.91 622.13 1169.22 C 619.17 1170.23 616.06 1169.30 613.03 1169.40 C 600.35 1169.48 587.67 1169.31 575.00 1169.52 C 572.98 1169.52 571.00 1169.17 569.01 1168.95 L 570.18 1169.00 C 569.05 1165.13 569.78 1160.61 567.34 1157.26 C 567.54 1157.02 567.96 1156.55 568.16 1156.32 C 568.38 1152.32 567.66 1148.33 567.86 1144.33 C 573.49 1147.19 579.68 1148.78 585.79 1150.26 C 593.87 1151.98 601.98 1153.81 610.25 1154.32 C 619.65 1155.50 629.27 1155.44 638.60 1153.72 C 644.88 1153.82 651.06 1152.43 657.20 1151.22 Z" />
<path fill="#2c2c81" opacity="1.00" d=" M 610.25 1154.32 C 612.42 1153.68 614.63 1153.07 616.92 1153.06 C 624.14 1152.86 631.40 1152.88 638.60 1153.72 C 629.27 1155.44 619.65 1155.50 610.25 1154.32 Z" />
<path fill="#010156" opacity="1.00" d=" M 642.98 1167.73 C 653.22 1165.98 663.32 1170.33 673.59 1168.72 C 676.11 1168.61 678.64 1168.65 681.17 1168.71 C 680.10 1175.26 680.11 1182.00 678.28 1188.43 C 645.34 1205.02 605.22 1202.98 572.03 1188.17 C 571.46 1181.99 570.99 1175.80 570.10 1169.67 C 581.73 1169.53 593.35 1169.51 604.99 1169.53 C 610.16 1169.58 615.37 1169.24 620.50 1170.12 C 620.91 1169.89 621.72 1169.44 622.13 1169.22 C 629.06 1168.91 636.06 1168.65 642.98 1167.73 Z" />
</svg>
